<?xml version="1.0" encoding="UTF-8"?>
<svg version="1.1" xmlns="http://www.w3.org/2000/svg" width="511" height="146">
<path d="M0 0 C168.63 0 337.26 0 511 0 C511 48.18 511 96.36 511 146 C342.37 146 173.74 146 0 146 C0 97.82 0 49.64 0 0 Z " fill="#FDFDFD" transform="translate(0,0)"/>
<path d="M0 0 C4.0754811 3.49326951 5.21791492 7.82383166 6 13 C6 14.32 6 15.64 6 17 C6.66 17 7.32 17 8 17 C8.9097654 23.19173501 9.14641756 29.2037474 9.1328125 35.45703125 C9.13376923 36.44064133 9.13472595 37.4242514 9.13571167 38.43766785 C9.13638906 40.50930852 9.13456567 42.58095136 9.13037109 44.65258789 C9.12503394 47.79253002 9.13032226 50.93232799 9.13671875 54.07226562 C9.13605755 56.09635448 9.13477554 58.12044324 9.1328125 60.14453125 C9.13483673 61.06885452 9.13686096 61.9931778 9.13894653 62.94551086 C9.09351759 75.83419438 7.2488419 86.25259193 2 98 C1.34 98 0.68 98 0 98 C0 98.66 0 99.32 0 100 C-15.56611087 106.05885889 -31.34628175 108.35366959 -48 108.375 C-49.78748657 108.37741699 -49.78748657 108.37741699 -51.61108398 108.37988281 C-62.58371655 108.2426582 -73.20261278 106.60838241 -83.875 104.125 C-84.91527344 103.90263672 -84.91527344 103.90263672 -85.9765625 103.67578125 C-90.92901849 102.53075853 -94.84091069 100.97151892 -99 98 C-101.3200261 93.66554263 -102.07784627 88.80608593 -103 84 C-103.14953125 83.23445801 -103.2990625 82.46891602 -103.453125 81.68017578 C-107.56361274 59.67046287 -111.46175505 21.77413242 -98 2 C-78.48803183 -16.78930269 -22.16645243 -11.16624663 0 0 Z " fill="#0457ED" transform="translate(118,17)"/>
<path d="M0 0 C4.95 0 9.9 0 15 0 C16.12598637 2.56207058 17.25081988 5.12463699 18.375 7.6875 C18.69210938 8.40873047 19.00921875 9.12996094 19.3359375 9.87304688 C19.6453125 10.57880859 19.9546875 11.28457031 20.2734375 12.01171875 C20.57475586 12.6979834 20.87607422 13.38424805 21.18652344 14.09130859 C21.86990788 15.69475984 22.4931005 17.32367759 23.1015625 18.95703125 C23.81732981 21.1747984 23.81732981 21.1747984 26 22 C26.103125 21.278125 26.20625 20.55625 26.3125 19.8125 C27.07124657 16.70853676 28.322665 14.70954115 30 12 C31.76998757 8.03522784 33.38716077 4.03209807 35 0 C39.95 0 44.9 0 50 0 C50.75572143 3.02288574 51.18717513 5.44073674 51.38891602 8.49316406 C51.44890274 9.37377502 51.50888947 10.25438599 51.57069397 11.16168213 C51.63115402 12.10348328 51.69161407 13.04528442 51.75390625 14.015625 C51.85166603 15.47207428 51.85166603 15.47207428 51.95140076 16.95794678 C52.15850259 20.05508248 52.36056375 23.15252362 52.5625 26.25 C52.70214179 28.3515846 52.84211182 30.45314741 52.98242188 32.5546875 C53.32542214 37.7028801 53.66390245 42.85135234 54 48 C52.22950311 48.05410687 50.45853151 48.09284119 48.6875 48.125 C47.20830078 48.15980469 47.20830078 48.15980469 45.69921875 48.1953125 C43 48 43 48 40 46 C38.444672 37.79917961 38.90814233 29.31822203 39 21 C38.34 21 37.68 21 37 21 C36.81824219 21.61746094 36.63648438 22.23492187 36.44921875 22.87109375 C34.74246529 28.62154002 32.92432136 34.31867027 31 40 C27.04 40 23.08 40 19 40 C17.99141578 37.58660204 16.99297327 35.16981325 16 32.75 C15.71382812 32.06808594 15.42765625 31.38617188 15.1328125 30.68359375 C13.70654506 27.18584265 13 24.83099811 13 21 C12.34 21 11.68 21 11 21 C11.01047363 21.64549805 11.02094727 22.29099609 11.03173828 22.95605469 C11.07337272 25.88733002 11.09934975 28.81854304 11.125 31.75 C11.15013672 33.27367188 11.15013672 33.27367188 11.17578125 34.828125 C11.18222656 35.8078125 11.18867187 36.7875 11.1953125 37.796875 C11.20578613 38.69760742 11.21625977 39.59833984 11.22705078 40.52636719 C10.98381993 43.17627581 10.42939958 44.76840556 9 47 C6.35541621 48.32229189 4.32238699 48.09677194 1.375 48.0625 C0.37210938 48.05347656 -0.63078125 48.04445312 -1.6640625 48.03515625 C-2.43492188 48.02355469 -3.20578125 48.01195312 -4 48 C-4.09500272 42.08608048 -3.74204236 36.34798192 -3.125 30.46875 C-3.03621582 29.59222778 -2.94743164 28.71570557 -2.85595703 27.81262207 C-2.57438857 25.04135003 -2.28728739 22.27068441 -2 19.5 C-1.80692424 17.60941249 -1.61421232 15.71878778 -1.421875 13.828125 C-0.95212168 9.21830935 -0.47740905 4.60902883 0 0 Z " fill="#F8FCFA" transform="translate(45,43)"/>
<path d="M0 0 C4.62 0 9.24 0 14 0 C17.06437064 5.1777297 19.55031827 10.36129885 21.78125 15.9609375 C23.07676886 19.66213548 23.07676886 19.66213548 26 22 C26.08121094 21.34644531 26.16242188 20.69289063 26.24609375 20.01953125 C27.26980093 15.91939836 29.12738986 12.42737607 31.0625 8.6875 C31.43955078 7.94693359 31.81660156 7.20636719 32.20507812 6.44335938 C33.13128157 4.62612478 34.06490629 2.81267596 35 1 C39.62 1 44.24 1 49 1 C50.25687115 6.02748462 50.63181426 10.96955591 51.0625 16.125 C51.15192871 17.18783203 51.24135742 18.25066406 51.33349609 19.34570312 C52.06067466 28.58156341 52.21039964 37.74241572 52 47 C50.37536158 47.05395478 48.75021459 47.09277195 47.125 47.125 C45.76761719 47.15980469 45.76761719 47.15980469 44.3828125 47.1953125 C42 47 42 47 40 45 C39.58935547 42.38623047 39.58935547 42.38623047 39.3671875 39.1171875 C39.28339844 37.95058594 39.19960937 36.78398438 39.11328125 35.58203125 C39.03464844 34.35871094 38.95601562 33.13539062 38.875 31.875 C38.78863281 30.64394531 38.70226562 29.41289063 38.61328125 28.14453125 C38.40065037 25.096822 38.19659346 22.04877896 38 19 C37.61908203 20.22976562 37.61908203 20.22976562 37.23046875 21.484375 C36.88628906 22.56203125 36.54210937 23.6396875 36.1875 24.75 C35.85105469 25.81734375 35.51460937 26.8846875 35.16796875 27.984375 C34.06946649 30.82064172 32.82756231 32.61665847 31 35 C30.67 36.32 30.34 37.64 30 39 C26.37 39 22.74 39 19 39 C16.66590826 33.28549953 14.47827774 27.6302355 12.7109375 21.71484375 C12.13400682 19.79410076 12.13400682 19.79410076 10 19 C10.01047363 19.77714355 10.02094727 20.55428711 10.03173828 21.35498047 C10.07320282 24.861621 10.09929578 28.36821006 10.125 31.875 C10.14175781 33.09832031 10.15851563 34.32164063 10.17578125 35.58203125 C10.18222656 36.74863281 10.18867188 37.91523437 10.1953125 39.1171875 C10.21102295 40.73536377 10.21102295 40.73536377 10.22705078 42.38623047 C10 45 10 45 8 47 C5.1796875 47.1953125 5.1796875 47.1953125 1.875 47.125 C0.77929688 47.10695312 -0.31640625 47.08890625 -1.4453125 47.0703125 C-2.28835937 47.04710937 -3.13140625 47.02390625 -4 47 C-3.5951854 41.10981434 -3.18613662 35.21994364 -2.77319336 29.33032227 C-2.63336173 27.32747321 -2.4946793 25.32454357 -2.35717773 23.3215332 C-2.15912459 20.43939515 -1.95691523 17.55757395 -1.75390625 14.67578125 C-1.6934462 13.78288895 -1.63298615 12.88999664 -1.57069397 11.970047 C-1.48071388 10.70930611 -1.48071388 10.70930611 -1.38891602 9.4230957 C-1.31230492 8.32056206 -1.31230492 8.32056206 -1.23414612 7.195755 C-0.97609941 4.77586718 -0.47726969 2.38634843 0 0 Z " fill="#0B0B0B" transform="translate(156,43)"/>
<path d="M0 0 C4.4195638 2.32399535 8.48270848 5.91200264 10.80078125 10.3515625 C12.2335203 17.67931182 10.57929945 23.09339173 6.80078125 29.3515625 C6.14078125 29.3515625 5.48078125 29.3515625 4.80078125 29.3515625 C4.80078125 30.0115625 4.80078125 30.6715625 4.80078125 31.3515625 C-2.32051679 34.30558243 -10.0683407 36.35929739 -17.53515625 33.4375 C-21.95397098 30.89134282 -25.13139801 28.09031837 -27.19921875 23.3515625 C-27.83669639 17.40994399 -28.18438817 10.67295147 -25.19921875 5.3515625 C-18.17722711 -0.9786073 -9.18042775 -2.70684015 0 0 Z " fill="#0B0B0B" transform="translate(239.19921875,56.6484375)"/>
<path d="M0 0 C4.0766181 2.70170474 7.43068105 5.29204315 9 10 C9.45548837 16.05905462 8.98734387 21.27177355 7 27 C6.67 27.99 6.34 28.98 6 30 C0.27266606 34.10236943 -5.13364798 34.28893718 -11.91015625 33.359375 C-12.59980469 33.24078125 -13.28945313 33.1221875 -14 33 C-14 32.34 -14 31.68 -14 31 C-14.66 31 -15.32 31 -16 31 C-16 36.28 -16 41.56 -16 47 C-18.31 47 -20.62 47 -23 47 C-23 31.49 -23 15.98 -23 0 C-21.02 0 -19.04 0 -17 0 C-16.67 0.99 -16.34 1.98 -16 3 C-15.030625 2.319375 -14.06125 1.63875 -13.0625 0.9375 C-8.57884772 -1.57551478 -4.83541626 -1.72752478 0 0 Z " fill="#2E2E2E" transform="translate(373,57)"/>
<path d="M0 0 C3.84304734 3.04241248 4.78924844 4.42962108 5.44140625 9.2890625 C5.6151474 14.61338801 5.57884039 18.75656508 3.3125 23.625 C-1.8737908 28.95146082 -5.41358152 31.09111504 -12.8125 31.3125 C-19.14901163 31.24717514 -22.59963175 29.08453032 -27.375 24.9375 C-31.30971923 20.246104 -30.4061732 13.77838859 -30 8 C-28.31402381 2.54537115 -24.91432224 -0.34732284 -20 -3 C-12.5040127 -5.32684871 -6.40641931 -4.31647868 0 0 Z " fill="#131313" transform="translate(416,60)"/>
<path d="M0 0 C1.77049689 -0.05410687 3.54146849 -0.09284119 5.3125 -0.125 C6.29863281 -0.14820313 7.28476562 -0.17140625 8.30078125 -0.1953125 C11 0 11 0 14 2 C14 2.66 14 3.32 14 4 C15.32 3.67 16.64 3.34 18 3 C18 2.34 18 1.68 18 1 C22.77745497 -0.59248499 28.23528183 -1.23306431 32.953125 0.87109375 C35.73247605 2.92862305 36.91420016 4.60718147 37.6484375 7.96875 C38.22974613 13.10600591 38.10615965 18.27558567 38.0625 23.4375 C38.05798828 24.45521484 38.05347656 25.47292969 38.04882812 26.52148438 C38.03712437 29.01438509 38.02072848 31.50716074 38 34 C36.37536158 34.05395478 34.75021459 34.09277195 33.125 34.125 C31.76761719 34.15980469 31.76761719 34.15980469 30.3828125 34.1953125 C28 34 28 34 26 32 C25.77294922 29.75341797 25.77294922 29.75341797 25.8046875 26.9921875 C25.81113281 26.00605469 25.81757813 25.01992187 25.82421875 24.00390625 C25.84097656 22.97136719 25.85773438 21.93882813 25.875 20.875 C25.88402344 19.83472656 25.89304687 18.79445313 25.90234375 17.72265625 C25.92596253 15.14820908 25.95889851 12.57421788 26 10 C23.03 10.66 20.06 11.32 17 12 C16.24884679 15.00461285 15.83472225 17.305555 15.68359375 20.328125 C15.64169922 21.12734375 15.59980469 21.9265625 15.55664062 22.75 C15.49766602 23.9875 15.49766602 23.9875 15.4375 25.25 C15.39431641 26.09046875 15.35113281 26.9309375 15.30664062 27.796875 C15.20091457 29.86440671 15.09998705 31.93218281 15 34 C11.04 34 7.08 34 3 34 C2.67 26.41 2.34 18.82 2 11 C1.34 10.67 0.68 10.34 0 10 C0 6.7 0 3.4 0 0 Z " fill="#0E0E0E" transform="translate(251,56)"/>
<path d="M0 0 C2.8714027 1.56534662 5.05810335 3.3606616 7 6 C7 6.66 7 7.32 7 8 C7.66 8 8.32 8 9 8 C10.26086514 11.94020358 10 14.47580299 10 19 C2.74 19 -4.52 19 -12 19 C-11.01 20.65 -10.02 22.3 -9 24 C-9 24.66 -9 25.32 -9 26 C-7.56163249 25.88541307 -6.12429034 25.75790884 -4.6875 25.625 C-3.88699219 25.55539063 -3.08648437 25.48578125 -2.26171875 25.4140625 C0.27224441 25.10435574 0.27224441 25.10435574 3 23 C5.1875 23.375 5.1875 23.375 7 24 C7.66 26.31 8.32 28.62 9 31 C2.19812184 35.34564438 -4.31288771 35.98563471 -12.25390625 34.609375 C-16.9489904 33.21955882 -19.79963469 30.95818055 -22.14453125 26.64453125 C-24.17873002 20.35616337 -24.73573681 12.60941296 -21.8203125 6.546875 C-16.2463406 -0.32672765 -8.42956825 -1.31225469 0 0 Z " fill="#080808" transform="translate(336,56)"/>
<path d="M0 0 C-3.22791555 2.1519437 -4.28400809 2.20086443 -8 2 C-8 2.66 -8 3.32 -8 4 C-13.60151564 6.0619076 -19.05240381 6.74036838 -24.953125 7.4375 C-28.09842522 7.72043672 -28.09842522 7.72043672 -30 10 C-30.825 10.20625 -31.65 10.4125 -32.5 10.625 C-35.12219995 11.72415952 -35.12219995 11.72415952 -35.76953125 13.90625 C-36.26211269 15.91910077 -36.63799676 17.95961808 -37 20 C-37.66 20 -38.32 20 -39 20 C-40.4885454 31.45677245 -41.34830876 42.73192777 -41.31567383 54.28710938 C-41.31249053 56.63197477 -41.33620271 58.97559906 -41.36132812 61.3203125 C-41.46139356 79.46889161 -41.46139356 79.46889161 -35 96 C-34.13602638 98.64736301 -33.60077454 101.27340784 -33 104 C-32.14728516 104.18175781 -32.14728516 104.18175781 -31.27734375 104.3671875 C-27.70268894 105.14298904 -24.19153854 105.94217705 -20.6875 107 C-15.52254901 108.40066468 -10.28457704 109.18431816 -5 110 C-5 110.66 -5 111.32 -5 112 C-0.05208706 112.0246826 4.8957902 112.04285166 9.84375 112.05493164 C11.52767562 112.05996653 13.21159686 112.06679481 14.89550781 112.07543945 C17.31316203 112.08754196 19.73075856 112.09323668 22.1484375 112.09765625 C22.9036972 112.10281754 23.65895691 112.10797882 24.43710327 112.11329651 C28.34648109 112.19320188 28.34648109 112.19320188 32 111 C33.72676868 110.845364 35.45672296 110.7252657 37.1875 110.625 C40.79859478 110.3349898 43.07478613 109.96736605 46.4375 108.5 C51.51322367 106.36285319 56.54225623 106.25989256 62 106 C47.35454921 113.93295251 30.33704848 115.36346476 14 115.375 C12.80866455 115.37653076 11.6173291 115.37806152 10.38989258 115.37963867 C-0.58304587 115.24321053 -11.20236559 113.60843993 -21.875 111.125 C-22.91527344 110.90263672 -22.91527344 110.90263672 -23.9765625 110.67578125 C-28.92901849 109.53075853 -32.84091069 107.97151892 -37 105 C-39.3200261 100.66554263 -40.07784627 95.80608593 -41 91 C-41.14953125 90.23445801 -41.2990625 89.46891602 -41.453125 88.68017578 C-45.56361274 66.67046287 -49.46175505 28.77413242 -36 9 C-30.31771772 3.52817262 -21.80970188 2.39536341 -14.3125 1.3125 C-13.48427734 1.18294922 -12.65605469 1.05339844 -11.80273438 0.91992188 C-7.83772026 0.31993175 -4.02287697 -0.17205787 0 0 Z " fill="#2561C1" transform="translate(56,10)"/>
<path d="M0 0 C2.56397765 2.08916697 3.77392827 4.2508501 4.6875 7.375 C5.05500344 11.83940351 4.96955439 16.27442551 4.875 20.75 C4.85469727 22.56951172 4.85469727 22.56951172 4.83398438 24.42578125 C4.79874582 27.40931206 4.74947525 30.39192458 4.6875 33.375 C2.7075 33.375 0.7275 33.375 -1.3125 33.375 C-1.33231934 32.62814941 -1.35213867 31.88129883 -1.37255859 31.11181641 C-1.46758211 27.74084395 -1.57735259 24.37051071 -1.6875 21 C-1.7184375 19.824375 -1.749375 18.64875 -1.78125 17.4375 C-1.81992187 16.31601563 -1.85859375 15.19453125 -1.8984375 14.0390625 C-1.94556885 12.48372803 -1.94556885 12.48372803 -1.99365234 10.89697266 C-2.07204472 8.20690165 -2.07204472 8.20690165 -4.3125 6.375 C-10.12701891 5.79636945 -10.12701891 5.79636945 -15.25 8.25 C-18.20490027 11.2944427 -18.45465781 13.03188525 -18.62890625 17.1640625 C-18.67080078 18.10507813 -18.71269531 19.04609375 -18.75585938 20.015625 C-18.81483398 21.49289063 -18.81483398 21.49289063 -18.875 23 C-18.91818359 23.99257812 -18.96136719 24.98515625 -19.00585938 26.0078125 C-19.11211069 28.46339838 -19.21414964 30.91908703 -19.3125 33.375 C-21.2925 33.375 -23.2725 33.375 -25.3125 33.375 C-25.3125 22.485 -25.3125 11.595 -25.3125 0.375 C-23.3325 0.375 -21.3525 0.375 -19.3125 0.375 C-18.9825 1.695 -18.6525 3.015 -18.3125 4.375 C-17.549375 3.735625 -16.78625 3.09625 -16 2.4375 C-11.21339807 -1.23593869 -5.71990487 -1.54592023 0 0 Z " fill="#1A1A1A" transform="translate(466.3125,56.625)"/>
<path d="M0 0 C3.75 0.375 3.75 0.375 6.6875 2.3125 C9.2106518 6.05899813 8.92839975 8.00321293 8.67578125 12.35546875 C8.54021775 14.55989205 8.54021775 14.55989205 10.5 16.3125 C11.61375 16.8384375 11.61375 16.8384375 12.75 17.375 C13.4925 17.766875 14.235 18.15875 15 18.5625 C15.5775 18.830625 16.155 19.09875 16.75 19.375 C16.42 20.035 16.09 20.695 15.75 21.375 C15.09 21.375 14.43 21.375 13.75 21.375 C13.75 22.035 13.75 22.695 13.75 23.375 C7.23879658 26.07594364 0.80689295 27.50854816 -6.25 26.375 C-8.57421875 25.1015625 -8.57421875 25.1015625 -10.25 23.375 C-10.25 19.56476904 -9.82362623 16.1354386 -9.25 12.375 C-9.064375 11.075625 -8.87875 9.77625 -8.6875 8.4375 C-8.543125 7.426875 -8.39875 6.41625 -8.25 5.375 C-7.59 5.375 -6.93 5.375 -6.25 5.375 C-5.940625 4.735625 -5.63125 4.09625 -5.3125 3.4375 C-3.76548947 0.43447955 -3.76548947 0.43447955 0 0 Z " fill="#0F0F0F" transform="translate(230.25,64.625)"/>
<path d="M0 0 C5.70769231 3.12307692 5.70769231 3.12307692 7 7 C7.66 7 8.32 7 9 7 C9.36308044 12.10329727 9.58277658 15.87463833 7.1875 20.5 C4.21180554 23.90079367 2.73553055 24.92765273 -1.8125 25.375 C-6.18033146 25.24629778 -8.71884975 23.96865975 -12 21 C-14.12524489 16.65290818 -14.19153485 12.78837124 -14 8 C-13.34 8 -12.68 8 -12 8 C-11.938125 7.236875 -11.87625 6.47375 -11.8125 5.6875 C-11 3 -11 3 -8.8125 1.1875 C-5.48836743 -0.21602264 -3.57712592 -0.51101799 0 0 Z " fill="#F2F2F2" transform="translate(406,61)"/>
<path d="M0 0 C1.93681161 -0.08107583 3.8745934 -0.13922475 5.8125 -0.1875 C6.89144531 -0.22230469 7.97039062 -0.25710937 9.08203125 -0.29296875 C12 0 12 0 13.6640625 1.0625 C15.67276392 3.9757044 15.37008133 6.88414131 15.29296875 10.29296875 C15.28872391 10.99899734 15.28447906 11.70502594 15.28010559 12.43244934 C15.26333034 14.68452303 15.22568243 16.93569742 15.1875 19.1875 C15.17245157 20.71548185 15.15876344 22.24347776 15.14648438 23.77148438 C15.11343089 27.51466872 15.06165832 31.25718196 15 35 C13.56344146 35.08131463 12.1255517 35.13933559 10.6875 35.1875 C9.48673828 35.23970703 9.48673828 35.23970703 8.26171875 35.29296875 C6 35 6 35 4.2253418 33.80737305 C2.58366643 31.38591006 2.65655143 29.80553424 2.70703125 26.89453125 C2.71669922 25.91162109 2.72636719 24.92871094 2.73632812 23.91601562 C2.76146484 22.89185547 2.78660156 21.86769531 2.8125 20.8125 C2.83280273 19.25885742 2.83280273 19.25885742 2.85351562 17.67382812 C2.88888611 15.11536301 2.93824456 12.5579422 3 10 C2.01 10 1.02 10 0 10 C0 6.7 0 3.4 0 0 Z " fill="#161616" transform="translate(293,56)"/>
<path d="M0 0 C3.41365657 0.07695844 4.63866959 0.34651559 7.6875 2.125 C10.65105242 5.45899647 10.61241902 7.36140683 10.9375 11.75 C10.60404549 16.58509044 9.24344288 19.70791834 5.9375 23.25 C2.65969573 24.88890214 0.297084 24.826198 -3.3125 24.375 C-6.29102845 22.12097847 -7.85840983 19.77409114 -9.3125 16.375 C-9.9088461 12.04568217 -9.79847728 8.41322419 -7.9375 4.4375 C-5.31634431 1.11064854 -4.22718958 0.0710452 0 0 Z " fill="#F1F1F1" transform="translate(365.3125,61.625)"/>
<path d="M0 0 C2.31 0 4.62 0 7 0 C7 3.3 7 6.6 7 10 C9.31 10 11.62 10 14 10 C14 11.65 14 13.3 14 15 C11.36 15 8.72 15 6 15 C6.14134727 17.89611544 6.2879153 20.7918081 6.4375 23.6875 C6.49647461 24.91243164 6.49647461 24.91243164 6.55664062 26.16210938 C6.76898003 30.19655811 7.04447922 34.05747309 8 38 C10.31 38 12.62 38 15 38 C15 39.98 15 41.96 15 44 C9.30707666 44.45543387 6.3984985 43.68246386 2 40 C0.06393457 36.93599447 -0.23912191 34.60799641 -0.1953125 31.015625 C-0.18886719 30.08105469 -0.18242187 29.14648438 -0.17578125 28.18359375 C-0.15902344 27.21550781 -0.14226562 26.24742188 -0.125 25.25 C-0.11597656 24.26644531 -0.10695313 23.28289062 -0.09765625 22.26953125 C-0.07412785 19.84610593 -0.04125368 17.42317778 0 15 C-1.65 15 -3.3 15 -5 15 C-5 13.68 -5 12.36 -5 11 C-3.35 11 -1.7 11 0 11 C0 7.37 0 3.74 0 0 Z " fill="#191919" transform="translate(480,47)"/>
<path d="M0 0 C1.5 1.3125 1.5 1.3125 3 3 C3 3.99 3 4.98 3 6 C3.66 6 4.32 6 5 6 C5.33 18.54 5.66 31.08 6 44 C7.485 43.505 7.485 43.505 9 43 C9 44.65 9 46.3 9 48 C2.12018766 51.43990617 -3.65081841 51.41957671 -11 49 C-13.34770643 45.47844036 -13.37669614 43.49228157 -13.625 39.3125 C-13.69976562 38.13300781 -13.77453125 36.95351562 -13.8515625 35.73828125 C-13.92503906 34.38283203 -13.92503906 34.38283203 -14 33 C-14.4021875 33.9590625 -14.4021875 33.9590625 -14.8125 34.9375 C-16 37 -16 37 -19 38 C-17.23536928 31.89262558 -15.30442525 25.92566493 -13 20 C-12.34 20 -11.68 20 -11 20 C-10.9498877 20.7520874 -10.89977539 21.5041748 -10.84814453 22.27905273 C-10.616951 25.66595938 -10.37117677 29.05165088 -10.125 32.4375 C-10.04636719 33.62150391 -9.96773437 34.80550781 -9.88671875 36.02539062 C-9.80292969 37.15009766 -9.71914062 38.27480469 -9.6328125 39.43359375 C-9.55949707 40.47572021 -9.48618164 41.51784668 -9.41064453 42.59155273 C-9.27513184 43.38634033 -9.13961914 44.18112793 -9 45 C-6.43106162 46.28446919 -4.23423663 46.32977144 -1.375 46.5625 C-0.37210938 46.64628906 0.63078125 46.73007813 1.6640625 46.81640625 C2.43492188 46.87699219 3.20578125 46.93757813 4 47 C3.67 46.01 3.34 45.02 3 44 C2.83215981 42.5440178 2.70746334 41.08281322 2.61108398 39.62036133 C2.55109726 38.73967484 2.49111053 37.85898834 2.42930603 36.95161438 C2.36884598 36.00465195 2.30838593 35.05768951 2.24609375 34.08203125 C2.14833397 32.62345955 2.14833397 32.62345955 2.04859924 31.13542175 C1.84118504 28.02801476 1.63927881 24.92027752 1.4375 21.8125 C1.2978885 19.70635615 1.15791898 17.600236 1.01757812 15.49414062 C0.67422967 10.32969296 0.33582077 5.16494239 0 0 Z " fill="#1057D7" transform="translate(95,44)"/>
<path d="M0 0 C8.39763447 -0.91241904 8.39763447 -0.91241904 12.22265625 1.265625 C13.99171805 2.76224402 15.57182113 4.17457933 17 6 C17 6.66 17 7.32 17 8 C17.66 8 18.32 8 19 8 C20.26086514 11.94020358 20 14.47580299 20 19 C13.73 19 7.46 19 1 19 C1 18.34 1 17.68 1 17 C0.01 16.67 -0.98 16.34 -2 16 C1.32604951 14.89131683 4.53058454 14.45822468 8 14 C8 12.35 8 10.7 8 9 C5.69 8.67 3.38 8.34 1 8 C0.67 7.01 0.34 6.02 0 5 C-0.99 5 -1.98 5 -3 5 C-3 4.34 -3 3.68 -3 3 C-2.34 3 -1.68 3 -1 3 C-0.67 2.01 -0.34 1.02 0 0 Z " fill="#0B0B0B" transform="translate(326,56)"/>
<path d="M0 0 C0.33 0.66 0.66 1.32 1 2 C3.02463255 2.65213292 3.02463255 2.65213292 5 3 C5.05437607 4.58294782 5.09296271 6.16644256 5.125 7.75 C5.14820313 8.63171875 5.17140625 9.5134375 5.1953125 10.421875 C4.98434067 13.20670317 4.56806009 14.69984876 3 17 C-2.5182435 21.03862656 -8.01618545 21.33877274 -14.6171875 20.65234375 C-17 20 -17 20 -20 17 C-20 22.28 -20 27.56 -20 33 C-21.65 33 -23.3 33 -25 33 C-25 26.07 -25 19.14 -25 12 C-24.01 11.67 -23.02 11.34 -22 11 C-21.67 12.65 -21.34 14.3 -21 16 C-20.01 16 -19.02 16 -18 16 C-18 15.34 -18 14.68 -18 14 C-17.484375 14.165 -16.96875 14.33 -16.4375 14.5 C-13.10784527 15.1830061 -10.39545558 15.35741638 -7 15 C-2.77537618 12.18358412 -1.66822959 9.4889886 -0.6875 4.6875 C-0.43933091 3.12790527 -0.20373453 1.56601911 0 0 Z " fill="#0F0F0F" transform="translate(376,70)"/>
<path d="M0 0 C0.33 0 0.66 0 1 0 C1 15.18 1 30.36 1 46 C0.67 46 0.34 46 0 46 C-0.33 41.05 -0.66 36.1 -1 31 C-2.32 30.67 -3.64 30.34 -5 30 C-5.66 27.69 -6.32 25.38 -7 23 C-10.29075996 23.37904208 -10.29075996 23.37904208 -13 25 C-16.03362114 25.36862727 -18.96975501 25.40403267 -22 25 C-24.0625 23.1875 -24.0625 23.1875 -25 21 C-25 20.01 -25 19.02 -25 18 C-17.74 18 -10.48 18 -3 18 C-3 16.02 -3 14.04 -3 12 C-2.34 12.66 -1.68 13.32 -1 14 C-0.67 9.38 -0.34 4.76 0 0 Z " fill="#F6F6F6" transform="translate(349,57)"/>
<path d="M0 0 C1.9609375 0.0859375 1.9609375 0.0859375 4.375 0.375 C5.56222656 0.51035156 5.56222656 0.51035156 6.7734375 0.6484375 C9 1 9 1 12 2 C12.09765625 8.15234375 12.09765625 8.15234375 12 10 C11.67 10.33 11.34 10.66 11 11 C11.20676997 13.10216133 11.42229281 15.20374055 11.67578125 17.30078125 C12.5716341 24.75902607 13.07700599 32.15365073 13.0546875 39.66796875 C13.05343369 40.39924484 13.05217987 41.13052094 13.05088806 41.88395691 C13.02046245 50.02433679 12.84218322 58.16073991 12.62768555 66.2980957 C12.56138432 68.85553524 12.50230856 71.41308471 12.44335938 73.97070312 C12.40147691 75.61199033 12.35917552 77.25326691 12.31640625 78.89453125 C12.29133751 80.03037407 12.29133751 80.03037407 12.26576233 81.18916321 C12.16990818 84.58026103 12.04374583 87.75414682 11 91 C10.01 91 9.02 91 8 91 C7.505 91.99 7.505 91.99 7 93 C7.875 85.125 7.875 85.125 9 84 C10.20583592 76.09836788 10.13424622 68.08457572 10.09765625 60.11328125 C10.09553383 58.33874825 10.09553383 58.33874825 10.09336853 56.52836609 C10.08781912 52.78971716 10.07527629 49.0511305 10.0625 45.3125 C10.05747845 42.76106858 10.0529167 40.20963621 10.04882812 37.65820312 C10.03786631 31.43878122 10.0211794 25.21939506 10 19 C9.34 19 8.68 19 8 19 C7.76925781 18.03578125 7.53851563 17.0715625 7.30078125 16.078125 C6.97464844 14.81484375 6.64851563 13.5515625 6.3125 12.25 C5.99925781 10.99703125 5.68601562 9.7440625 5.36328125 8.453125 C3.85129739 4.62334352 2.39591255 3.23015153 -1 1 C-0.67 0.67 -0.34 0.34 0 0 Z " fill="#F5F9F8" transform="translate(116,15)"/>
<path d="M0 0 C-0.33 0.66 -0.66 1.32 -1 2 C-1.66 2 -2.32 2 -3 2 C-3 2.66 -3 3.32 -3 4 C-1.02 3.67 0.96 3.34 3 3 C2.01 3.495 2.01 3.495 1 4 C1 4.99 1 5.98 1 7 C3.31 7.33 5.62 7.66 8 8 C8 9.65 8 11.3 8 13 C5.03 13.66 2.06 14.32 -1 15 C-0.34 15.33 0.32 15.66 1 16 C1 16.66 1 17.32 1 18 C-0.65 18.33 -2.3 18.66 -4 19 C-4 18.34 -4 17.68 -4 17 C-7.58327753 15.99782936 -7.58327753 15.99782936 -11 17 C-12.26716918 14.39112227 -13.01239616 12.48345037 -12.9375 9.5625 C-11.27571863 5.0202976 -8.57201873 1.84084723 -4.3125 -0.4375 C-2 -1 -2 -1 0 0 Z " fill="#121212" transform="translate(326,57)"/>
<path d="M0 0 C3.5625 0.625 3.5625 0.625 6.5 2.625 C9.27084355 6.65531789 8.96941598 8.82339142 8.5625 13.625 C7.5725 13.625 6.5825 13.625 5.5625 13.625 C4.9025 14.945 4.2425 16.265 3.5625 17.625 C-0.4135803 18.08733492 -2.00601204 17.93454571 -5.3125 15.5625 C-7.4375 12.625 -7.4375 12.625 -8 9.125 C-7.11930549 3.64512303 -5.61747861 1.02135975 0 0 Z " fill="#F4F4F4" transform="translate(230.4375,64.375)"/>
<path d="M0 0 C2.1674615 1.92092559 3.39543119 3.51550636 5 6 C4.8125 8.375 4.8125 8.375 4 10 C4 9.34 4 8.68 4 8 C2.68 7.67 1.36 7.34 0 7 C-0.33 7.66 -0.66 8.32 -1 9 C-1.48210937 8.57847656 -1.96421875 8.15695313 -2.4609375 7.72265625 C-3.40839844 6.90087891 -3.40839844 6.90087891 -4.375 6.0625 C-5.31472656 5.24458984 -5.31472656 5.24458984 -6.2734375 4.41015625 C-9.52782251 1.75216306 -11.8434989 1.67399991 -16 2 C-18.83859805 3.1191794 -18.83859805 3.1191794 -21 5 C-21.87822312 7.08533633 -21.87822312 7.08533633 -22 9 C-22.66 9 -23.32 9 -24 9 C-24 10.98 -24 12.96 -24 15 C-25.0625 13.1875 -25.0625 13.1875 -26 11 C-25.67 10.01 -25.34 9.02 -25 8 C-25.66 8 -26.32 8 -27 8 C-27.33 6.35 -27.66 4.7 -28 3 C-26.75627811 2.01287122 -25.50472782 1.03560095 -24.25 0.0625 C-23.55390625 -0.48277344 -22.8578125 -1.02804688 -22.140625 -1.58984375 C-15.05265811 -6.25910661 -6.60750117 -4.58307528 0 0 Z " fill="#131313" transform="translate(416,60)"/>
<path d="M0 0 C5.94 0 11.88 0 18 0 C18 1.32 18 2.64 18 4 C18.66 4 19.32 4 20 4 C20.18175781 4.77085938 20.36351563 5.54171875 20.55078125 6.3359375 C20.80214844 7.33882812 21.05351563 8.34171875 21.3125 9.375 C21.67794922 10.87160156 21.67794922 10.87160156 22.05078125 12.3984375 C22.82193858 15.3084986 22.82193858 15.3084986 26 17 C26.99 16.67 27.98 16.34 29 16 C29 15.01 29 14.02 29 13 C29.66 13 30.32 13 31 13 C30.94779297 12.06027344 30.94779297 12.06027344 30.89453125 11.1015625 C30.86746094 10.28429688 30.84039062 9.46703125 30.8125 8.625 C30.76029297 7.40683594 30.76029297 7.40683594 30.70703125 6.1640625 C30.80371094 5.44992188 30.90039062 4.73578125 31 4 C34.04681061 1.96879293 34.60118324 1.75340125 38.01171875 1.8046875 C38.76904297 1.81113281 39.52636719 1.81757812 40.30664062 1.82421875 C41.48516602 1.84935547 41.48516602 1.84935547 42.6875 1.875 C43.48478516 1.88402344 44.28207031 1.89304688 45.10351562 1.90234375 C47.069139 1.92588415 49.03460775 1.96175453 51 2 C51 2.33 51 2.66 51 3 C46.05 3 41.1 3 36 3 C35.67 4.65 35.34 6.3 35 8 C34.16796875 9.921875 34.16796875 9.921875 33.1875 11.75 C30.92904617 16.08490772 28.94992233 20.51932742 27 25 C26.01 24.67 25.02 24.34 24 24 C22.71875 21.234375 22.71875 21.234375 21.5 17.75 C20.30719164 14.3703763 19.20234155 11.33405445 17.34375 8.265625 C16 6 16 6 16 3 C11.05 3 6.1 3 1 3 C1.020625 4.423125 1.04125 5.84625 1.0625 7.3125 C1.07051774 12.91690248 0.59290281 18.43094858 0 24 C-0.33 24 -0.66 24 -1 24 C-1.02909763 20.75001888 -1.04683161 17.50007143 -1.0625 14.25 C-1.07087891 13.32960938 -1.07925781 12.40921875 -1.08789062 11.4609375 C-1.09111328 10.57148437 -1.09433594 9.68203125 -1.09765625 8.765625 C-1.10289307 7.94868164 -1.10812988 7.13173828 -1.11352539 6.29003906 C-1 4 -1 4 0 0 Z " fill="#2C67C4" transform="translate(44,40)"/>
<path d="M0 0 C1.98 0 3.96 0 6 0 C6 10.89 6 21.78 6 33 C4.02 33 2.04 33 0 33 C0 22.11 0 11.22 0 0 Z " fill="#020202" transform="translate(427,57)"/>
<path d="M0 0 C0.33 0 0.66 0 1 0 C1.30892527 9.21627045 0.39049107 17.91214765 -1 27 C0.79206547 26.85915204 2.58364917 26.71216299 4.375 26.5625 C5.37273438 26.48128906 6.37046875 26.40007812 7.3984375 26.31640625 C9.97927613 26.15034374 9.97927613 26.15034374 12 25 C12.9731681 22.0804957 13.1929546 19.94555049 13.31640625 16.89453125 C13.35830078 15.91162109 13.40019531 14.92871094 13.44335938 13.91601562 C13.48267578 12.89185547 13.52199219 11.86769531 13.5625 10.8125 C13.60568359 9.77673828 13.64886719 8.74097656 13.69335938 7.67382812 C13.79944366 5.1160181 13.90150146 2.55811155 14 0 C14.66 0 15.32 0 16 0 C18.32655091 5.98410537 20.42934122 11.58008874 21 18 C20.01 17.67 19.02 17.34 18 17 C18 15.02 18 13.04 18 11 C17.34 11 16.68 11 16 11 C16.18304688 11.69609375 16.36609375 12.3921875 16.5546875 13.109375 C17.06414337 16.41636923 16.7158836 18.96371588 16.125 22.25 C15.94195312 23.30703125 15.75890625 24.3640625 15.5703125 25.453125 C15 28 15 28 14 29 C11.65012738 29.23527773 9.29443961 29.41386417 6.9375 29.5625 C5.64714844 29.64628906 4.35679688 29.73007813 3.02734375 29.81640625 C2.02832031 29.87699219 1.02929688 29.93757813 0 30 C0 29.34 0 28.68 0 28 C-0.99 27.67 -1.98 27.34 -3 27 C-3.125 19.25 -3.125 19.25 -2 17 C-1.79396355 14.69067477 -1.63376638 12.37713617 -1.5 10.0625 C-1.11013767 3.33041302 -1.11013767 3.33041302 0 0 Z " fill="#2561C5" transform="translate(42,64)"/>
<path d="M0 0 C0.33 1.32 0.66 2.64 1 4 C1.66 4 2.32 4 3 4 C3.9097654 10.19173501 4.14641756 16.2037474 4.1328125 22.45703125 C4.13376923 23.44064133 4.13472595 24.4242514 4.13571167 25.43766785 C4.13638906 27.50930852 4.13456567 29.58095136 4.13037109 31.65258789 C4.12503394 34.79253002 4.13032226 37.93232799 4.13671875 41.07226562 C4.13605755 43.09635448 4.13477554 45.12044324 4.1328125 47.14453125 C4.13483673 48.06885452 4.13686096 48.9931778 4.13894653 49.94551086 C4.09351759 62.83419438 2.2488419 73.25259193 -3 85 C-3.66 85 -4.32 85 -5 85 C-5 84.01 -5 83.02 -5 82 C-4.34 82 -3.68 82 -3 82 C-3.0825 80.845 -3.165 79.69 -3.25 78.5 C-3.49964929 75.00490993 -2.8491731 73.74516282 -1.00219727 70.62451172 C1.82535388 65.05848599 1.52037527 59.6013691 1.42578125 53.4765625 C1.42249313 52.294039 1.41920502 51.1115155 1.41581726 49.89315796 C1.40543485 47.40706839 1.38555078 44.92100231 1.35668945 42.43505859 C1.31240405 38.61672751 1.29521733 34.79902553 1.28320312 30.98046875 C1.26978714 28.56249085 1.25486642 26.14452074 1.23828125 23.7265625 C1.23089432 22.58079742 1.22350739 21.43503235 1.21589661 20.25454712 C1.19664375 18.6718251 1.19664375 18.6718251 1.17700195 17.05712891 C1.16715775 16.12639557 1.15731354 15.19566223 1.14717102 14.23672485 C1.14260773 11.96227835 1.14260773 11.96227835 0 10 C-0.06996014 8.29297265 -0.08440154 6.58331997 -0.0625 4.875 C-0.05347656 3.96492188 -0.04445313 3.05484375 -0.03515625 2.1171875 C-0.02355469 1.41851563 -0.01195313 0.71984375 0 0 Z " fill="#2961C6" transform="translate(123,30)"/>
<path d="M0 0 C50.53430459 -1.59918685 50.53430459 -1.59918685 64.6875 10.25 C66.43415376 13.90965549 66.72597148 16.95807929 67 21 C65.21193386 19.37448533 64.07766164 18.18305958 63.125 15.9375 C62.122318 13.73501649 62.122318 13.73501649 59.4375 13.0625 C58.633125 12.711875 57.82875 12.36125 57 12 C56.1875 9.375 56.1875 9.375 56 7 C54.80375 7.04125 53.6075 7.0825 52.375 7.125 C49.70708907 7.21699693 47.90704848 6.96796198 45.359375 6.08984375 C40.9156994 4.64823271 36.49667105 4.05153705 31.875 3.4375 C30.92028809 3.30819092 29.96557617 3.17888184 28.98193359 3.0456543 C19.34334207 1.80572684 9.70744415 1.30533176 0 1 C0 0.67 0 0.34 0 0 Z " fill="#2E67C3" transform="translate(56,9)"/>
<path d="M0 0 C0.66 0 1.32 0 2 0 C2.0501123 0.7520874 2.10022461 1.5041748 2.15185547 2.27905273 C2.383049 5.66595938 2.62882323 9.05165088 2.875 12.4375 C2.95363281 13.62150391 3.03226563 14.80550781 3.11328125 16.02539062 C3.19707031 17.15009766 3.28085938 18.27480469 3.3671875 19.43359375 C3.44050293 20.47572021 3.51381836 21.51784668 3.58935547 22.59155273 C3.72486816 23.38634033 3.86038086 24.18112793 4 25 C6.43387753 26.21693876 8.41838846 26.31959896 11.125 26.5625 C12.03507812 26.64628906 12.94515625 26.73007813 13.8828125 26.81640625 C14.58148438 26.87699219 15.28015625 26.93757813 16 27 C16 27.33 16 27.66 16 28 C11.38 28.33 6.76 28.66 2 29 C-0.34770643 25.47844036 -0.37669614 23.49228157 -0.625 19.3125 C-0.69976562 18.13300781 -0.77453125 16.95351562 -0.8515625 15.73828125 C-0.92503906 14.38283203 -0.92503906 14.38283203 -1 13 C-1.268125 13.639375 -1.53625 14.27875 -1.8125 14.9375 C-3 17 -3 17 -6 18 C-4.23536928 11.89262558 -2.30442525 5.92566493 0 0 Z " fill="#3C6DC7" transform="translate(82,64)"/>
<path d="M0 0 C-18.97592116 10.27862396 -41.10045078 9.5696491 -62 9 C-62 8.34 -62 7.68 -62 7 C-61.10168457 6.97494385 -60.20336914 6.9498877 -59.27783203 6.92407227 C-55.94925131 6.82901307 -52.62085006 6.72977579 -49.29248047 6.62768555 C-47.8511238 6.58433769 -46.40971582 6.54266248 -44.96826172 6.50268555 C-42.89795459 6.44497912 -40.82790568 6.38128629 -38.7578125 6.31640625 C-37.5114502 6.27974854 -36.26508789 6.24309082 -34.98095703 6.20532227 C-32.07363058 6.19710521 -32.07363058 6.19710521 -30 5 C-28.27323132 4.845364 -26.54327704 4.7252657 -24.8125 4.625 C-19.84678388 4.2230752 -16.47040358 3.10371933 -12 1 C-7.94682896 0.09010446 -4.14752373 -0.09875056 0 0 Z " fill="#386CC6" transform="translate(118,116)"/>
<path d="M0 0 C0.33 0 0.66 0 1 0 C1 3.3 1 6.6 1 10 C1.99 10.33 2.98 10.66 4 11 C4.02710123 13.5625718 4.04688771 16.12485365 4.0625 18.6875 C4.07087891 19.40873047 4.07925781 20.12996094 4.08789062 20.87304688 C4.10543632 24.71555382 3.93524221 28.26639526 3 32 C2.401875 31.484375 1.80375 30.96875 1.1875 30.4375 C0.465625 29.963125 -0.25625 29.48875 -1 29 C-1.99 29.33 -2.98 29.66 -4 30 C-2.125 24.25 -2.125 24.25 -1 22 C-0.34744465 16.37870177 -0.07595522 11.53265213 -3.5 6.8125 C-4.325 5.884375 -5.15 4.95625 -6 4 C-4.68 4 -3.36 4 -2 4 C-1.34 2.68 -0.68 1.36 0 0 Z " fill="#EDEDED" transform="translate(250,56)"/>
<path d="M0 0 C-1.29023718 2.58047436 -2.27089391 2.67022964 -4.9375 3.625 C-6.00291016 4.01558594 -6.00291016 4.01558594 -7.08984375 4.4140625 C-9 5 -9 5 -11 5 C-11 5.66 -11 6.32 -11 7 C-12.98 6.67 -14.96 6.34 -17 6 C-17 5.34 -17 4.68 -17 4 C-17.9796875 4.50144531 -18.959375 5.00289063 -19.96875 5.51953125 C-26.81198349 8.08574381 -34.33113746 7.04704458 -41.5 6.6875 C-43.00514538 6.6241374 -44.5103547 6.5622751 -46.015625 6.50195312 C-49.67798279 6.35194639 -53.33905613 6.18158434 -57 6 C-57 5.67 -57 5.34 -57 5 C-56.25242432 4.99589111 -55.50484863 4.99178223 -54.73461914 4.98754883 C-37.59804957 4.82409433 -21.87693275 3.43748793 -5.17529297 -0.67041016 C-3 -1 -3 -1 0 0 Z " fill="#F2FBF7" transform="translate(113,120)"/>
<path d="M0 0 C1.32 0 2.64 0 4 0 C4 7.26 4 14.52 4 22 C2.35 22 0.7 22 -1 22 C-1.02887814 18.52085059 -1.04675687 15.04173169 -1.0625 11.5625 C-1.07087891 10.56927734 -1.07925781 9.57605469 -1.08789062 8.55273438 C-1.09111328 7.60849609 -1.09433594 6.66425781 -1.09765625 5.69140625 C-1.10289307 4.81685791 -1.10812988 3.94230957 -1.11352539 3.04125977 C-1 1 -1 1 0 0 Z " fill="#040404" transform="translate(467,68)"/>
<path d="M0 0 C3.3 0 6.6 0 10 0 C10 3.3 10 6.6 10 10 C6.7 10 3.4 10 0 10 C0 6.7 0 3.4 0 0 Z " fill="#323232" transform="translate(297,43)"/>
<path d="M0 0 C6.36696563 -0.45478326 10.70056883 0.32422434 16 4 C18.1674615 5.92092559 19.39543119 7.51550636 21 10 C20.8125 12.375 20.8125 12.375 20 14 C20 13.34 20 12.68 20 12 C18.68 11.67 17.36 11.34 16 11 C15.67 11.66 15.34 12.32 15 13 C13.87411986 12.04270084 12.7493285 11.08412105 11.625 10.125 C10.99851562 9.59132813 10.37203125 9.05765625 9.7265625 8.5078125 C7.21927244 6.31818815 6.07767383 5.23302149 5 2 C3.35 1.67 1.7 1.34 0 1 C0 0.67 0 0.34 0 0 Z " fill="#1A1A1A" transform="translate(400,56)"/>
<path d="M0 0 C4.34394059 0.53617985 8.72756739 0.36793135 13.09741211 0.32910156 C14.55244141 0.32233398 14.55244141 0.32233398 16.03686523 0.31542969 C18.41127971 0.30373306 20.78556232 0.28734242 23.15991211 0.26660156 C23.15991211 0.59660156 23.15991211 0.92660156 23.15991211 1.26660156 C22.45906494 1.3772998 21.75821777 1.48799805 21.03613281 1.60205078 C17.84723464 2.10921357 14.65984518 2.6253143 11.47241211 3.14160156 C10.36961914 3.315625 9.26682617 3.48964844 8.13061523 3.66894531 C6.53056641 3.92998047 6.53056641 3.92998047 4.89819336 4.19628906 C3.42926636 4.4319458 3.42926636 4.4319458 1.93066406 4.67236328 C-0.83199014 5.26486485 -3.22461334 6.21865694 -5.84008789 7.26660156 C-6.83008789 7.26660156 -7.82008789 7.26660156 -8.84008789 7.26660156 C-9.09008789 4.95410156 -9.09008789 4.95410156 -8.84008789 2.26660156 C-6.01482379 -1.12371536 -4.08149067 -0.67092997 0 0 Z " fill="#EAF7F6" transform="translate(32.840087890625,8.7333984375)"/>
<path d="M0 0 C7.26 0 14.52 0 22 0 C22 0.33 22 0.66 22 1 C17.545 1.495 17.545 1.495 13 2 C12.67 3.65 12.34 5.3 12 7 C8.96666668 7.22893082 6.02681166 7.34883468 3 7 C0.9375 5.1875 0.9375 5.1875 0 3 C0 2.01 0 1.02 0 0 Z " fill="#D1D1D1" transform="translate(324,75)"/>
<path d="M0 0 C0.33 0 0.66 0 1 0 C1.02533545 7.61718028 1.04286075 15.23434972 1.05493164 22.8515625 C1.05996332 25.44336351 1.06678927 28.03516167 1.07543945 30.62695312 C1.08755591 34.35026755 1.09323995 38.07354447 1.09765625 41.796875 C1.10281754 42.95741394 1.10797882 44.11795288 1.11329651 45.31365967 C1.11337204 46.39447815 1.11344757 47.47529663 1.11352539 48.58886719 C1.115746 49.53928894 1.11796661 50.48971069 1.12025452 51.46893311 C1.0096099 53.79773487 0.66082137 55.77207276 0 58 C-0.99 58 -1.98 58 -3 58 C-3.33 58.66 -3.66 59.32 -4 60 C-3.125 52.125 -3.125 52.125 -2 51 C-0.27090422 40.64392594 -0.66381325 29.78479932 -0.4375 19.3125 C-0.39421918 17.43553903 -0.35060216 15.55858578 -0.30664062 13.68164062 C-0.20054977 9.12117354 -0.09901254 4.56062602 0 0 Z " fill="#B1D2F8" transform="translate(127,48)"/>
<path d="M0 0 C0.66 0 1.32 0 2 0 C4.09230769 4.43076923 4.09230769 4.43076923 3.625 7.3125 C3.41875 7.869375 3.2125 8.42625 3 9 C3.66 9 4.32 9 5 9 C5 12.96 5 16.92 5 21 C3.35 21 1.7 21 0 21 C0 14.07 0 7.14 0 0 Z " fill="#050505" transform="translate(351,82)"/>
<path d="M0 0 C0.33 0 0.66 0 1 0 C1.03738281 0.72445312 1.07476562 1.44890625 1.11328125 2.1953125 C1.49860998 7.86191152 1.984536 12.14903618 5 17 C-1.75 19 -1.75 19 -4 19 C-4 18.01 -4 17.02 -4 16 C-4.66 16.33 -5.32 16.66 -6 17 C-5.01 12.05 -4.02 7.1 -3 2 C-2.67 2 -2.34 2 -2 2 C-2 3.65 -2 5.3 -2 7 C-1.34 7 -0.68 7 0 7 C0 4.69 0 2.38 0 0 Z " fill="#E6E6E6" transform="translate(385,69)"/>
<path d="M0 0 C0.66 0 1.32 0 2 0 C2 0.66 2 1.32 2 2 C2.66 2 3.32 2 4 2 C4.144375 3.134375 4.28875 4.26875 4.4375 5.4375 C4.61171478 8.80777201 4.61171478 8.80777201 6 10 C6.04092937 12.33297433 6.04241723 14.66705225 6 17 C5.01 17.33 4.02 17.66 3 18 C3 17.34 3 16.68 3 16 C2.34 16 1.68 16 1 16 C1 15.01 1 14.02 1 13 C0.34 13 -0.32 13 -1 13 C-1.02696365 11.20841511 -1.04637917 9.41671527 -1.0625 7.625 C-1.07410156 6.62726563 -1.08570313 5.62953125 -1.09765625 4.6015625 C-1 2 -1 2 0 0 Z " fill="#0C0C0C" transform="translate(387,66)"/>
<path d="M0 0 C0.66 0.33 1.32 0.66 2 1 C1.625 3.4375 1.625 3.4375 1 6 C0.01 6.495 0.01 6.495 -1 7 C-1.45438526 8.86374603 -1.45438526 8.86374603 -1.59765625 11.14453125 C-1.6764502 12.03648193 -1.75524414 12.92843262 -1.83642578 13.84741211 C-1.91103027 14.82589111 -1.98563477 15.80437012 -2.0625 16.8125 C-2.14483887 17.81611572 -2.22717773 18.81973145 -2.31201172 19.85375977 C-3.28993797 32.54840444 -3.65345627 45.27508328 -4 58 C-4.33 58 -4.66 58 -5 58 C-5.05019019 53.00530388 -5.08608488 48.01076096 -5.10986328 43.01586914 C-5.11979692 41.32378577 -5.13334843 39.63171898 -5.15087891 37.93969727 C-5.40039231 13.20117694 -5.40039231 13.20117694 -2 3 C-1.34 3 -0.68 3 0 3 C0 2.01 0 1.02 0 0 Z " fill="#0A57D6" transform="translate(19,27)"/>
<path d="M0 0 C0.33 0 0.66 0 1 0 C1.0269501 2.93756119 1.04681474 5.87487555 1.0625 8.8125 C1.07087891 9.64587891 1.07925781 10.47925781 1.08789062 11.33789062 C1.09111328 12.14033203 1.09433594 12.94277344 1.09765625 13.76953125 C1.10289307 14.50792236 1.10812988 15.24631348 1.11352539 16.00708008 C1 18 1 18 0 21 C-0.27073323 24.61407378 -0.44551729 28.22779264 -0.62109375 31.84765625 C-1 35 -1 35 -3 37 C-3.10349817 30.58311325 -2.74507544 24.37305598 -2 18 C-2.66 18 -3.32 18 -4 18 C-4 15.69 -4 13.38 -4 11 C-3.01 10.67 -2.02 10.34 -1 10 C-0.67 6.7 -0.34 3.4 0 0 Z " fill="#0B56DB" transform="translate(42,46)"/>
<path d="M0 0 C1.43088528 2.86177057 0.59991697 4.93375773 0 8 C0.66 8 1.32 8 2 8 C2.33 7.01 2.66 6.02 3 5 C3.6875 6.5625 3.6875 6.5625 4 9 C3.07989717 11.3659787 2.07136051 13.69855891 1 16 C0.31163487 17.99263591 -0.36281399 19.99041337 -1 22 C-1.66 22 -2.32 22 -3 22 C-3.33 20.02 -3.66 18.04 -4 16 C-4.66 16 -5.32 16 -6 16 C-6 15.34 -6 14.68 -6 14 C-5.01 13.34 -4.02 12.68 -3 12 C-2.23568292 9.38535556 -2.23568292 9.38535556 -1.875 6.4375 C-1.08091603 1.08091603 -1.08091603 1.08091603 0 0 Z " fill="#F8FCF3" transform="translate(76,56)"/>
<path d="M0 0 C2.54563057 0.96558401 3.94635204 1.93868805 5.75 4 C7.55131741 8.32316179 7.24227996 12.37873401 7 17 C6.67 15.68 6.34 14.36 6 13 C4.68 12.67 3.36 12.34 2 12 C2 11.34 2 10.68 2 10 C1.34 10 0.68 10 0 10 C-0.268125 9.236875 -0.53625 8.47375 -0.8125 7.6875 C-1.94424112 5.12619116 -2.91223401 3.80307062 -5 2 C-3.68 2.33 -2.36 2.66 -1 3 C-0.67 2.01 -0.34 1.02 0 0 Z " fill="#1F1F1F" transform="translate(375,60)"/>
<path d="M0 0 C5.94 0 11.88 0 18 0 C18.33 1.98 18.66 3.96 19 6 C18.01 6 17.02 6 16 6 C16 5.01 16 4.02 16 3 C11.05 3 6.1 3 1 3 C1.020625 4.423125 1.04125 5.84625 1.0625 7.3125 C1.07051774 12.91690248 0.59290281 18.43094858 0 24 C-0.33 24 -0.66 24 -1 24 C-1.02909763 20.75001888 -1.04683161 17.50007143 -1.0625 14.25 C-1.07087891 13.32960938 -1.07925781 12.40921875 -1.08789062 11.4609375 C-1.09111328 10.57148437 -1.09433594 9.68203125 -1.09765625 8.765625 C-1.10289307 7.94868164 -1.10812988 7.13173828 -1.11352539 6.29003906 C-1 4 -1 4 0 0 Z " fill="#215DC5" transform="translate(44,40)"/>
<path d="M0 0 C0.99 0.495 0.99 0.495 2 1 C2 3.31 2 5.62 2 8 C2.66 8 3.32 8 4 8 C4.33 20.21 4.66 32.42 5 45 C4.34 44.67 3.68 44.34 3 44 C2.64559937 42.20933533 2.64559937 42.20933533 2.49755859 39.84741211 C2.4376474 38.96657455 2.37773621 38.085737 2.31600952 37.1782074 C2.26071075 36.22092239 2.20541199 35.26363739 2.1484375 34.27734375 C2.08467926 33.30213272 2.02092102 32.32692169 1.95523071 31.32215881 C1.75282663 28.19443849 1.56378264 25.06606922 1.375 21.9375 C1.24045971 19.8222097 1.10505451 17.70697422 0.96875 15.59179688 C0.63577913 10.39512675 0.31378532 5.19786192 0 0 Z " fill="#265FBA" transform="translate(95,44)"/>
<path d="M0 0 C3.5625 0.625 3.5625 0.625 6.5 2.625 C9.27084355 6.65531789 8.96941598 8.82339142 8.5625 13.625 C8.2325 13.625 7.9025 13.625 7.5625 13.625 C6.9025 11.645 6.2425 9.665 5.5625 7.625 C4.5725 8.12 4.5725 8.12 3.5625 8.625 C2.5725 7.965 1.5825 7.305 0.5625 6.625 C0.5625 5.965 0.5625 5.305 0.5625 4.625 C-0.4275 4.955 -1.4175 5.285 -2.4375 5.625 C-2.7675 5.295 -3.0975 4.965 -3.4375 4.625 C-4.4275 5.615 -5.4175 6.605 -6.4375 7.625 C-6.7675 6.965 -7.0975 6.305 -7.4375 5.625 C-5.20503025 2.0530484 -4.23147122 0.7693584 0 0 Z " fill="#E3E3E3" transform="translate(230.4375,64.375)"/>
<path d="M0 0 C0.99 0.33 1.98 0.66 3 1 C4.12862175 6.36095333 4.09688221 11.55306686 4 17 C2.35 17 0.7 17 -1 17 C-1.02684679 14.35409986 -1.04676357 11.70846904 -1.0625 9.0625 C-1.07087891 8.30775391 -1.07925781 7.55300781 -1.08789062 6.77539062 C-1.09652441 4.85005687 -1.05224333 2.92464419 -1 1 C-0.67 0.67 -0.34 0.34 0 0 Z " fill="#030303" transform="translate(443,73)"/>
<path d="M0 0 C0.85078125 0.00064453 1.7015625 0.00128906 2.578125 0.00195312 C7.79967726 0.03799145 12.83244477 0.43987916 18 1.1875 C18 1.5175 18 1.8475 18 2.1875 C17.37544922 2.21255615 16.75089844 2.2376123 16.10742188 2.26342773 C13.23812877 2.38050381 10.36907575 2.50271751 7.5 2.625 C6.51773438 2.66431641 5.53546875 2.70363281 4.5234375 2.74414062 C-1.04074037 2.985255 -6.48130862 3.44838955 -12 4.1875 C-13.9996812 4.22320859 -16.00062471 4.23748438 -18 4.1875 C-18 3.5275 -18 2.8675 -18 2.1875 C-11.85507936 0.3881193 -6.38441031 -0.09189682 0 0 Z " fill="#0D58CC" transform="translate(66,9.8125)"/>
<path d="M0 0 C0.58265625 0.12117188 1.1653125 0.24234375 1.765625 0.3671875 C8.48572816 1.74079349 15.22907805 2.90641467 22 4 C22 4.66 22 5.32 22 6 C28.93 6 35.86 6 43 6 C43 6.33 43 6.66 43 7 C16.69397615 8.75553547 16.69397615 8.75553547 7 4 C5.69058594 3.43035333 4.37810992 2.86768739 3.0625 2.3125 C2.051875 1.879375 1.04125 1.44625 0 1 C0 0.67 0 0.34 0 0 Z " fill="#155DD5" transform="translate(29,116)"/>
<path d="M0 0 C3.80984844 2.77079887 4.06840752 6.62868145 5 11 C7.97 11.495 7.97 11.495 11 12 C11 12.66 11 13.32 11 14 C12.15628906 14.29003906 12.15628906 14.29003906 13.3359375 14.5859375 C14.33882812 14.84632812 15.34171875 15.10671875 16.375 15.375 C17.37273438 15.63023438 18.37046875 15.88546875 19.3984375 16.1484375 C22 17 22 17 24 19 C16.66250018 18.32060187 9.21754971 17.14503314 3 13 C0.7929905 8.83120428 0.4704365 4.62595895 0 0 Z " fill="#215FC0" transform="translate(18,103)"/>
<path d="M0 0 C0.66 0.33 1.32 0.66 2 1 C1.34 2.98 0.68 4.96 0 7 C-4.68965706 8.11658501 -7.53763531 7.80619523 -12 6 C-12 5.34 -12 4.68 -12 4 C-12.66 4 -13.32 4 -14 4 C-14 3.34 -14 2.68 -14 2 C-13.07316406 1.93941406 -12.14632812 1.87882812 -11.19140625 1.81640625 C-9.39509766 1.69072266 -9.39509766 1.69072266 -7.5625 1.5625 C-5.77005859 1.44068359 -5.77005859 1.44068359 -3.94140625 1.31640625 C-1.11429756 1.32343886 -1.11429756 1.32343886 0 0 Z " fill="#1256C8" transform="translate(77,81)"/>
<path d="M0 0 C4.95 0 9.9 0 15 0 C15.66 2.31 16.32 4.62 17 7 C14 6 14 6 12.63671875 4.48046875 C10.41237978 2.46847718 8.76857637 2.50445301 5.8125 2.3125 C4.91144531 2.24675781 4.01039062 2.18101563 3.08203125 2.11328125 C2.39496094 2.07589844 1.70789062 2.03851563 1 2 C1.18433594 2.70511719 1.36867187 3.41023438 1.55859375 4.13671875 C2.05122973 7.33231321 1.70907101 9.65571213 1.0625 12.8125 C0.86785156 13.78832031 0.67320313 14.76414062 0.47265625 15.76953125 C0.31667969 16.50558594 0.16070312 17.24164063 0 18 C-0.33 18 -0.66 18 -1 18 C-0.505 9.09 -0.505 9.09 0 0 Z " fill="#BADCF8" transform="translate(45,43)"/>
<path d="M0 0 C0.33 0 0.66 0 1 0 C1.12117188 1.31355469 1.24234375 2.62710938 1.3671875 3.98046875 C1.53606789 5.71618387 1.70536039 7.45185892 1.875 9.1875 C1.95363281 10.05181641 2.03226562 10.91613281 2.11328125 11.80664062 C2.62233334 18.17747936 2.62233334 18.17747936 5 24 C7.15824934 25.02818386 7.15824934 25.02818386 9.625 25.3125 C10.44226563 25.45300781 11.25953125 25.59351562 12.1015625 25.73828125 C12.72804688 25.82464844 13.35453125 25.91101563 14 26 C14.33 25.34 14.66 24.68 15 24 C15 24.99 15 25.98 15 27 C13.22950311 27.05410687 11.45853151 27.09284119 9.6875 27.125 C8.20830078 27.15980469 8.20830078 27.15980469 6.69921875 27.1953125 C4 27 4 27 1 25 C-0.555328 16.79917961 -0.09185767 8.31822203 0 0 Z " fill="#CCEAFC" transform="translate(84,64)"/>
<path d="M0 0 C0.33 0 0.66 0 1 0 C1 8.58 1 17.16 1 26 C3.64 26 6.28 26 9 26 C9 26.33 9 26.66 9 27 C5.37 27 1.74 27 -2 27 C-2.11261934 20.91855566 -1.68656524 15.03991854 -1 9 C-0.85691406 7.69482422 -0.85691406 7.69482422 -0.7109375 6.36328125 C-0.47780345 4.24176143 -0.23944703 2.12081657 0 0 Z " fill="#C0DEFC" transform="translate(43,64)"/>
<path d="M0 0 C0.33 0 0.66 0 1 0 C1.10824843 1.6026782 1.18570645 3.20745748 1.25 4.8125 C1.29640625 5.70582031 1.3428125 6.59914063 1.390625 7.51953125 C1 10 1 10 -0.8203125 11.7734375 C-3.57501768 13.32357626 -5.85498774 13.7948905 -9 14 C-9.66 13.34 -10.32 12.68 -11 12 C-9.35 11.67 -7.7 11.34 -6 11 C-6 10.34 -6 9.68 -6 9 C-5.34 9 -4.68 9 -4 9 C-3.34 6.69 -2.68 4.38 -2 2 C-1.34 2 -0.68 2 0 2 C0 1.34 0 0.68 0 0 Z " fill="#EDFAF9" transform="translate(124,106)"/>
<path d="M0 0 C2.39763185 2.39763185 2.34280586 3.33273498 2.625 6.625 C2.69976562 7.44226563 2.77453125 8.25953125 2.8515625 9.1015625 C2.92503906 10.04128906 2.92503906 10.04128906 3 11 C1.35 11.33 -0.3 11.66 -2 12 C-2.33 11.34 -2.66 10.68 -3 10 C-5.35599235 9.53248212 -5.35599235 9.53248212 -8.0625 9.375 C-8.98160156 9.30023438 -9.90070313 9.22546875 -10.84765625 9.1484375 C-11.55792969 9.09945312 -12.26820313 9.05046875 -13 9 C-13 8.67 -13 8.34 -13 8 C-9.7 8 -6.4 8 -3 8 C-2.87625 7.236875 -2.7525 6.47375 -2.625 5.6875 C-2 3 -2 3 0 0 Z " fill="#D4D4D4" transform="translate(189,74)"/>
<path d="M0 0 C0.99 0.33 1.98 0.66 3 1 C5.16365445 13.453892 6.44218385 25.35681738 6 38 C5.67 38 5.34 38 5 38 C4.93941406 36.91460937 4.87882812 35.82921875 4.81640625 34.7109375 C4.73193936 33.26561514 4.64729449 31.82030318 4.5625 30.375 C4.52318359 29.66214844 4.48386719 28.94929688 4.44335938 28.21484375 C4.19657753 24.07650213 3.69734773 20.09110671 3 16 C2.88803927 13.32189925 2.95374701 10.68267314 3 8 C2.34 8 1.68 8 1 8 C0.67 5.36 0.34 2.72 0 0 Z " fill="#E3F8FE" transform="translate(123,26)"/>
<path d="M0 0 C0.66 0 1.32 0 2 0 C2 0.99 2 1.98 2 3 C3.65 3.33 5.3 3.66 7 4 C7.33 2.68 7.66 1.36 8 0 C8.2475 0.598125 8.495 1.19625 8.75 1.8125 C10.16370012 4.28647521 11.65055383 5.43370255 14 7 C13.01 8.32 12.02 9.64 11 11 C6.56090219 9.60485497 4.01975019 7.52304189 1 4 C0.1875 1.6875 0.1875 1.6875 0 0 Z " fill="#242424" transform="translate(386,79)"/>
<path d="M0 0 C0.33 0 0.66 0 1 0 C1.33870183 3.99956416 1.66998725 7.99971026 2 12 C2.14308594 13.68802734 2.14308594 13.68802734 2.2890625 15.41015625 C2.77098607 21.29650845 3.11580219 27.0940881 3 33 C2.01 33.495 2.01 33.495 1 34 C-0.12866889 26.81917746 -0.11434249 19.75794868 -0.0625 12.5 C-0.05798828 11.29601562 -0.05347656 10.09203125 -0.04882812 8.8515625 C-0.0371195 5.90098927 -0.02071995 2.95052141 0 0 Z " fill="#CDE8FA" transform="translate(95,47)"/>
<path d="M0 0 C0 0.99 0 1.98 0 3 C-5.18029908 2.29885571 -10.30351936 1.41920353 -15.4375 0.4375 C-16.16904297 0.29892578 -16.90058594 0.16035156 -17.65429688 0.01757812 C-19.43646318 -0.3202181 -21.21827002 -0.65990988 -23 -1 C-23 -1.33 -23 -1.66 -23 -2 C-14.75089108 -3.32574965 -7.97698182 -2.49280682 0 0 Z " fill="#C4E0F8" transform="translate(113,12)"/>
<path d="M0 0 C1.8871875 0.0309375 1.8871875 0.0309375 3.8125 0.0625 C2.47916667 0.72916667 1.14583333 1.39583333 -0.1875 2.0625 C-0.74147461 2.41618652 -1.29544922 2.76987305 -1.86621094 3.13427734 C-5.11106539 4.43180959 -8.1524022 4.20142553 -11.578125 4.0390625 C-12.28273865 4.01403656 -12.98735229 3.98901062 -13.71331787 3.96322632 C-15.9552221 3.88130855 -18.19620767 3.78461305 -20.4375 3.6875 C-21.96090045 3.62923139 -23.48433817 3.57192874 -25.0078125 3.515625 C-28.73487219 3.37577353 -32.46125178 3.22266663 -36.1875 3.0625 C-36.1875 2.7325 -36.1875 2.4025 -36.1875 2.0625 C-34.89332153 2.02491577 -34.89332153 2.02491577 -33.57299805 1.98657227 C-30.36926231 1.89138615 -27.16568463 1.79215556 -23.9621582 1.69018555 C-22.57614017 1.64689782 -21.19007094 1.60521836 -19.80395508 1.56518555 C-17.81058202 1.50733416 -15.81739435 1.44320224 -13.82421875 1.37890625 C-12.62498779 1.34224854 -11.42575684 1.30559082 -10.19018555 1.26782227 C-6.62048402 1.02372771 -3.61167259 -0.05920775 0 0 Z " fill="#D5F0FF" transform="translate(92.1875,122.9375)"/>
<path d="M0 0 C0.33 0 0.66 0 1 0 C1.05819424 3.24992446 1.09366116 6.49971435 1.125 9.75 C1.14175781 10.67039062 1.15851562 11.59078125 1.17578125 12.5390625 C1.18222656 13.42851563 1.18867187 14.31796875 1.1953125 15.234375 C1.20578613 16.05131836 1.21625977 16.86826172 1.22705078 17.70996094 C0.97829916 20.21887518 0.25700129 21.83395625 -1 24 C-1.33 24 -1.66 24 -2 24 C-2.05819424 20.75007554 -2.09366116 17.50028565 -2.125 14.25 C-2.14175781 13.32960938 -2.15851562 12.40921875 -2.17578125 11.4609375 C-2.18222656 10.57148437 -2.18867187 9.68203125 -2.1953125 8.765625 C-2.20578613 7.94868164 -2.21625977 7.13173828 -2.22705078 6.29003906 C-1.97829916 3.78112482 -1.25700129 2.16604375 0 0 Z " fill="#D8F0FC" transform="translate(55,66)"/>
<path d="M0 0 C0.33 0 0.66 0 1 0 C1.99 7.92 2.98 15.84 4 24 C3.01 23.67 2.02 23.34 1 23 C-1.42066867 17.98687326 -1.08070594 13.50233003 -0.625 8.125 C-0.56828125 7.34125 -0.5115625 6.5575 -0.453125 5.75 C-0.31282139 3.83251738 -0.15789804 1.91611401 0 0 Z " fill="#C5E0F8" transform="translate(12,80)"/>
<path d="M0 0 C0.33 0 0.66 0 1 0 C1 9.57 1 19.14 1 29 C0.67 29 0.34 29 0 29 C-0.33 24.05 -0.66 19.1 -1 14 C-2.32 13.67 -3.64 13.34 -5 13 C-5 11.68 -5 10.36 -5 9 C-3.68 9.33 -2.36 9.66 -1 10 C-0.67 6.7 -0.34 3.4 0 0 Z " fill="#E3E3E3" transform="translate(349,74)"/>
<path d="M0 0 C4.16123232 2.55348347 7.61267918 4.68445852 10 9 C10.32329511 12.69182153 10.23297693 16.30472697 10 20 C9.67 20 9.34 20 9 20 C9.03222656 19.34773438 9.06445312 18.69546875 9.09765625 18.0234375 C9.05905475 15.11545754 8.87004913 12.78415721 8 10 C5.29832663 7.39008158 2.35223178 5.66595761 -1 4 C-0.67 2.68 -0.34 1.36 0 0 Z " fill="#242424" transform="translate(240,58)"/>
<path d="M0 0 C6.52307692 -0.36923077 6.52307692 -0.36923077 8.9375 1.5 C9.288125 1.995 9.63875 2.49 10 3 C9.01 4.485 9.01 4.485 8 6 C2.06 5.01 2.06 5.01 -4 4 C-3.01 3.67 -2.02 3.34 -1 3 C-0.67 2.01 -0.34 1.02 0 0 Z " fill="#0A0A0A" transform="translate(366,57)"/>
<path d="M0 0 C0 3.3 0 6.6 0 10 C-0.66 10 -1.32 10 -2 10 C-2.33 13.96 -2.66 17.92 -3 22 C-5.97 22 -8.94 22 -12 22 C-12 21.67 -12 21.34 -12 21 C-9.36 21 -6.72 21 -4 21 C-4.03480469 19.73542969 -4.06960937 18.47085938 -4.10546875 17.16796875 C-4.13360677 15.50782577 -4.16090691 13.84766844 -4.1875 12.1875 C-4.21263672 11.35412109 -4.23777344 10.52074219 -4.26367188 9.66210938 C-4.27817383 8.45844727 -4.27817383 8.45844727 -4.29296875 7.23046875 C-4.3086792 6.49207764 -4.32438965 5.75368652 -4.34057617 4.99291992 C-3.95360485 2.72851351 -2.66126154 0 0 0 Z " fill="#C0C0C0" transform="translate(212,69)"/>
<path d="M0 0 C-1.36983503 3.16115776 -1.9890638 3.9927092 -5 6 C-5.78988145 7.95385067 -5.78988145 7.95385067 -6.1875 10.125 C-6.455625 11.40375 -6.72375 12.6825 -7 14 C-7.66 14 -8.32 14 -9 14 C-9.33 15.32 -9.66 16.64 -10 18 C-11.71842603 14.56314795 -10.10233411 11.2689981 -9.09375 7.7109375 C-7.49577847 3.75025092 -4.67054393 0 0 0 Z " fill="#396DC8" transform="translate(26,16)"/>
<path d="M0 0 C0.99 0 1.98 0 3 0 C2.34 2.97 1.68 5.94 1 9 C-2.96 9 -6.92 9 -11 9 C-11 8.34 -11 7.68 -11 7 C-6.545 6.505 -6.545 6.505 -2 6 C-1.34 4.02 -0.68 2.04 0 0 Z " fill="#C6E8FD" transform="translate(75,74)"/>
<path d="M0 0 C0.33 0.66 0.66 1.32 1 2 C3.02463255 2.65213292 3.02463255 2.65213292 5 3 C5.1875 6.375 5.1875 6.375 5 10 C4.01 10.66 3.02 11.32 2 12 C0 10 0 10 -0.1953125 7.6171875 C-0.17210937 6.71226563 -0.14890625 5.80734375 -0.125 4.875 C-0.10695313 3.96492188 -0.08890625 3.05484375 -0.0703125 2.1171875 C-0.04710937 1.41851562 -0.02390625 0.71984375 0 0 Z " fill="#050505" transform="translate(376,70)"/>
<path d="M0 0 C0.6290625 0.26554687 1.258125 0.53109375 1.90625 0.8046875 C7.22911972 3.0011729 12.37897236 4.75088275 18 6 C18 6.33 18 6.66 18 7 C16.10448978 7.05441656 14.2085208 7.09298035 12.3125 7.125 C11.25675781 7.14820312 10.20101563 7.17140625 9.11328125 7.1953125 C5.87597185 6.99221906 3.78298681 6.67480648 1 5 C0.1875 2.375 0.1875 2.375 0 0 Z " fill="#CFECFC" transform="translate(20,115)"/>
<path d="M0 0 C6.50313209 -0.46450943 10.4174808 0.67424388 16 4 C15.01 4.495 15.01 4.495 14 5 C13.34 4.67 12.68 4.34 12 4 C12 5.65 12 7.3 12 9 C9.0625 7.75 9.0625 7.75 6 6 C5.125 3.8125 5.125 3.8125 5 2 C3.35 1.67 1.7 1.34 0 1 C0 0.67 0 0.34 0 0 Z " fill="#2F2F2F" transform="translate(400,56)"/>
<path d="M0 0 C-0.639375 0.28875 -1.27875 0.5775 -1.9375 0.875 C-4.15206079 1.82823451 -4.15206079 1.82823451 -5 4 C-4.01 4.66 -3.02 5.32 -2 6 C-3.093125 6.12375 -4.18625 6.2475 -5.3125 6.375 C-9.07381802 6.75464801 -9.07381802 6.75464801 -12 9 C-11.67 7.68 -11.34 6.36 -11 5 C-11.66 4.67 -12.32 4.34 -13 4 C-8.38987758 1.04952165 -5.63470383 -0.5497272 0 0 Z " fill="#2F2F2F" transform="translate(370,56)"/>
<path d="M0 0 C2.31 0 4.62 0 7 0 C7 1.98 7 3.96 7 6 C4.69 6 2.38 6 0 6 C0 4.02 0 2.04 0 0 Z " fill="#181818" transform="translate(427,44)"/>
<path d="M0 0 C0 1.32 0 2.64 0 4 C-2.97 4 -5.94 4 -9 4 C-9 2.68 -9 1.36 -9 0 C-5.93109813 -1.53445094 -3.29905734 -0.54984289 0 0 Z " fill="#DFDFDF" transform="translate(334,65)"/>
<path d="M0 0 C0.66 0.33 1.32 0.66 2 1 C1.04882866 2.1725131 0.08882991 3.33787015 -0.875 4.5 C-1.40867187 5.1496875 -1.94234375 5.799375 -2.4921875 6.46875 C-2.98976563 6.9740625 -3.48734375 7.479375 -4 8 C-4.66 8 -5.32 8 -6 8 C-6 14.6 -6 21.2 -6 28 C-6.33 28 -6.66 28 -7 28 C-7.11660824 24.60445765 -7.18738372 21.20943321 -7.25 17.8125 C-7.30027344 16.37293945 -7.30027344 16.37293945 -7.3515625 14.90429688 C-7.45055772 7.75189226 -7.45055772 7.75189226 -5.171875 3.94921875 C-3 2 -3 2 0 0 Z " fill="#C4C4C4" transform="translate(454,62)"/>
<path d="M0 0 C4.95 0 9.9 0 15 0 C14.67 0.99 14.34 1.98 14 3 C10.04 3 6.08 3 2 3 C1.34 4.32 0.68 5.64 0 7 C-0.66 7 -1.32 7 -2 7 C-1.34 4.69 -0.68 2.38 0 0 Z " fill="#B5DCF6" transform="translate(80,43)"/>
<path d="M0 0 C0.66 0 1.32 0 2 0 C1.67 2.97 1.34 5.94 1 9 C0.34 9 -0.32 9 -1 9 C-1 10.65 -1 12.3 -1 14 C-1.66 14 -2.32 14 -3 14 C-3 10.33333333 -3 6.66666667 -3 3 C-2.34 3.33 -1.68 3.66 -1 4 C-0.67 2.68 -0.34 1.36 0 0 Z " fill="#E4F3F8" transform="translate(14,29)"/>
<path d="M0 0 C0.66 0.33 1.32 0.66 2 1 C2.33 1.99 2.66 2.98 3 4 C3.99 3.67 4.98 3.34 6 3 C5.42415568 5.38564077 4.77772405 7.66682784 4 10 C3.34 10 2.68 10 2 10 C1.67 9.34 1.34 8.68 1 8 C-0.65 8 -2.3 8 -4 8 C-2.68 5.36 -1.36 2.72 0 0 Z " fill="#272727" transform="translate(375,77)"/>
<path d="M0 0 C0.66 0.33 1.32 0.66 2 1 C2.37756808 2.32148827 2.7018576 3.65835921 3 5 C3.6469365 6.6744239 4.30959426 8.34302621 5 10 C4.01 10 3.02 10 2 10 C1.65324219 9.02804688 1.30648437 8.05609375 0.94921875 7.0546875 C-0.72207527 3.65603127 -0.72207527 3.65603127 -4.35546875 3.1953125 C-5.62003906 3.17210937 -6.88460937 3.14890625 -8.1875 3.125 C-9.45980469 3.08632813 -10.73210937 3.04765625 -12.04296875 3.0078125 C-13.01878906 3.00523438 -13.99460938 3.00265625 -15 3 C-15 2.67 -15 2.34 -15 2 C-14.00097656 1.93941406 -13.00195312 1.87882812 -11.97265625 1.81640625 C-10.68230469 1.73261719 -9.39195312 1.64882813 -8.0625 1.5625 C-6.77472656 1.48128906 -5.48695313 1.40007813 -4.16015625 1.31640625 C-1.13976043 1.35080812 -1.13976043 1.35080812 0 0 Z " fill="#F0F0F0" transform="translate(171,40)"/>
<path d="M0 0 C0 1.65 0 3.3 0 5 C-2.64 5.33 -5.28 5.66 -8 6 C-8 4.35 -8 2.7 -8 1 C-5.23735711 0.40267181 -2.83967231 0 0 0 Z " fill="#FAFCEC" transform="translate(52,82)"/>
<path d="M0 0 C0.66 0.99 1.32 1.98 2 3 C1.071875 4.5778125 1.071875 4.5778125 0.125 6.1875 C-1.16987194 8.42740129 -2.1599212 10.43272795 -3.0625 12.875 C-3.5265625 13.926875 -3.5265625 13.926875 -4 15 C-4.99 15.33 -5.98 15.66 -7 16 C-7.33 16.99 -7.66 17.98 -8 19 C-8 17.68 -8 16.36 -8 15 C-7.34 15 -6.68 15 -6 15 C-5.896875 14.278125 -5.79375 13.55625 -5.6875 12.8125 C-4.93281717 9.72516116 -3.6772415 7.68358639 -2 5 C-1.30177383 3.34630643 -0.62501395 1.68272986 0 0 Z " fill="#CDE8F8" transform="translate(77,50)"/>
<path d="M0 0 C-2.59310273 1.40459731 -5.25924537 2.54608353 -8 3.625 C-8.99 4.01558594 -8.99 4.01558594 -10 4.4140625 C-12 5 -12 5 -16 5 C-15.67 4.01 -15.34 3.02 -15 2 C-10.2699378 0.1378492 -5.03757758 -0.25833731 0 0 Z " fill="#235EC2" transform="translate(118,116)"/>
<path d="M0 0 C0.66 0 1.32 0 2 0 C2 0.66 2 1.32 2 2 C2.99 2.33 3.98 2.66 5 3 C5.66 2.67 6.32 2.34 7 2 C7 2.66 7 3.32 7 4 C7.99 4.66 8.98 5.32 10 6 C6.7 6.66 3.4 7.32 0 8 C-0.92538169 4.29847322 -1.08174162 3.36541838 0 0 Z " fill="#161616" transform="translate(265,60)"/>
<path d="M0 0 C1.98 0 3.96 0 6 0 C6 2.31 6 4.62 6 7 C5.38125 6.814375 4.7625 6.62875 4.125 6.4375 C1.95839822 5.76313824 1.95839822 5.76313824 0 7 C0 4.69 0 2.38 0 0 Z " fill="#101010" transform="translate(427,57)"/>
<path d="M0 0 C0.33 1.32 0.66 2.64 1 4 C0.34 4 -0.32 4 -1 4 C-1 3.01 -1 2.02 -1 1 C-1.66 2.32 -2.32 3.64 -3 5 C-3.53625 4.855625 -4.0725 4.71125 -4.625 4.5625 C-7.39915827 3.90546252 -10.18525388 3.44780052 -13 3 C-13 2.67 -13 2.34 -13 2 C-11.88625 1.690625 -10.7725 1.38125 -9.625 1.0625 C-2.96511628 -0.88953488 -2.96511628 -0.88953488 0 0 Z " fill="#323232" transform="translate(343,80)"/>
<path d="M0 0 C0.33 0 0.66 0 1 0 C1.05404449 2.75026417 1.09369306 5.49946203 1.125 8.25 C1.15013672 9.41595703 1.15013672 9.41595703 1.17578125 10.60546875 C1.23662606 17.72431144 1.23662606 17.72431144 -1 21 C-1 20.34 -1 19.68 -1 19 C-1.66 19 -2.32 19 -3 19 C-3 16.69 -3 14.38 -3 12 C-2.34 12.66 -1.68 13.32 -1 14 C-0.67 9.38 -0.34 4.76 0 0 Z " fill="#EDEDED" transform="translate(349,57)"/>
<path d="M0 0 C0.99 0.33 1.98 0.66 3 1 C2.67 9.58 2.34 18.16 2 27 C1.67 27 1.34 27 1 27 C0.67 18.09 0.34 9.18 0 0 Z " fill="#E5E5E5" transform="translate(288,63)"/>
<path d="M0 0 C0.33 0 0.66 0 1 0 C1 3.3 1 6.6 1 10 C1.66 10.33 2.32 10.66 3 11 C0.75 10.875 0.75 10.875 -2 10 C-4.3125 6.9375 -4.3125 6.9375 -6 4 C-4.68 4 -3.36 4 -2 4 C-1.34 2.68 -0.68 1.36 0 0 Z " fill="#C9C9C9" transform="translate(250,56)"/>
<path d="M0 0 C2.9375 0.375 2.9375 0.375 6 1 C6.33 1.66 6.66 2.32 7 3 C4.03 2.505 4.03 2.505 1 2 C1 2.66 1 3.32 1 4 C1.99 3.67 2.98 3.34 4 3 C4 4.98 4 6.96 4 9 C3.01 8.34 2.02 7.68 1 7 C-0.65549531 6.61500109 -2.3222433 6.27206865 -4 6 C-2.68 5.67 -1.36 5.34 0 5 C0 3.35 0 1.7 0 0 Z " fill="#323232" transform="translate(461,56)"/>
<path d="M0 0 C0.33 0.99 0.66 1.98 1 3 C-0.75 4.5625 -0.75 4.5625 -3 6 C-5.25 5.6875 -5.25 5.6875 -7 5 C-6.67 3.68 -6.34 2.36 -6 1 C-4.02 0.67 -2.04 0.34 0 0 Z " fill="#0A0A0A" transform="translate(417,82)"/>
<path d="M0 0 C0.66 0 1.32 0 2 0 C2 1.65 2 3.3 2 5 C-0.64 5.33 -3.28 5.66 -6 6 C-5.67 4.68 -5.34 3.36 -5 2 C-3.68 2 -2.36 2 -1 2 C-0.67 1.34 -0.34 0.68 0 0 Z " fill="#080808" transform="translate(459,56)"/>
<path d="M0 0 C1.796875 0.80859375 1.796875 0.80859375 2.796875 2.80859375 C1.70375 3.09734375 0.610625 3.38609375 -0.515625 3.68359375 C-4.24326345 4.62752579 -4.24326345 4.62752579 -7.203125 6.80859375 C-8.193125 6.47859375 -9.183125 6.14859375 -10.203125 5.80859375 C-8.96577516 4.77246342 -7.71267863 3.75511573 -6.453125 2.74609375 C-5.75703125 2.17761719 -5.0609375 1.60914063 -4.34375 1.0234375 C-2.203125 -0.19140625 -2.203125 -0.19140625 0 0 Z " fill="#323232" transform="translate(398.203125,57.19140625)"/>
<path d="M0 0 C1.22589844 0.15275391 1.22589844 0.15275391 2.4765625 0.30859375 C3.41628906 0.43427734 3.41628906 0.43427734 4.375 0.5625 C4.045 1.5525 3.715 2.5425 3.375 3.5625 C2.09625 3.624375 0.8175 3.68625 -0.5 3.75 C-1.21929687 3.78480469 -1.93859375 3.81960937 -2.6796875 3.85546875 C-3.32164062 3.75878906 -3.96359375 3.66210938 -4.625 3.5625 C-5.285 2.5725 -5.945 1.5825 -6.625 0.5625 C-4.10446405 -0.69776798 -2.7707902 -0.35624445 0 0 Z " fill="#040404" transform="translate(404.625,57.4375)"/>
<path d="M0 0 C0.66 0 1.32 0 2 0 C1.67 0.99 1.34 1.98 1 3 C0.67 2.01 0.34 1.02 0 0 Z M-1 3 C2 3 2 3 4 4 C4 5.65 4 7.3 4 9 C3.01 9 2.02 9 1 9 C0.34 8.34 -0.32 7.68 -1 7 C-1 5.68 -1 4.36 -1 3 Z " fill="#0C52E3" transform="translate(67,48)"/>
<path d="M0 0 C2.9375 0.125 2.9375 0.125 6 1 C7.83924479 3.87881794 8.07602934 5.42977994 7.625 8.8125 C7.41875 9.534375 7.2125 10.25625 7 11 C6.731875 10.4225 6.46375 9.845 6.1875 9.25 C4.2397957 5.5596129 2.49833779 3.33222519 -1 1 C-0.67 0.67 -0.34 0.34 0 0 Z " fill="#D8ECF9" transform="translate(116,15)"/>
<path d="M0 0 C-0.33 0.66 -0.66 1.32 -1 2 C-3.71446979 2.31241455 -6.33909361 2.51336592 -9.0625 2.625 C-9.82111328 2.66367188 -10.57972656 2.70234375 -11.36132812 2.7421875 C-13.24047195 2.83673562 -15.12020336 2.91946756 -17 3 C-14.01868487 1.36062254 -11.26954472 0.48091923 -7.9375 -0.1875 C-7.08027344 -0.36667969 -6.22304687 -0.54585938 -5.33984375 -0.73046875 C-3 -1 -3 -1 0 0 Z " fill="#B5D3F7" transform="translate(113,120)"/>
<path d="M0 0 C0.33 0 0.66 0 1 0 C1 3.3 1 6.6 1 10 C-5.52307692 10.36923077 -5.52307692 10.36923077 -7.9375 8.5 C-8.288125 8.005 -8.63875 7.51 -9 7 C-6.36 7.33 -3.72 7.66 -1 8 C-0.67 5.36 -0.34 2.72 0 0 Z " fill="#E5FDFD" transform="translate(97,80)"/>
<path d="M0 0 C0.99 1.485 0.99 1.485 2 3 C4.08312997 5.85059891 5.06499342 6.01211742 8.6875 6.6875 C9.780625 6.790625 10.87375 6.89375 12 7 C12.33 6.34 12.66 5.68 13 5 C13 5.99 13 6.98 13 8 C11.20841511 8.02696365 9.41671527 8.04637917 7.625 8.0625 C6.62726563 8.07410156 5.62953125 8.08570312 4.6015625 8.09765625 C2 8 2 8 0 7 C0 4.69 0 2.38 0 0 Z " fill="#BEE4FE" transform="translate(86,83)"/>
<path d="M0 0 C0 3 0 3 -1.875 5.1875 C-4 7 -4 7 -6 7 C-6.33 7.66 -6.66 8.32 -7 9 C-7.125 6.625 -7.125 6.625 -7 4 C-4.77810176 1.77810176 -2.91517292 1.07401108 0 0 Z " fill="#1355E8" transform="translate(27,18)"/>
<path d="M0 0 C-0.33 0.66 -0.66 1.32 -1 2 C-3.0625 2.625 -3.0625 2.625 -5 3 C-5 3.66 -5 4.32 -5 5 C-6.65 5.33 -8.3 5.66 -10 6 C-9.67 4.35 -9.34 2.7 -9 1 C-5.8035914 -0.06546953 -3.34252724 -0.07427838 0 0 Z " fill="#C3C3C3" transform="translate(277,66)"/>
<path d="M0 0 C2.50037734 2.17424117 3.43628586 3.73045798 4 7 C3.01 7 2.02 7 1 7 C1 6.34 1 5.68 1 5 C-1.16874252 5.50603992 -2.99967627 5.99983813 -5 7 C-4.1875 5.0625 -4.1875 5.0625 -3 3 C-2.01 2.67 -1.02 2.34 0 2 C0 1.34 0 0.68 0 0 Z " fill="#222222" transform="translate(175,56)"/>
<path d="M0 0 C5.61 0 11.22 0 17 0 C17 0.33 17 0.66 17 1 C14.93827387 1.33808686 12.8755797 1.67027361 10.8125 2 C9.08966797 2.2784375 9.08966797 2.2784375 7.33203125 2.5625 C4.49584607 2.93489477 1.85280436 3.08596021 -1 3 C-0.67 2.01 -0.34 1.02 0 0 Z " fill="#BAD6F8" transform="translate(39,9)"/>
<path d="M0 0 C0.33 1.32 0.66 2.64 1 4 C1.66 4 2.32 4 3 4 C3 6.64 3 9.28 3 12 C2.34 12 1.68 12 1 12 C-0.26237731 9.47524538 -0.09856404 7.68799534 -0.0625 4.875 C-0.05347656 3.96492188 -0.04445313 3.05484375 -0.03515625 2.1171875 C-0.02355469 1.41851563 -0.01195313 0.71984375 0 0 Z " fill="#2963C6" transform="translate(123,30)"/>
<path d="M0 0 C1.8871875 0.0309375 1.8871875 0.0309375 3.8125 0.0625 C2.47916667 0.72916667 1.14583333 1.39583333 -0.1875 2.0625 C-1.1775 2.619375 -1.1775 2.619375 -2.1875 3.1875 C-4.1875 4.0625 -4.1875 4.0625 -8.1875 4.0625 C-7.8575 3.0725 -7.5275 2.0825 -7.1875 1.0625 C-4.43671116 0.14557039 -2.82801087 -0.04636083 0 0 Z " fill="#C2DDFB" transform="translate(92.1875,122.9375)"/>
<path d="M0 0 C0.66 0 1.32 0 2 0 C1.01 3.3 0.02 6.6 -1 10 C-1.99 10 -2.98 10 -4 10 C-2.99806563 6.20696275 -2.18975773 3.28463659 0 0 Z " fill="#E4F6FD" transform="translate(80,64)"/>
<path d="M0 0 C1.65 0 3.3 0 5 0 C4.21625 0.70125 3.4325 1.4025 2.625 2.125 C-0.08360818 5.09157086 -1.01722715 7.1582516 -2 11 C-2.33 11 -2.66 11 -3 11 C-3 8.69 -3 6.38 -3 4 C-2.01 3.67 -1.02 3.34 0 3 C0 2.01 0 1.02 0 0 Z " fill="#D4EDFD" transform="translate(19,16)"/>
<path d="M0 0 C0 3 0 3 -2 6 C-2.99 5.67 -3.98 5.34 -5 5 C-5 4.67 -5 4.34 -5 4 C-7.64 3.67 -10.28 3.34 -13 3 C-13 2.67 -13 2.34 -13 2 C-12.14535156 1.93941406 -11.29070312 1.87882812 -10.41015625 1.81640625 C-8.75306641 1.69072266 -8.75306641 1.69072266 -7.0625 1.5625 C-5.96035156 1.48128906 -4.85820312 1.40007812 -3.72265625 1.31640625 C-1.08890097 1.29581916 -1.08890097 1.29581916 0 0 Z " fill="#CDCDCD" transform="translate(165,88)"/>
<path d="M0 0 C2.875 0.25 2.875 0.25 6 1 C7.375 3.0625 7.375 3.0625 8 5 C7.01 5.33 6.02 5.66 5 6 C3 5 3 5 2 2 C1.34 2 0.68 2 0 2 C0 1.34 0 0.68 0 0 Z " fill="#0B0B0B" transform="translate(462,58)"/>
<path d="M0 0 C2.67455183 1.33727591 2.98881385 2.73288323 4.1875 5.4375 C4.55230469 6.24058594 4.91710937 7.04367188 5.29296875 7.87109375 C6 10 6 10 5 12 C4.01 11.67 3.02 11.34 2 11 C0.67001471 7.54203826 0.49214226 3.6559139 0 0 Z " fill="#C2DCF7" transform="translate(62,50)"/>
<path d="M0 0 C2.96527758 2.4453385 3.55582214 4.44602347 4.1875 8.1875 C4.34605469 9.08855469 4.50460938 9.98960938 4.66796875 10.91796875 C4.83232422 11.94857422 4.83232422 11.94857422 5 13 C4.34 13 3.68 13 3 13 C2.49242138 11.58603098 1.99425075 10.16868271 1.5 8.75 C1.08234375 7.56664063 1.08234375 7.56664063 0.65625 6.359375 C0 4 0 4 0 0 Z " fill="#3A68BA" transform="translate(16,102)"/>
<path d="M0 0 C4.95 0.99 4.95 0.99 10 2 C9.67 2.99 9.34 3.98 9 5 C6.69 4.67 4.38 4.34 2 4 C2 3.34 2 2.68 2 2 C1.34 2 0.68 2 0 2 C0 1.34 0 0.68 0 0 Z " fill="#0C53DA" transform="translate(63,83)"/>
<path d="M0 0 C3.11223313 4.14964417 3.52003578 6.00837213 4 11 C3.01 10.67 2.02 10.34 1 10 C0.67 6.7 0.34 3.4 0 0 Z " fill="#406CD0" transform="translate(59,71)"/>
<path d="M0 0 C0.33 0 0.66 0 1 0 C1 1.98 1 3.96 1 6 C-0.98 6.99 -0.98 6.99 -3 8 C-3 8.66 -3 9.32 -3 10 C-4.98 10.33 -6.96 10.66 -9 11 C-8.67 10.34 -8.34 9.68 -8 9 C-6.68 9 -5.36 9 -4 9 C-4 8.34 -4 7.68 -4 7 C-3.34 7 -2.68 7 -2 7 C-1.34 4.69 -0.68 2.38 0 0 Z " fill="#BBD5F6" transform="translate(122,108)"/>
<path d="M0 0 C6.93 0.495 6.93 0.495 14 1 C14 1.33 14 1.66 14 2 C9.38 2.33 4.76 2.66 0 3 C0 2.01 0 1.02 0 0 Z " fill="#306BCD" transform="translate(84,90)"/>
<path d="M0 0 C1.2077558 3.62326739 0.54311128 4.64146369 -1 8 C-1.33 7.01 -1.66 6.02 -2 5 C-2.66 5 -3.32 5 -4 5 C-3.6875 3.0625 -3.6875 3.0625 -3 1 C-2.01 0.67 -1.02 0.34 0 0 Z " fill="#1A60EF" transform="translate(63,80)"/>
<path d="M0 0 C0.33 0 0.66 0 1 0 C1 3.96 1 7.92 1 12 C0.67 12 0.34 12 0 12 C-0.12375 11.195625 -0.2475 10.39125 -0.375 9.5625 C-0.684375 8.2940625 -0.684375 8.2940625 -1 7 C-1.66 6.67 -2.32 6.34 -3 6 C-2.01 4.02 -1.02 2.04 0 0 Z " fill="#0C55E2" transform="translate(81,76)"/>
<path d="M0 0 C-0.33 1.32 -0.66 2.64 -1 4 C-1.66 4 -2.32 4 -3 4 C-3 3.34 -3 2.68 -3 2 C-4.65 1.67 -6.3 1.34 -8 1 C-4.93251126 -0.86240388 -3.40254489 -1.2151946 0 0 Z " fill="#151515" transform="translate(377,85)"/>
<path d="M0 0 C1.65 0 3.3 0 5 0 C5 0.99 5 1.98 5 3 C2.00468461 3.99843846 0.82744268 4.00732761 -2.1875 3.5625 C-3.445625 3.376875 -4.70375 3.19125 -6 3 C-6 2.67 -6 2.34 -6 2 C-4.02 1.67 -2.04 1.34 0 1 C0 0.67 0 0.34 0 0 Z " fill="#E7E7E7" transform="translate(406,81)"/>
<path d="M0 0 C0.33 0.66 0.66 1.32 1 2 C1.66 2.33 2.32 2.66 3 3 C2.67 5.31 2.34 7.62 2 10 C1.34 10 0.68 10 0 10 C-1.125 3.375 -1.125 3.375 0 0 Z " fill="#F7F7F7" transform="translate(383,66)"/>
<path d="M0 0 C0.99 0.33 1.98 0.66 3 1 C3.33 2.65 3.66 4.3 4 6 C3.01 5.67 2.02 5.34 1 5 C1 6.65 1 8.3 1 10 C0.67 10 0.34 10 0 10 C0 6.7 0 3.4 0 0 Z " fill="#929292" transform="translate(166,62)"/>
<path d="M0 0 C1.670625 0.061875 1.670625 0.061875 3.375 0.125 C3.375 0.455 3.375 0.785 3.375 1.125 C1.395 1.125 -0.585 1.125 -2.625 1.125 C-3.0271875 2.3315625 -3.0271875 2.3315625 -3.4375 3.5625 C-4.0253125 4.8309375 -4.0253125 4.8309375 -4.625 6.125 C-5.615 6.455 -6.605 6.785 -7.625 7.125 C-5.06433824 0.17463235 -5.06433824 0.17463235 0 0 Z " fill="#BABABA" transform="translate(230.625,64.875)"/>
<path d="M0 0 C1.14229879 3.42689636 0.90861076 5.61102218 0.5625 9.1875 C0.40974609 10.81751953 0.40974609 10.81751953 0.25390625 12.48046875 C0.17011719 13.31191406 0.08632813 14.14335938 0 15 C-0.33 15 -0.66 15 -1 15 C-1.33 10.38 -1.66 5.76 -2 1 C-1.34 0.67 -0.68 0.34 0 0 Z " fill="#D6D6D6" transform="translate(313,62)"/>
<path d="M0 0 C3.96 0 7.92 0 12 0 C12.33 0.66 12.66 1.32 13 2 C8.15507803 3.51403812 4.7408989 2.36602172 0 1 C0 0.67 0 0.34 0 0 Z " fill="#ECF9FC" transform="translate(82,45)"/>
<path d="M0 0 C3.3 0 6.6 0 10 0 C9.67 0.99 9.34 1.98 9 3 C2.84765625 2.4140625 2.84765625 2.4140625 1 2 C0.67 1.34 0.34 0.68 0 0 Z " fill="#1356CB" transform="translate(88,92)"/>
<path d="M0 0 C0.33 0 0.66 0 1 0 C1 2.97 1 5.94 1 9 C0.01 9 -0.98 9 -2 9 C-2.33 8.34 -2.66 7.68 -3 7 C-2.06421005 4.64018187 -1.06652192 2.30368736 0 0 Z " fill="#BDBDBD" transform="translate(194,61)"/>
<path d="M0 0 C2.4375 0.75 2.4375 0.75 5 2 C5.8125 4.125 5.8125 4.125 6 6 C3.5625 5.25 3.5625 5.25 1 4 C0.1875 1.875 0.1875 1.875 0 0 Z " fill="#202020" transform="translate(316,83)"/>
<path d="M0 0 C0.66 0 1.32 0 2 0 C2 1.98 2 3.96 2 6 C0.02 6.99 0.02 6.99 -2 8 C-1.34 5.36 -0.68 2.72 0 0 Z " fill="#2C5EBC" transform="translate(78,74)"/>
<path d="M0 0 C0.99 0.33 1.98 0.66 3 1 C3 3.31 3 5.62 3 8 C2.34 8 1.68 8 1 8 C0.67 5.36 0.34 2.72 0 0 Z " fill="#B4D7FB" transform="translate(123,26)"/>
<path d="M0 0 C3.37462715 0.54723683 5.08235 1.0549 8 3 C5.03 3 2.06 3 -1 3 C-0.67 2.01 -0.34 1.02 0 0 Z " fill="#F9FAF0" transform="translate(33,123)"/>
<path d="M0 0 C2.76223278 2.76223278 2.57856291 5.20706617 3 9 C2.01 8.67 1.02 8.34 0 8 C0 5.36 0 2.72 0 0 Z " fill="#D0E6FA" transform="translate(16,106)"/>
<path d="M0 0 C0.66 0.33 1.32 0.66 2 1 C1.25 2.9375 1.25 2.9375 0 5 C-2.125 5.75 -2.125 5.75 -4 6 C-4 5.34 -4 4.68 -4 4 C-4.66 3.67 -5.32 3.34 -6 3 C-5.195625 2.690625 -4.39125 2.38125 -3.5625 2.0625 C-1.10919595 1.23664655 -1.10919595 1.23664655 0 0 Z " fill="#D6D6D6" transform="translate(414,87)"/>
<path d="M0 0 C0.33 0 0.66 0 1 0 C1.66 3.3 2.32 6.6 3 10 C2.01 10.495 2.01 10.495 1 11 C0.34 10.67 -0.32 10.34 -1 10 C-0.67 6.7 -0.34 3.4 0 0 Z " fill="#161616" transform="translate(222,70)"/>
<path d="M0 0 C0.66 0 1.32 0 2 0 C2.33 2.31 2.66 4.62 3 7 C2.01 7.33 1.02 7.66 0 8 C0 5.36 0 2.72 0 0 Z " fill="#587BB4" transform="translate(56,64)"/>
<path d="M0 0 C1.13643966 3.40931897 0.86747764 4.00335456 -0.4375 7.1875 C-0.86869141 8.26064453 -0.86869141 8.26064453 -1.30859375 9.35546875 C-1.53675781 9.89816406 -1.76492187 10.44085938 -2 11 C-2.97608217 8.07175348 -3.08226668 6.04386724 -3 3 C-2.01 2.67 -1.02 2.34 0 2 C0 1.34 0 0.68 0 0 Z " fill="#1C1C1C" transform="translate(192,63)"/>
<path d="M0 0 C3.00617269 3.00617269 2.59585316 5.82381598 3 10 C1.5 8.9375 1.5 8.9375 0 7 C-0.1875 3.3125 -0.1875 3.3125 0 0 Z " fill="#2A66C3" transform="translate(120,20)"/>
<path d="M0 0 C3.3 0 6.6 0 10 0 C10 0.33 10 0.66 10 1 C6.37 1.66 2.74 2.32 -1 3 C-0.67 2.01 -0.34 1.02 0 0 Z " fill="#C7E6FA" transform="translate(28,12)"/>
<path d="M0 0 C0 0.33 0 0.66 0 1 C-4.455 1.495 -4.455 1.495 -9 2 C-9 1.01 -9 0.02 -9 -1 C-5.23375329 -2.25541557 -3.62811066 -1.37061958 0 0 Z " fill="#F4F4F1" transform="translate(116,10)"/>
<path d="M0 0 C1.65 0 3.3 0 5 0 C5.33 0.66 5.66 1.32 6 2 C5.01 2 4.02 2 3 2 C2.67 2.99 2.34 3.98 2 5 C1.01 4.01 0.02 3.02 -1 2 C-0.67 1.34 -0.34 0.68 0 0 Z " fill="#EEEEEE" transform="translate(417,58)"/>
</svg>
