<?xml version="1.0" encoding="UTF-8"?>
<svg version="1.1" xmlns="http://www.w3.org/2000/svg" width="338" height="338">
<path d="M0 0 C111.54 0 223.08 0 338 0 C338 111.54 338 223.08 338 338 C226.46 338 114.92 338 0 338 C0 226.46 0 114.92 0 0 Z " fill="#FDFEFE" transform="translate(0,0)"/>
<path d="M0 0 C1.18360107 0.79289429 1.18360107 0.79289429 2.39111328 1.60180664 C9.70098957 6.56796046 17.04618409 11.83457647 22.0625 19.25 C22.0625 19.91 22.0625 20.57 22.0625 21.25 C23.0525 21.58 24.0425 21.91 25.0625 22.25 C26.6328125 24.17578125 26.6328125 24.17578125 28.1875 26.5625 C28.70570313 27.34238281 29.22390625 28.12226562 29.7578125 28.92578125 C30.96722561 31.08027467 31.60978137 32.83734097 32.0625 35.25 C32.7225 35.25 33.3825 35.25 34.0625 35.25 C45.46769326 57.80764871 45.46769326 57.80764871 47.0625 69.25 C47.24554688 70.42949219 47.42859375 71.60898438 47.6171875 72.82421875 C48.30350292 78.45013763 48.16899344 84.09176678 48.125 89.75 C48.12048828 90.85859375 48.11597656 91.9671875 48.11132812 93.109375 C48.09963158 95.82297399 48.08324086 98.53645761 48.0625 101.25 C46.16709854 101.31291554 44.27108393 101.3575073 42.375 101.39453125 C41.31925781 101.42135986 40.26351562 101.44818848 39.17578125 101.47583008 C33.54066937 101.06707235 29.37061911 98.12193912 25.078125 94.640625 C22.88013205 93.12418025 21.44337149 92.65792018 18.8125 92.3125 C17.75289063 92.14427734 17.75289063 92.14427734 16.671875 91.97265625 C12.69339065 92.39551911 9.52707143 94.33016577 6.0625 96.25 C5.95292969 94.98285156 5.84335938 93.71570313 5.73046875 92.41015625 C5.5708687 90.71088517 5.41068093 89.01166922 5.25 87.3125 C5.14461914 86.06629883 5.14461914 86.06629883 5.03710938 84.79492188 C4.14422964 75.61611824 1.177885 67.99852144 -3.0625 59.875 C-6.83277027 52.56418919 -6.83277027 52.56418919 -7.9375 49.25 C-8.9275 48.92 -9.9175 48.59 -10.9375 48.25 C-12.64634005 46.62660195 -14.31196717 44.95680947 -15.9375 43.25 C-16.535625 42.693125 -17.13375 42.13625 -17.75 41.5625 C-18.9375 40.25 -18.9375 40.25 -18.9375 38.25 C-19.62328125 37.99089844 -20.3090625 37.73179688 -21.015625 37.46484375 C-25.53787601 35.58460302 -29.82716764 33.25906265 -34.171875 31.00390625 C-42.48744118 27.00351036 -49.75960846 25.69419883 -59 25.75 C-60.10037598 25.75572021 -61.20075195 25.76144043 -62.33447266 25.76733398 C-75.49967339 26.05370169 -86.02171813 29.18881919 -96.8984375 36.89453125 C-98.9375 38.25 -98.9375 38.25 -100.9375 38.25 C-100.9375 38.91 -100.9375 39.57 -100.9375 40.25 C-101.88625 40.9925 -102.835 41.735 -103.8125 42.5 C-107.16392471 45.1231029 -108.75355366 47.76466279 -110.70303345 51.51535034 C-113.09157442 55.75612436 -115.46092571 59.45699833 -120.269104 60.99658203 C-127.01377039 62.01779656 -133.78258767 61.52483269 -140.5625 61.125 C-142.63650832 61.05468914 -144.71074582 60.99082563 -146.78515625 60.93359375 C-151.84164208 60.78012304 -156.88703098 60.53916112 -161.9375 60.25 C-159.42885118 42.07059621 -148.68184866 26.1713535 -135.9375 13.25 C-135.2775 13.25 -134.6175 13.25 -133.9375 13.25 C-133.6075 12.26 -133.2775 11.27 -132.9375 10.25 C-127.47238372 5.25 -127.47238372 5.25 -124.9375 5.25 C-124.9375 4.59 -124.9375 3.93 -124.9375 3.25 C-122.79920089 1.741516 -120.68697419 0.38810282 -118.4375 -0.9375 C-117.7662207 -1.33533691 -117.09494141 -1.73317383 -116.40332031 -2.14306641 C-79.95314748 -23.25780491 -35.33015954 -23.72297021 0 0 Z " fill="#1FCE9F" transform="translate(226.9375,74.75)"/>
<path d="M0 0 C3.32652949 1.37929272 5.13107699 3.43912254 7.5625 6.0625 C8.5525 6.7225 9.5425 7.3825 10.5625 8.0625 C10.5625 9.0525 10.5625 10.0425 10.5625 11.0625 C21.69318381 11.43124658 30.98476049 11.54155908 40.5625 5.0625 C43.5625 3.0625 43.5625 3.0625 46 3.0625 C48.80221158 4.15604598 50.30694598 5.27784251 51.8359375 7.89453125 C55.20993626 17.9621082 51.84428343 29.98920268 49.5625 40.0625 C49.4073291 40.75730469 49.2521582 41.45210937 49.09228516 42.16796875 C45.53322558 57.86991561 39.82835058 71.25951865 30.5 84.4375 C30.08862793 85.02047852 29.67725586 85.60345703 29.25341797 86.20410156 C25.52102295 91.36197122 21.13140861 95.65219236 16.375 99.875 C15.70082031 100.47957031 15.02664063 101.08414063 14.33203125 101.70703125 C12.5625 103.0625 12.5625 103.0625 10.5625 103.0625 C10.5625 103.7225 10.5625 104.3825 10.5625 105.0625 C9.00537109 106.25170898 9.00537109 106.25170898 6.8359375 107.55859375 C6.05089844 108.03490234 5.26585937 108.51121094 4.45703125 109.00195312 C3.62558594 109.49630859 2.79414063 109.99066406 1.9375 110.5 C1.12925781 110.99048828 0.32101563 111.48097656 -0.51171875 111.98632812 C-13.70038508 119.9316954 -13.70038508 119.9316954 -18.4375 119.0625 C-20.89513794 117.64485542 -23.05358482 116.24527311 -25.3125 114.5625 C-25.93237793 114.11124756 -26.55225586 113.65999512 -27.19091797 113.19506836 C-31.32464533 110.10700763 -34.84038142 106.8544454 -38.0078125 102.75390625 C-39.390844 100.95738484 -39.390844 100.95738484 -41.4609375 99.72265625 C-44.15255171 97.46191309 -44.78332602 95.236254 -45.9375 91.9375 C-47.3281408 88.0802792 -48.72513665 84.32089192 -50.5 80.625 C-59.34072882 60.56195826 -57.5033305 40.91382017 -52.4375 20.0625 C-51.7775 20.0625 -51.1175 20.0625 -50.4375 20.0625 C-50.38851562 19.48242188 -50.33953125 18.90234375 -50.2890625 18.3046875 C-49.84100595 13.62326908 -49.139479 9.48764541 -47.4375 5.0625 C-44.48387333 6.075172 -42.58369122 6.9211549 -40.31640625 9.11328125 C-36.34412089 11.80279332 -33.2473333 11.61923632 -28.5625 11.5 C-27.39654297 11.51063477 -27.39654297 11.51063477 -26.20703125 11.52148438 C-18.33525595 11.43549019 -12.80226094 8.72999136 -6.4375 4.0625 C-5.756875 3.299375 -5.07625 2.53625 -4.375 1.75 C-2.4375 0.0625 -2.4375 0.0625 0 0 Z " fill="#0AA37E" transform="translate(245.4375,175.9375)"/>
<path d="M0 0 C6.10104963 -0.29819028 12.19780771 -0.51505329 18.30444336 -0.65917969 C20.37778631 -0.71928127 22.45062571 -0.80099707 24.5222168 -0.90527344 C41.28561121 -1.72752217 41.28561121 -1.72752217 45.80233765 1.14706421 C49.08076407 4.27346939 50.98058649 7.9647616 53 12 C62.0871921 24.12438458 75.04687504 31.18279144 89.87451172 33.72265625 C97.51957565 34.7202203 105.3001984 34.80234519 113 35 C113.08636719 36.11375 113.17273438 37.2275 113.26171875 38.375 C114.25008872 49.58064454 115.83787513 61.09758724 121.15625 71.1953125 C122 73 122 73 122 77 C92.65952399 80.76850151 63.34138916 75.53044402 39 58 C39 57.34 39 56.68 39 56 C38.4225 55.71125 37.845 55.4225 37.25 55.125 C36.5075 54.75375 35.765 54.3825 35 54 C34.360625 53.7525 33.72125 53.505 33.0625 53.25 C30.58881636 51.75079779 29.05813576 49.81420054 27.27734375 47.5625 C25.8913194 45.80691566 25.8913194 45.80691566 23.625 43.6875 C14.3424067 34.18389257 0.21649007 16.09920066 -0.05175781 2.34643555 C-0.03467773 1.57211182 -0.01759766 0.79778809 0 0 Z " fill="#1FCE9F" transform="translate(65,195)"/>
<path d="M0 0 C3.32652949 1.37929272 5.13107699 3.43912254 7.5625 6.0625 C8.5525 6.7225 9.5425 7.3825 10.5625 8.0625 C10.5625 9.0525 10.5625 10.0425 10.5625 11.0625 C13.08340778 11.0897367 15.60401457 11.10945207 18.125 11.125 C18.82947266 11.13337891 19.53394531 11.14175781 20.25976562 11.15039062 C24.80274798 11.17132603 29.08034892 10.81050682 33.5625 10.0625 C32.26768133 12.65213733 31.23070419 13.00903333 28.5625 14.0625 C26.15234375 14.30200195 26.15234375 14.30200195 23.5 14.30078125 C22.53835938 14.31689453 21.57671875 14.33300781 20.5859375 14.34960938 C18.57037684 14.36653592 16.55468371 14.37174478 14.5390625 14.36523438 C11.79558271 14.42223697 9.25167808 14.51115036 6.5625 15.0625 C4.10422553 17.46041383 4.10422553 17.46041383 2.5625 20.0625 C1.2425 20.0625 -0.0775 20.0625 -1.4375 20.0625 C-1.4375 20.7225 -1.4375 21.3825 -1.4375 22.0625 C1.5325 22.0625 4.5025 22.0625 7.5625 22.0625 C7.624375 22.784375 7.68625 23.50625 7.75 24.25 C8.80473426 27.90100322 10.84399926 29.48340955 13.5625 32.0625 C13.5625 32.7225 13.5625 33.3825 13.5625 34.0625 C12.386875 34.10375 11.21125 34.145 10 34.1875 C4.90017556 34.83854142 1.82795397 37.17212088 -1.4375 41.0625 C-2.19782182 42.70986395 -2.95575391 44.3632053 -3.5703125 46.0703125 C-6.42744928 52.6340051 -11.36527859 58.13117363 -16.4375 63.0625 C-17.4784066 64.70392963 -18.48254326 66.36962215 -19.4375 68.0625 C-21 70.375 -21 70.375 -22.4375 72.0625 C-23.0975 72.0625 -23.7575 72.0625 -24.4375 72.0625 C-24.540625 72.805 -24.64375 73.5475 -24.75 74.3125 C-25.48683797 77.2598519 -26.38549142 78.84633074 -28.4375 81.0625 C-29.0975 81.0625 -29.7575 81.0625 -30.4375 81.0625 C-30.7675 82.3825 -31.0975 83.7025 -31.4375 85.0625 C-34.36735745 83.76103887 -36.22368733 82.47045226 -38.27734375 80.015625 C-38.78330078 79.4175 -39.28925781 78.819375 -39.81054688 78.203125 C-40.32681641 77.57921875 -40.84308594 76.9553125 -41.375 76.3125 C-41.88740234 75.7040625 -42.39980469 75.095625 -42.92773438 74.46875 C-43.94744902 73.2559763 -44.96040748 72.03748768 -45.96630859 70.81323242 C-46.91816775 69.68051055 -47.89917772 68.57140389 -48.91259766 67.4934082 C-53.36937774 62.65690602 -53.02007584 59.12346554 -52.80078125 52.8203125 C-52.39355135 46.90707574 -51.78528828 41.01471985 -51.125 35.125 C-51.00769531 34.05918701 -50.89039063 32.99337402 -50.76953125 31.89526367 C-50.02520726 25.84810596 -48.84443093 20.66518796 -46.4375 15.0625 C-45.7775 15.0625 -45.1175 15.0625 -44.4375 15.0625 C-45.0975 14.505625 -45.7575 13.94875 -46.4375 13.375 C-48.4375 11.0625 -48.4375 11.0625 -48.6875 8.3125 C-48.56375 7.19875 -48.56375 7.19875 -48.4375 6.0625 C-47.4475 5.7325 -46.4575 5.4025 -45.4375 5.0625 C-42.90425634 6.32912183 -40.9184045 7.52102356 -39.03027344 9.64697266 C-37.04629334 11.41017263 -36.07479747 11.44815182 -33.453125 11.4609375 C-32.68226563 11.46480469 -31.91140625 11.46867188 -31.1171875 11.47265625 C-30.31539062 11.46105469 -29.51359375 11.44945312 -28.6875 11.4375 C-27.50800781 11.45490234 -27.50800781 11.45490234 -26.3046875 11.47265625 C-18.35871115 11.43305836 -12.86836483 8.77846754 -6.4375 4.0625 C-5.756875 3.299375 -5.07625 2.53625 -4.375 1.75 C-2.4375 0.0625 -2.4375 0.0625 0 0 Z " fill="#1ACB9E" transform="translate(245.4375,175.9375)"/>
<path d="M0 0 C18.15 0 36.3 0 55 0 C55 12.87 55 25.74 55 39 C36.85 39 18.7 39 0 39 C0 26.13 0 13.26 0 0 Z " fill="#241260" transform="translate(53,145)"/>
<path d="M0 0 C0.99 0.495 0.99 0.495 2 1 C1.86184471 4.81281945 1.71319438 8.62515717 1.5625 12.4375 C1.52318359 13.52611328 1.48386719 14.61472656 1.44335938 15.73632812 C1.40146484 16.77080078 1.35957031 17.80527344 1.31640625 18.87109375 C1.27974854 19.82943115 1.24309082 20.78776855 1.20532227 21.77514648 C1 24 1 24 0 25 C-0.04080783 26.99958364 -0.04254356 29.00045254 0 31 C0.99 30.505 0.99 30.505 2 30 C2 31.65 2 33.3 2 35 C0.515 35.495 0.515 35.495 -1 36 C-1 36.66 -1 37.32 -1 38 C-0.34 38 0.32 38 1 38 C0.67 39.65 0.34 41.3 0 43 C0.66 43 1.32 43 2 43 C0.36563558 62.28550018 -13.16673498 80.36466413 -27.1875 92.8125 C-27.86167969 93.41707031 -28.53585937 94.02164063 -29.23046875 94.64453125 C-31 96 -31 96 -33 96 C-33 96.66 -33 97.32 -33 98 C-34.55712891 99.18920898 -34.55712891 99.18920898 -36.7265625 100.49609375 C-37.51160156 100.97240234 -38.29664063 101.44871094 -39.10546875 101.93945312 C-40.35263672 102.68098633 -40.35263672 102.68098633 -41.625 103.4375 C-42.43324219 103.92798828 -43.24148437 104.41847656 -44.07421875 104.92382812 C-57.21117647 112.83804412 -57.21117647 112.83804412 -62 112 C-66.27933482 109.90228685 -67.7140219 108.77994028 -69.375 104.25 C-69.58125 103.1775 -69.7875 102.105 -70 101 C-69.40574219 100.64808594 -68.81148437 100.29617188 -68.19921875 99.93359375 C-56.37207854 93.14182685 -56.37207854 93.14182685 -45.4375 85.0625 C-43 83 -43 83 -41 83 C-41 82.34 -41 81.68 -41 81 C-39.38524399 79.66009608 -37.76996685 78.32081617 -36.15234375 76.984375 C-31.41263295 72.61455088 -26.05897014 67.17691043 -24 61 C-23.34 61 -22.68 61 -22 61 C-21.7525 60.154375 -21.505 59.30875 -21.25 58.4375 C-20 55 -20 55 -18.0625 51.75 C-13.40172381 43.85066977 -11.99557141 34.08233717 -9.9375 25.25 C-6.88208697 12.15097486 -6.88208697 12.15097486 -5 7 C-4.01 7.99 -3.02 8.98 -2 10 C-2.495 8.515 -2.495 8.515 -3 7 C-2.34 7 -1.68 7 -1 7 C-1.020625 6.030625 -1.04125 5.06125 -1.0625 4.0625 C-1 1 -1 1 0 0 Z " fill="#038264" transform="translate(289,183)"/>
<path d="M0 0 C4.29 0 8.58 0 13 0 C13.495 2.475 13.495 2.475 14 5 C15.62652316 6.70586575 17.29006566 8.3777546 19 10 C19 10.66 19 11.32 19 12 C17.824375 12.04125 16.64875 12.0825 15.4375 12.125 C10.33767556 12.77604142 7.26545397 15.10962088 4 19 C3.23967818 20.64736395 2.48174609 22.3007053 1.8671875 24.0078125 C-0.98994928 30.5715051 -5.92777859 36.06867363 -11 41 C-12.0409066 42.64142963 -13.04504326 44.30712215 -14 46 C-15.5625 48.3125 -15.5625 48.3125 -17 50 C-17.66 50 -18.32 50 -19 50 C-19.103125 50.7425 -19.20625 51.485 -19.3125 52.25 C-20.04933797 55.1973519 -20.94799142 56.78383074 -23 59 C-23.66 59 -24.32 59 -25 59 C-25.33 60.32 -25.66 61.64 -26 63 C-28.92985745 61.69853887 -30.78618733 60.40795226 -32.83984375 57.953125 C-33.34580078 57.355 -33.85175781 56.756875 -34.37304688 56.140625 C-34.88931641 55.51671875 -35.40558594 54.8928125 -35.9375 54.25 C-36.44990234 53.6415625 -36.96230469 53.033125 -37.49023438 52.40625 C-38.50829979 51.19543777 -39.51933486 49.97867648 -40.52294922 48.75585938 C-41.49197062 47.60392518 -42.49341699 46.47835622 -43.52783203 45.38476562 C-47 41.63794257 -47 41.63794257 -47 38.42578125 C-45.1346204 33.9007784 -42.67827402 30.25280203 -39 27 C-35.69598999 25.82498236 -33.33745042 26.04708838 -30 27 C-28.02929688 28.40405273 -28.02929688 28.40405273 -26.21875 30.05859375 C-25.60966797 30.60700928 -25.00058594 31.1554248 -24.37304688 31.72045898 C-23.91994141 32.14270752 -23.46683594 32.56495605 -23 33 C-22.64284912 32.47680176 -22.28569824 31.95360352 -21.91772461 31.41455078 C-20.2582496 28.98429014 -18.59802374 26.5545442 -16.9375 24.125 C-16.34420898 23.25689697 -15.75091797 22.38879395 -15.13964844 21.49438477 C-11.52184467 16.20678733 -7.88102043 10.93886293 -4.171875 5.71484375 C-2.94454201 4.00192856 -2.94454201 4.00192856 -2 2 C-1.34 2 -0.68 2 0 2 C0 1.34 0 0.68 0 0 Z " fill="#83FCE2" transform="translate(240,198)"/>
<path d="M0 0 C1.32 0.33 2.64 0.66 4 1 C4.33 1.99 4.66 2.98 5 4 C4.34 4 3.68 4 3 4 C0.63862132 14.53174891 -0.95460102 24.99832948 -1.8125 35.7578125 C-1.98589631 37.83134339 -2.20950509 39.90051042 -2.4375 41.96875 C-2.77873678 46.87402864 -2.97482617 50.45016116 -0.3046875 54.6953125 C2.0155988 57.27430668 4.48399481 59.6128264 7 62 C8.67304688 63.99836155 10.31965893 66.01918774 11.9375 68.0625 C14.54120632 71.55700317 14.54120632 71.55700317 18 74 C18.061875 73.443125 18.12375 72.88625 18.1875 72.3125 C19.32370749 69.07867869 21.59839431 67.40160569 24 65 C24.86119134 62.82653432 24.86119134 62.82653432 25 61 C25.66 61 26.32 61 27 61 C27.2475 60.46375 27.495 59.9275 27.75 59.375 C29.29696975 56.43575748 31.13014369 53.74245592 33 51 C33.33 51.66 33.66 52.32 34 53 C32.93862682 55.79536075 31.43409417 58.37924341 30 61 C29.505 61.9075 29.01 62.815 28.5 63.75 C27 66 27 66 24.9375 67.875 C22.39179573 70.66706275 21.8388008 73.36519653 21 77 C22.485 76.505 22.485 76.505 24 76 C24.33 76.99 24.66 77.98 25 79 C25.99 79 26.98 79 28 79 C28.495 82.465 28.495 82.465 29 86 C31.31 85.67 33.62 85.34 36 85 C36 84.34 36 83.68 36 83 C38.25 80.375 38.25 80.375 41 78 C42.32 78 43.64 78 45 78 C45.99 78.99 45.99 78.99 47 80 C48.65 79.01 50.3 78.02 52 77 C52 77.66 52 78.32 52 79 C43.66520465 86.01283554 33.91655707 92.44374405 24 97 C24.33 98.98 24.66 100.96 25 103 C19.64978928 99.7542055 15.21085247 96.60877125 11.38671875 91.61328125 C10.0345007 89.89054029 10.0345007 89.89054029 7.98828125 88.67578125 C5.29253047 86.40372411 4.65782724 84.18419542 3.5 80.875 C2.1093592 77.0177792 0.71236335 73.25839192 -1.0625 69.5625 C-9.90322882 49.49945826 -8.0658305 29.85132017 -3 9 C-2.34 9 -1.68 9 -1 9 C-0.67 6.03 -0.34 3.06 0 0 Z " fill="#11B189" transform="translate(196,187)"/>
<path d="M0 0 C0.66 0 1.32 0 2 0 C3.07525194 2.65228812 4.09456151 5.28368454 5 8 C5.99 8.33 6.98 8.66 8 9 C8 14.61 8 20.22 8 26 C7.34 26 6.68 26 6 26 C6 27.11375 6 28.2275 6 29.375 C6 33.25 6 37.125 6 41 C4.02 41.99 4.02 41.99 2 43 C1.67 42.67 1.34 42.34 1 42 C0.03929566 44.88211302 -0.10581883 46.69850044 -0.0625 49.6875 C-0.05347656 50.49574219 -0.04445313 51.30398437 -0.03515625 52.13671875 C-0.02355469 52.75160156 -0.01195312 53.36648437 0 54 C0.99 54 1.98 54 3 54 C3 54.99 3 55.98 3 57 C0 58 0 58 -2.5 57.75 C-3.325 57.8325 -4.15 57.915 -5 58 C-8.08034808 61.90855487 -8.26887179 64.75169886 -8 69.625 C-7.67133583 75.60942679 -7.67133583 75.60942679 -9.41015625 77.67578125 C-9.93480469 78.11277344 -10.45945312 78.54976563 -11 79 C-11.474375 80.175625 -11.94875 81.35125 -12.4375 82.5625 C-14 86 -14 86 -15.8125 87.25 C-16.534375 87.4975 -17.25625 87.745 -18 88 C-19.0725 88.53625 -20.145 89.0725 -21.25 89.625 C-22.61125 90.305625 -22.61125 90.305625 -24 91 C-23.855625 91.70125 -23.71125 92.4025 -23.5625 93.125 C-24.25051315 97.64622929 -27.47992823 99.36375577 -31 102 C-32.051875 102.86625 -32.051875 102.86625 -33.125 103.75 C-35.3150749 105.21004993 -37.54817126 106.05698895 -40 107 C-41.485 107.99 -41.485 107.99 -43 109 C-44.32520503 109.68268138 -45.65812182 110.3507041 -47 111 C-47.99 111.495 -47.99 111.495 -49 112 C-49 111.34 -49 110.68 -49 110 C-50.134375 110.474375 -51.26875 110.94875 -52.4375 111.4375 C-56.79937764 113.07028842 -61.31127683 114.20428047 -66 114 C-66.66 113.34 -67.32 112.68 -68 112 C-67.45214844 111.81566406 -66.90429688 111.63132812 -66.33984375 111.44140625 C-59.76810705 109.03711233 -54.0083229 105.76758094 -48.09155273 102.08618164 C-45.40800557 100.41996353 -43.00974488 99.00324829 -40 98 C-40 97.34 -40 96.68 -40 96 C-38.52520322 94.73588848 -36.9928273 93.53859807 -35.4375 92.375 C-30.65849408 88.6325672 -26.72967733 84.77753905 -23 80 C-22.43796875 79.28585937 -21.8759375 78.57171875 -21.296875 77.8359375 C-15.81847563 70.45737259 -11.87314769 62.29882985 -8 54 C-7.48179687 52.90945312 -6.96359375 51.81890625 -6.4296875 50.6953125 C-4.57604552 45.90420509 -3.47118471 41.07314677 -2.375 36.0625 C-2.1584375 35.11181641 -1.941875 34.16113281 -1.71875 33.18164062 C0.03873248 25.31093976 1.14269593 17.78339004 1.125 9.6875 C1.12757813 8.49511719 1.13015625 7.30273438 1.1328125 6.07421875 C1.13942844 2.95997494 1.13942844 2.95997494 0 0 Z " fill="#99CABD" transform="translate(296,183)"/>
<path d="M0 0 C0.66 0 1.32 0 2 0 C-0.85999822 7.88965027 -6.03848533 14.20408296 -12 20 C-13.0409066 21.64142963 -14.04504326 23.30712215 -15 25 C-16.5625 27.3125 -16.5625 27.3125 -18 29 C-18.66 29 -19.32 29 -20 29 C-20.103125 29.7425 -20.20625 30.485 -20.3125 31.25 C-21.04933797 34.1973519 -21.94799142 35.78383074 -24 38 C-24.66 38 -25.32 38 -26 38 C-26.33 39.32 -26.66 40.64 -27 42 C-29.92985745 40.69853887 -31.78618733 39.40795226 -33.83984375 36.953125 C-34.34580078 36.355 -34.85175781 35.756875 -35.37304688 35.140625 C-35.88931641 34.51671875 -36.40558594 33.8928125 -36.9375 33.25 C-37.44990234 32.6415625 -37.96230469 32.033125 -38.49023438 31.40625 C-39.50829979 30.19543777 -40.51933486 28.97867648 -41.52294922 27.75585938 C-42.49197062 26.60392518 -43.49341699 25.47835622 -44.52783203 24.38476562 C-48 20.63794257 -48 20.63794257 -48 17.42578125 C-46.13517071 12.90211333 -43.68048933 9.24870008 -40 6 C-36.73630892 4.85742531 -34.27741096 4.93127904 -31 6 C-28.50377678 7.65732853 -26.58380343 9.44728154 -25 12 C-25 12.99 -25 13.98 -25 15 C-26.65 15 -28.3 15 -30 15 C-29.67 16.98 -29.34 18.96 -29 21 C-26.13275314 20.42655063 -25.1385485 20.1385485 -23 18 C-24.59090909 27.77272727 -24.59090909 27.77272727 -26 32 C-26.99 32.495 -26.99 32.495 -28 33 C-28 33.99 -28 34.98 -28 36 C-26.00016466 35.20882096 -26.00016466 35.20882096 -24 34 C-23.67 33.01 -23.34 32.02 -23 31 C-22.34 31 -21.68 31 -21 31 C-21 29.35 -21 27.7 -21 26 C-20.01 26 -19.02 26 -18 26 C-18 24.35 -18 22.7 -18 21 C-16.68 21 -15.36 21 -14 21 C-13.71125 20.236875 -13.4225 19.47375 -13.125 18.6875 C-12 16 -12 16 -10 13 C-9.34 13 -8.68 13 -8 13 C-7.7525 12.278125 -7.505 11.55625 -7.25 10.8125 C-5.88323299 7.73727423 -4.16053292 5.56563284 -2 3 C-1.34 2.01 -0.68 1.02 0 0 Z " fill="#77FDDF" transform="translate(241,219)"/>
<path d="M0 0 C1.56897703 2.82527536 2.31184205 5.11842048 2.6328125 8.328125 C2.71660156 9.12734375 2.80039063 9.9265625 2.88671875 10.75 C2.96535156 11.575 3.04398438 12.4 3.125 13.25 C3.21136719 14.09046875 3.29773438 14.9309375 3.38671875 15.796875 C3.59811722 17.86388223 3.79999462 19.93185928 4 22 C5.06605469 21.34386719 6.13210937 20.68773437 7.23046875 20.01171875 C11.01421463 17.86166863 13.30139617 17.49168927 17.58984375 18.17578125 C21.51425727 19.51784163 24.57980543 21.88403976 27.8359375 24.40625 C33.22973747 28.37857922 37.64852816 27.38737735 45 28 C44.67 18.76 44.34 9.52 44 0 C46.61121846 3.9168277 47.12423233 6.50780612 47.09765625 11.10546875 C47.09443359 12.08837891 47.09121094 13.07128906 47.08789062 14.08398438 C47.07532227 15.62022461 47.07532227 15.62022461 47.0625 17.1875 C47.05798828 18.22326172 47.05347656 19.25902344 47.04882812 20.32617188 C47.0370401 22.88417266 47.02058515 25.44205733 47 28 C45.68 28.33 44.36 28.66 43 29 C43 29.66 43 30.32 43 31 C44.9600281 32.63676257 44.9600281 32.63676257 47 34 C45.68 34 44.36 34 43 34 C43 34.66 43 35.32 43 36 C46.96 35.34 50.92 34.68 55 34 C53.41863234 37.16273531 50.19548266 37.89919397 47 39 C42.90877895 40.0420375 39.0260389 40.13387996 34.8125 40.125 C33.58144531 40.12757813 32.35039062 40.13015625 31.08203125 40.1328125 C28 40 28 40 26 39 C26 38.01 26 37.02 26 36 C24.68 35.34 23.36 34.68 22 34 C22 33.34 22 32.68 22 32 C18.4536218 30.02978989 15.07768576 29 11 29 C10.7525 29.61875 10.505 30.2375 10.25 30.875 C8.79371361 33.35068687 7.62187494 33.95125002 5 35 C5.66 32.69 6.32 30.38 7 28 C6.20207031 27.68546875 5.40414062 27.3709375 4.58203125 27.046875 C1.72706404 24.78363321 1.58619278 24.41445708 1.07421875 21.015625 C0.92167583 19.42917862 0.7936004 17.8402277 0.6875 16.25 C0.61466797 15.46367187 0.54183594 14.67734375 0.46679688 13.8671875 C0.06268082 9.23332346 -0.06837649 4.64960143 0 0 Z " fill="#E7FBF8" transform="translate(230,148)"/>
<path d="M0 0 C0.33 0 0.66 0 1 0 C0.88385202 1.83391542 0.75656767 3.66712628 0.625 5.5 C0.55539063 6.5209375 0.48578125 7.541875 0.4140625 8.59375 C0 12 0 12 -1.01171875 15.75 C-4.69807708 29.86194577 -2.3051143 44.71441289 3 58 C3.53560547 59.41152344 3.53560547 59.41152344 4.08203125 60.8515625 C4.71183136 62.47248231 5.36254832 64.08551443 6.0390625 65.6875 C6.7242289 67.33635572 7.35977386 69.0061968 7.9609375 70.6875 C9.84558777 75.87405754 11.25799483 78.83866322 16 82 C16 82.66 16 83.32 16 84 C17.485 84.495 17.485 84.495 19 85 C20.66666667 86.66666667 22.33333333 88.33333333 24 90 C27.55287896 92.83674093 31.21779526 95.47853018 35 98 C34.505 99.485 34.505 99.485 34 101 C30.7 101 27.4 101 24 101 C24 99.35 24 97.7 24 96 C22.23437778 92.7983526 22.23437778 92.7983526 19 91.5625 C16 90 16 90 15 87.875 C14.67 87.25625 14.34 86.6375 14 86 C10.94091587 85.18415432 10.94091587 85.18415432 8 85 C8 82.03 8 79.06 8 76 C6.1746875 76.2784375 6.1746875 76.2784375 4.3125 76.5625 C0.97022061 76.98993182 -1.71968417 76.92258883 -5 76 C-5 75.01 -5 74.02 -5 73 C-4.34 73 -3.68 73 -3 73 C-3 72.01 -3 71.02 -3 70 C-3.66 70 -4.32 70 -5 70 C-10.19914894 60.19489362 -10.19914894 60.19489362 -9.4375 55.625 C-8.963125 54.75875 -8.48875 53.8925 -8 53 C-7.67 52.071875 -7.34 51.14375 -7 50.1875 C-6 48 -6 48 -4 47 C-3.67 46.01 -3.34 45.02 -3 44 C-3.66 44 -4.32 44 -5 44 C-5.02929984 39.68751453 -5.04689903 35.37505507 -5.0625 31.0625 C-5.07087891 29.85013672 -5.07925781 28.63777344 -5.08789062 27.38867188 C-5.10565466 20.83374288 -4.88995726 14.49598725 -4 8 C-3.34 8 -2.68 8 -2 8 C-2 6.68 -2 5.36 -2 4 C-1.34 4 -0.68 4 0 4 C0 2.68 0 1.36 0 0 Z " fill="#F8F8F8" transform="translate(192,196)"/>
<path d="M0 0 C2.80221158 1.09354598 4.30694598 2.21534251 5.8359375 4.83203125 C10.65659686 19.21625677 3.27659854 38.82232436 -0.4375 53 C-1.4375 50 -1.4375 50 -0.4375 47 C-1.0975 47 -1.7575 47 -2.4375 47 C-2.1075 45.35 -1.7775 43.7 -1.4375 42 C-2.0975 42 -2.7575 42 -3.4375 42 C-3.4375 41.34 -3.4375 40.68 -3.4375 40 C-2.4475 39.505 -2.4475 39.505 -1.4375 39 C-1.4375 37.68 -1.4375 36.36 -1.4375 35 C-2.0975 35.99 -2.7575 36.98 -3.4375 38 C-3.46439216 36.52093108 -3.48384621 35.04172517 -3.5 33.5625 C-3.51160156 32.73878906 -3.52320313 31.91507813 -3.53515625 31.06640625 C-3.4375 29 -3.4375 29 -2.4375 28 C-2.28009395 26.29436222 -2.18656608 24.58272756 -2.12109375 22.87109375 C-2.07919922 21.83662109 -2.03730469 20.80214844 -1.99414062 19.73632812 C-1.95482422 18.64771484 -1.91550781 17.55910156 -1.875 16.4375 C-1.83181641 15.34501953 -1.78863281 14.25253906 -1.74414062 13.12695312 C-1.63767932 10.41810436 -1.53566484 7.70916008 -1.4375 5 C-1.7675 5 -2.0975 5 -2.4375 5 C-2.581875 5.969375 -2.72625 6.93875 -2.875 7.9375 C-3.4375 11 -3.4375 11 -4.4375 12 C-4.4375 12.99 -4.4375 13.98 -4.4375 15 C-5.0975 14.67 -5.7575 14.34 -6.4375 14 C-9.49452632 20.47735142 -10.94824958 27.0219888 -12.45507812 33.99804688 C-13.87245004 40.28677471 -15.87517035 46.08552152 -18.4375 52 C-19.60838772 48.48733684 -19.17718865 47.59349917 -18 44.1875 C-16.75188933 40.3126837 -16.11304013 37.10982507 -16.4375 33 C-17.0975 32.67 -17.7575 32.34 -18.4375 32 C-18.1075 31.01 -17.7775 30.02 -17.4375 29 C-16.7775 29 -16.1175 29 -15.4375 29 C-15.1075 26.36 -14.7775 23.72 -14.4375 21 C-13.4475 21 -12.4575 21 -11.4375 21 C-11.4375 18.36 -11.4375 15.72 -11.4375 13 C-14.0775 13.33 -16.7175 13.66 -19.4375 14 C-19.1075 13.34 -18.7775 12.68 -18.4375 12 C-16.37109375 11.3671875 -16.37109375 11.3671875 -13.875 10.875 C-13.04871094 10.70742187 -12.22242188 10.53984375 -11.37109375 10.3671875 C-10.41396484 10.18542969 -10.41396484 10.18542969 -9.4375 10 C-9.4375 9.01 -9.4375 8.02 -9.4375 7 C-10.0975 6.67 -10.7575 6.34 -11.4375 6 C-2.4375 0 -2.4375 0 0 0 Z " fill="#0B9F7C" transform="translate(291.4375,179)"/>
<path d="M0 0 C0.99 0.66 1.98 1.32 3 2 C3.90180075 6.97209062 3.97550358 12.27804583 1.0625 16.5625 C0.381875 17.366875 -0.29875 18.17125 -1 19 C-1.33 19.66 -1.66 20.32 -2 21 C-2.845625 21.639375 -3.69125 22.27875 -4.5625 22.9375 C-5.7690625 23.9584375 -5.7690625 23.9584375 -7 25 C-7 25.99 -7 26.98 -7 28 C-7.33 28.99 -7.66 29.98 -8 31 C-8.99 31.4640625 -8.99 31.4640625 -10 31.9375 C-12.20605562 32.82027141 -12.20605562 32.82027141 -12.75 35.125 C-12.8325 35.74375 -12.915 36.3625 -13 37 C-14.258125 37.020625 -15.51625 37.04125 -16.8125 37.0625 C-17.87404297 37.07990234 -17.87404297 37.07990234 -18.95703125 37.09765625 C-22.15839295 36.94462749 -23.73437327 36.26562673 -26 34 C-26.66 34 -27.32 34 -28 34 C-27.76468445 29.99963562 -27.52457848 27.6358527 -24.9375 24.5 C-23.4834375 23.2625 -23.4834375 23.2625 -22 22 C-21.3503125 21.39671875 -20.700625 20.7934375 -20.03125 20.171875 C-14.50441082 15.09873158 -14.50441082 15.09873158 -11.984375 14.60546875 C-8.94785684 13.67897207 -8.02950356 11.6584902 -6.3125 9.0625 C-5.71050781 8.16660156 -5.10851562 7.27070313 -4.48828125 6.34765625 C-3.00764393 4.09960756 -3.00764393 4.09960756 -2 2 C-1.34 2 -0.68 2 0 2 C0 1.34 0 0.68 0 0 Z " fill="#038162" transform="translate(245,230)"/>
<path d="M0 0 C3.32652949 1.37929272 5.13107699 3.43912254 7.5625 6.0625 C8.5525 6.7225 9.5425 7.3825 10.5625 8.0625 C10.5625 9.0525 10.5625 10.0425 10.5625 11.0625 C13.08340778 11.0897367 15.60401457 11.10945207 18.125 11.125 C18.82947266 11.13337891 19.53394531 11.14175781 20.25976562 11.15039062 C24.80274798 11.17132603 29.08034892 10.81050682 33.5625 10.0625 C32.26728049 12.65293902 31.22905726 13.00135435 28.5625 14.0625 C26.12060547 14.36547852 26.12060547 14.36547852 23.4296875 14.44140625 C21.97369141 14.49264648 21.97369141 14.49264648 20.48828125 14.54492188 C19.48152344 14.57134766 18.47476563 14.59777344 17.4375 14.625 C15.43477239 14.6848019 13.43215375 14.74841306 11.4296875 14.81640625 C10.54394043 14.84033447 9.65819336 14.8642627 8.74560547 14.88891602 C6.5174598 14.92880666 6.5174598 14.92880666 4.5625 16.0625 C3.9025 15.7325 3.2425 15.4025 2.5625 15.0625 C2.5625 15.7225 2.5625 16.3825 2.5625 17.0625 C-3.4921875 17.2578125 -3.4921875 17.2578125 -5.4375 17.0625 C-6.0975 16.4025 -6.7575 15.7425 -7.4375 15.0625 C-10.09287372 14.49729997 -12.72894713 14.32461802 -15.4375 14.0625 C-12.49921403 11.55951566 -10.25847239 10.59319061 -6.4375 10.0625 C-5.10416667 7.0625 -5.10416667 7.0625 -6.4375 4.0625 C-3.18035714 0.08154762 -3.18035714 0.08154762 0 0 Z " fill="#16C599" transform="translate(245.4375,175.9375)"/>
<path d="M0 0 C0.99 0.66 1.98 1.32 3 2 C2.34 2.99 1.68 3.98 1 5 C1.66 5 2.32 5 3 5 C2.6875 6.9375 2.6875 6.9375 2 9 C1.01 9.33 0.02 9.66 -1 10 C-1.30164063 10.60457031 -1.60328125 11.20914062 -1.9140625 11.83203125 C-3.28506514 14.56910487 -4.95405989 15.83359071 -7.375 17.6875 C-8.14585937 18.28949219 -8.91671875 18.89148438 -9.7109375 19.51171875 C-11.92119392 20.9487626 -13.46815479 21.44257729 -16 22 C-16.99 22.66 -17.98 23.32 -19 24 C-19 23.34 -19 22.68 -19 22 C-20.134375 22.474375 -21.26875 22.94875 -22.4375 23.4375 C-26.79937764 25.07028842 -31.31127683 26.20428047 -36 26 C-36.66 25.34 -37.32 24.68 -38 24 C-37.45214844 23.81566406 -36.90429688 23.63132812 -36.33984375 23.44140625 C-29.76810705 21.03711233 -24.0083229 17.76758094 -18.09155273 14.08618164 C-15.40800557 12.41996353 -13.00974488 11.00324829 -10 10 C-10 9.34 -10 8.68 -10 8 C-8.38542921 6.56418526 -6.70780925 5.19855217 -5 3.875 C-3.6078125 2.78832031 -3.6078125 2.78832031 -2.1875 1.6796875 C-1.465625 1.12539063 -0.74375 0.57109375 0 0 Z " fill="#CACBCC" transform="translate(266,271)"/>
<path d="M0 0 C0.33 0 0.66 0 1 0 C1 7.92 1 15.84 1 24 C1.66 24 2.32 24 3 24 C2.67 26.97 2.34 29.94 2 33 C1.01 33 0.02 33 -1 33 C-2.43282211 35.53064919 -2.43282211 35.53064919 -3 39 C-2.18963297 41.49375834 -1.14249031 43.71594601 0.0546875 46.046875 C1 48 1 48 1 50 C1.66 50 2.32 50 3 50 C3 50.99 3 51.98 3 53 C0 52 0 52 -1.28125 49.734375 C-5.78647647 38.70234609 -10.23697718 26.08319958 -8 14 C-5.94539916 11.98336919 -4.90996276 11 -2 11 C-2 10.34 -2 9.68 -2 9 C-2.99 8.67 -3.98 8.34 -5 8 C-4.360625 7.79375 -3.72125 7.5875 -3.0625 7.375 C-0.65074923 6.10461791 -0.65074923 6.10461791 -0.25 2.875 C-0.1675 1.92625 -0.085 0.9775 0 0 Z " fill="#F8FAFA" transform="translate(186,216)"/>
<path d="M0 0 C0.33 0 0.66 0 1 0 C1.24234375 0.89460937 1.4846875 1.78921875 1.734375 2.7109375 C3.51983768 9.15233748 5.38992949 15.45349133 8.00390625 21.6171875 C8.70375018 23.29132395 9.35329712 24.98694337 9.96484375 26.6953125 C11.84649 31.87928569 13.26123684 34.84082456 18 38 C18 38.66 18 39.32 18 40 C19.485 40.495 19.485 40.495 21 41 C22.66666667 42.66666667 24.33333333 44.33333333 26 46 C29.55287896 48.83674093 33.21779526 51.47853018 37 54 C36.67 54.99 36.34 55.98 36 57 C32.7 57 29.4 57 26 57 C26 55.35 26 53.7 26 52 C24.23437778 48.7983526 24.23437778 48.7983526 21 47.5625 C18 46 18 46 17 43.875 C16.67 43.25625 16.34 42.6375 16 42 C12.94091587 41.18415432 12.94091587 41.18415432 10 41 C9.96261719 40.33613281 9.92523438 39.67226563 9.88671875 38.98828125 C9.49852599 33.77431971 8.94316301 30.41474452 6 26 C5.3125 22.6875 5.3125 22.6875 5 20 C3.68 20 2.36 20 1 20 C0.202163 13.30386804 -0.12910853 6.74233419 0 0 Z " fill="#BFE7E0" transform="translate(190,240)"/>
<path d="M0 0 C4.29 0 8.58 0 13 0 C13.33 1.65 13.66 3.3 14 5 C15.62652316 6.70586575 17.29006566 8.3777546 19 10 C19 10.66 19 11.32 19 12 C17.205625 12.0928125 17.205625 12.0928125 15.375 12.1875 C10.59269617 12.74912287 8.39492769 14.68994551 5 18 C5.020625 16.7625 5.04125 15.525 5.0625 14.25 C5.06766681 11.3359175 4.93015558 8.79046673 4 6 C3.34 6 2.68 6 2 6 C-0.10232344 8.8684413 -0.10232344 8.8684413 -1 12 C-1.99 12.495 -1.99 12.495 -3 13 C-3.268125 13.5775 -3.53625 14.155 -3.8125 14.75 C-5.38552905 17.73047609 -7.59447355 19.65174799 -10 22 C-11.35555293 23.64864545 -12.69631653 25.31003995 -14 27 C-14.66 26.67 -15.32 26.34 -16 26 C-15.50371094 25.32195312 -15.00742188 24.64390625 -14.49609375 23.9453125 C-9.21549515 16.71079222 -3.96893264 9.45339895 1 2 C0.67 1.34 0.34 0.68 0 0 Z " fill="#87F2DB" transform="translate(240,198)"/>
<path d="M0 0 C0.99 0.66 1.98 1.32 3 2 C5.29714187 2.02639829 5.29714187 2.02639829 7.6875 1.625 C8.89986328 1.45871094 8.89986328 1.45871094 10.13671875 1.2890625 C10.75160156 1.19367188 11.36648437 1.09828125 12 1 C10.58612315 5.24163054 7.50419014 6.37946519 3.8125 8.5 C3.15185547 8.89058594 2.49121094 9.28117187 1.81054688 9.68359375 C-10.216425 16.73593461 -10.216425 16.73593461 -15 16 C-17.8125 14.5 -17.8125 14.5 -20 13 C-19.67 12.01 -19.34 11.02 -19 10 C-15.4375 8.8125 -15.4375 8.8125 -12 8 C-12 7.34 -12 6.68 -12 6 C-10.7625 5.566875 -9.525 5.13375 -8.25 4.6875 C-5.08403441 3.50868303 -2.56878575 2.24768753 0 0 Z " fill="#0C4133" transform="translate(242,279)"/>
<path d="M0 0 C0.33 0 0.66 0 1 0 C1.0810206 2.10353495 1.13919907 4.20795952 1.1875 6.3125 C1.23970703 8.07013672 1.23970703 8.07013672 1.29296875 9.86328125 C1 13 1 13 -0.421875 14.6953125 C-0.94265625 15.12585938 -1.4634375 15.55640625 -2 16 C-2.474375 17.175625 -2.94875 18.35125 -3.4375 19.5625 C-5 23 -5 23 -6.8125 24.25 C-7.534375 24.4975 -8.25625 24.745 -9 25 C-10.0725 25.53625 -11.145 26.0725 -12.25 26.625 C-13.61125 27.305625 -13.61125 27.305625 -15 28 C-14.855625 28.70125 -14.71125 29.4025 -14.5625 30.125 C-15.24402844 34.60361547 -18.49734998 36.39981848 -22 39 C-22.66 38.67 -23.32 38.34 -24 38 C-23.01 36.02 -22.02 34.04 -21 32 C-20.01 32 -19.02 32 -18 32 C-18 31.34 -18 30.68 -18 30 C-19.65 30.33 -21.3 30.66 -23 31 C-21.68 30.34 -20.36 29.68 -19 29 C-19.33 27.68 -19.66 26.36 -20 25 C-18.8803014 23.99406757 -17.7540588 22.9954151 -16.625 22 C-15.99851562 21.443125 -15.37203125 20.88625 -14.7265625 20.3125 C-13 19 -13 19 -11 19 C-10.938125 18.4225 -10.87625 17.845 -10.8125 17.25 C-10 15 -10 15 -7.6875 13.375 C-4.26736541 10.35255548 -3.3090244 7.37731009 -1.796875 3.14453125 C-1 1 -1 1 0 0 Z M-26 39 C-25.34 39.33 -24.68 39.66 -24 40 C-25.98 40.99 -25.98 40.99 -28 42 C-27.34 41.01 -26.68 40.02 -26 39 Z " fill="#CBCDCD" transform="translate(287,246)"/>
<path d="M0 0 C0.66 0 1.32 0 2 0 C3.07525194 2.65228812 4.09456151 5.28368454 5 8 C5.99 8.33 6.98 8.66 8 9 C8 14.61 8 20.22 8 26 C7.34 26 6.68 26 6 26 C6 27.11375 6 28.2275 6 29.375 C6 33.25 6 37.125 6 41 C4.68 41.66 3.36 42.32 2 43 C1.67 42.67 1.34 42.34 1 42 C0.34 42.99 -0.32 43.98 -1 45 C-1.25453865 37.74564851 -1.25453865 37.74564851 -0.00390625 34.08203125 C1.74049911 28.31356467 1.24757939 22.21366975 1.1875 16.25 C1.18685547 15.01894531 1.18621094 13.78789062 1.18554688 12.51953125 C1.27953885 6.15770389 1.27953885 6.15770389 0 0 Z " fill="#C4D9D6" transform="translate(296,183)"/>
<path d="M0 0 C1.32 0.33 2.64 0.66 4 1 C4.33 1.99 4.66 2.98 5 4 C4.34 4 3.68 4 3 4 C0.46957372 15.28570119 -0.95166722 26.49192691 -2 38 C-2.1134375 39.20527344 -2.226875 40.41054687 -2.34375 41.65234375 C-2.57064929 44.10096529 -2.79077091 46.54981719 -3 49 C-5 48 -5 48 -6 45 C-7.02500958 32.76977202 -5.79138034 20.89659718 -3 9 C-2.34 9 -1.68 9 -1 9 C-0.67 6.03 -0.34 3.06 0 0 Z " fill="#0A8D6D" transform="translate(196,187)"/>
<path d="M0 0 C3.75395533 2.50263689 3.85955949 3.98370088 5.0625 8.25 C6.29167805 12.53484558 7.56141096 16.78013883 9 21 C9.66 21 10.32 21 11 21 C11.639375 21.969375 12.27875 22.93875 12.9375 23.9375 C14.71061007 27.24255225 14.71061007 27.24255225 18 28 C18 29.32 18 30.64 18 32 C18.66 32 19.32 32 20 32 C20 32.66 20 33.32 20 34 C21.65 34.66 23.3 35.32 25 36 C25 36.99 25 37.98 25 39 C26.32 39.33 27.64 39.66 29 40 C27.515 40.495 27.515 40.495 26 41 C23.73828125 39.85546875 23.73828125 39.85546875 21.3125 38.1875 C20.10013672 37.37345703 20.10013672 37.37345703 18.86328125 36.54296875 C17.94095703 35.77919922 17.94095703 35.77919922 17 35 C17 34.34 17 33.68 17 33 C16.21625 32.773125 15.4325 32.54625 14.625 32.3125 C11.24364628 30.62182314 11.37872034 29.44680085 10 26 C8.86880093 24.81913853 7.69742323 23.67615288 6.5 22.5625 C3.35837244 19.55746495 2.00760956 17.30524084 1 13 C0.608125 12.030625 0.21625 11.06125 -0.1875 10.0625 C-1.16194778 6.38958143 -0.73901795 3.69508975 0 0 Z " fill="#069F7B" transform="translate(193,241)"/>
<path d="M0 0 C0.66 0 1.32 0 2 0 C1.67 1.65 1.34 3.3 1 5 C0.34 5 -0.32 5 -1 5 C-1 5.66 -1 6.32 -1 7 C-1.66 7 -2.32 7 -3 7 C-3.309375 7.99 -3.309375 7.99 -3.625 9 C-5.48917829 13.06729809 -7.86400944 16.78898574 -11 20 C-12.9921875 20.57421875 -12.9921875 20.57421875 -15 21 C-16.72618137 22.15910377 -16.72618137 22.15910377 -18.25 23.5625 C-19.1575 24.366875 -20.065 25.17125 -21 26 C-20.48410501 21.56330313 -19.4929337 18.69323511 -17 15 C-16.401875 13.989375 -15.80375 12.97875 -15.1875 11.9375 C-12.16977775 7.88513012 -8.54061521 5.91036353 -4.25 3.375 C-1.90851813 2.06494515 -1.90851813 2.06494515 0 0 Z " fill="#039170" transform="translate(246,225)"/>
<path d="M0 0 C0.66 0 1.32 0 2 0 C2.30801783 3.92722739 2.47808201 6.25631688 0.3125 9.625 C-1.18792219 11.16597414 -2.70789943 12.68823555 -4.25 14.1875 C-7.53405675 17.5461944 -10.25021146 21.21068287 -13.03515625 24.98828125 C-14.00775391 25.98408203 -14.00775391 25.98408203 -15 27 C-16.32 27 -17.64 27 -19 27 C-18.39816251 24.97954558 -17.72693904 22.97888961 -17 21 C-16.34 20.67 -15.68 20.34 -15 20 C-13.95191959 18.02477154 -12.9479589 16.02518491 -12 14 C-11.34 14 -10.68 14 -10 14 C-9.79375 13.319375 -9.5875 12.63875 -9.375 11.9375 C-7.57104973 8.08360625 -5.0989655 4.92212236 -2 2 C-1.34 2 -0.68 2 0 2 C0 1.34 0 0.68 0 0 Z " fill="#014234" transform="translate(242,236)"/>
<path d="M0 0 C2.125 -0.375 2.125 -0.375 5 0 C7.33247088 1.72067524 9.32346859 3.63211543 11 6 C11 6.99 11 7.98 11 9 C9.35 9 7.7 9 6 9 C6 10.65 6 12.3 6 14 C3.625 13.8125 3.625 13.8125 1 13 C-0.1875 10.5625 -0.1875 10.5625 -1 8 C-1.66 7.34 -2.32 6.68 -3 6 C-5.15377564 8.62198774 -6.40072174 10.64404172 -7 14 C-6.01 14.33 -5.02 14.66 -4 15 C-3.67 16.65 -3.34 18.3 -3 20 C-5.53282222 17.72695442 -7.62394457 15.73231847 -9.1875 12.6875 C-8.88130328 8.29868041 -6.12434133 4.99787989 -3 2 C-2.01 2 -1.02 2 0 2 C0 1.34 0 0.68 0 0 Z " fill="#77EDD1" transform="translate(205,225)"/>
<path d="M0 0 C0.99 0.66 1.98 1.32 3 2 C3.90180075 6.97209062 3.97550358 12.27804583 1.0625 16.5625 C0.381875 17.366875 -0.29875 18.17125 -1 19 C-1.33 19.66 -1.66 20.32 -2 21 C-3.66215268 22.33895632 -5.32963607 23.67130142 -7 25 C-7.845625 25.845625 -8.69125 26.69125 -9.5625 27.5625 C-11.61694931 29.61694931 -13.63116166 31.33303969 -16 33 C-16.66 32.67 -17.32 32.34 -18 32 C-16.27501468 29.76748835 -14.5452126 27.53900232 -12.8125 25.3125 C-12.32974609 24.68666016 -11.84699219 24.06082031 -11.34960938 23.41601562 C-9.07546157 20.50083287 -6.85490552 17.859742 -4.1875 15.28125 C-1.34084588 12.31259642 -1.23672075 10.02425275 -1 6 C-1.66 6 -2.32 6 -3 6 C-3 6.66 -3 7.32 -3 8 C-3.66 7.67 -4.32 7.34 -5 7 C-3.625 4.5 -3.625 4.5 -2 2 C-1.34 2 -0.68 2 0 2 C0 1.34 0 0.68 0 0 Z " fill="#026850" transform="translate(245,230)"/>
<path d="M0 0 C0.66 0 1.32 0 2 0 C1.85626228 9.23841497 0.82711222 17.88605374 -1.3125 26.875 C-1.51319092 27.72924561 -1.71388184 28.58349121 -1.9206543 29.46362305 C-3.43474623 35.53934955 -5.54673689 41.24323433 -8 47 C-9.17088772 43.48733684 -8.73968865 42.59349917 -7.5625 39.1875 C-6.31438933 35.3126837 -5.67554013 32.10982507 -6 28 C-6.66 27.67 -7.32 27.34 -8 27 C-7.67 26.01 -7.34 25.02 -7 24 C-6.34 24 -5.68 24 -5 24 C-4.67 21.36 -4.34 18.72 -4 16 C-3.01 16 -2.02 16 -1 16 C-1 13.36 -1 10.72 -1 8 C-3.64 8.33 -6.28 8.66 -9 9 C-8.67 8.34 -8.34 7.68 -8 7 C-5.93359375 6.3671875 -5.93359375 6.3671875 -3.4375 5.875 C-2.61121094 5.70742187 -1.78492188 5.53984375 -0.93359375 5.3671875 C0.02353516 5.18542969 0.02353516 5.18542969 1 5 C1 4.01 1 3.02 1 2 C0.34 1.67 -0.32 1.34 -1 1 C-0.67 0.67 -0.34 0.34 0 0 Z " fill="#1EC29A" transform="translate(281,184)"/>
<path d="M0 0 C2.94380929 1.00930604 4.86974317 1.87729429 7.15625 4.03125 C10.92285111 6.63889692 13.83515205 6.6619735 18.3125 6.75 C19.05306641 6.77964844 19.79363281 6.80929688 20.55664062 6.83984375 C22.37052046 6.91005845 24.18526278 6.95735048 26 7 C21.9176426 9.7215716 17.83174691 9.70597608 13.06835938 10.12304688 C8.46377678 10.60116537 5.08334486 11.64742926 1 14 C1 12.68 1 11.36 1 10 C1.66 10 2.32 10 3 10 C2.34 9.443125 1.68 8.88625 1 8.3125 C-1 6 -1 6 -1.3125 3.3125 C-1 1 -1 1 0 0 Z " fill="#16BB91" transform="translate(198,181)"/>
<path d="M0 0 C0.99 0.33 1.98 0.66 3 1 C2.56558594 1.40992188 2.13117188 1.81984375 1.68359375 2.2421875 C-0.09567875 4.09989661 -1.4841983 6.00236597 -2.9375 8.125 C-6.82673246 13.75940087 -10.77623076 19.34920942 -14.73608398 24.93408203 C-17.55351915 28.9174318 -20.31423813 32.92669375 -23 37 C-23.66 37.99 -24.32 38.98 -25 40 C-26.32 39.67 -27.64 39.34 -29 39 C-29 37.68 -29 36.36 -29 35 C-27.35 35 -25.7 35 -24 35 C-23.74089844 34.27425781 -23.48179687 33.54851562 -23.21484375 32.80078125 C-21.95156814 29.88834198 -20.47681743 27.7147174 -18.5625 25.1875 C-14.47105684 19.69477502 -10.59600717 14.0756398 -6.76977539 8.39526367 C-6.3236792 7.73888916 -5.87758301 7.08251465 -5.41796875 6.40625 C-4.82665161 5.52936523 -4.82665161 5.52936523 -4.22338867 4.63476562 C-2.94325557 2.92417467 -1.54402401 1.47332029 0 0 Z " fill="#B7FAF2" transform="translate(240,199)"/>
<path d="M0 0 C0.33 0 0.66 0 1 0 C0.88385202 1.83391542 0.75656767 3.66712628 0.625 5.5 C0.55539063 6.5209375 0.48578125 7.541875 0.4140625 8.59375 C0 12 0 12 -1.01367188 15.71289062 C-2.05937873 19.81898621 -2.25937655 23.77639813 -2.1953125 28 C-2.1924826 28.7211499 -2.18965271 29.4422998 -2.18673706 30.18530273 C-2.17566696 32.45704747 -2.15058895 34.72837727 -2.125 37 C-2.1149531 38.55337967 -2.10583027 40.1067656 -2.09765625 41.66015625 C-2.07577111 45.44026062 -2.04133514 49.22006032 -2 53 C-2.33 53 -2.66 53 -3 53 C-3 50.03 -3 47.06 -3 44 C-3.66 44 -4.32 44 -5 44 C-5.02929984 39.68751453 -5.04689903 35.37505507 -5.0625 31.0625 C-5.07087891 29.85013672 -5.07925781 28.63777344 -5.08789062 27.38867188 C-5.10565466 20.83374288 -4.88995726 14.49598725 -4 8 C-3.34 8 -2.68 8 -2 8 C-2 6.68 -2 5.36 -2 4 C-1.34 4 -0.68 4 0 4 C0 2.68 0 1.36 0 0 Z " fill="#D7FBF7" transform="translate(192,196)"/>
<path d="M0 0 C0 0.66 0 1.32 0 2 C-0.86625 2.309375 -0.86625 2.309375 -1.75 2.625 C-4.92408567 4.56471902 -6.27179767 6.73561782 -8 10 C-7.74981628 14.51802364 -5.88632653 16.62540013 -2.8125 19.8125 C8 31.36771166 8 31.36771166 8 35 C3.7235496 33.43029115 1.34690115 30.17400912 -1.4375 26.75 C-1.90220703 26.18925781 -2.36691406 25.62851563 -2.84570312 25.05078125 C-3.77623568 23.92687443 -4.69998077 22.79731185 -5.61669922 21.66210938 C-6.54200889 20.55030065 -7.50318256 19.46743092 -8.49658203 18.41601562 C-11.99513872 14.64071645 -11.99513872 14.64071645 -12.01953125 11.42578125 C-10.86378605 8.67590473 -9.51459522 6.54668291 -7.6875 4.1875 C-6.79611328 3.00220703 -6.79611328 3.00220703 -5.88671875 1.79296875 C-4 0 -4 0 0 0 Z " fill="#A8FAEF" transform="translate(205,225)"/>
<path d="M0 0 C0.495 1.485 0.495 1.485 1 3 C0.34 3 -0.32 3 -1 3 C-1 3.66 -1 4.32 -1 5 C-6.625 8 -6.625 8 -10 8 C-10 8.66 -10 9.32 -10 10 C-17.26857983 11.80106403 -24.50844621 12.77538152 -32 12 C-32.99 11.34 -33.98 10.68 -35 10 C-33.45892578 9.85304687 -33.45892578 9.85304687 -31.88671875 9.703125 C-21.42930113 8.61259827 -8.81872057 0 0 0 Z " fill="#089D77" transform="translate(240,181)"/>
<path d="M0 0 C0.99 0.66 1.98 1.32 3 2 C5.29714187 2.02639829 5.29714187 2.02639829 7.6875 1.625 C8.89986328 1.45871094 8.89986328 1.45871094 10.13671875 1.2890625 C10.75160156 1.19367188 11.36648437 1.09828125 12 1 C10.78846625 4.63460124 9.14949422 5.5478279 5.85546875 7.34765625 C4 8 4 8 1.0625 7.25 C0.381875 6.8375 -0.29875 6.425 -1 6 C-1.33 6.66 -1.66 7.32 -2 8 C-4.64 7.67 -7.28 7.34 -10 7 C-10 7.66 -10 8.32 -10 9 C-11.28913487 9.67154933 -12.58140204 10.33708859 -13.875 11 C-14.59429687 11.37125 -15.31359375 11.7425 -16.0546875 12.125 C-18 13 -18 13 -20 13 C-19.67 12.01 -19.34 11.02 -19 10 C-15.4375 8.8125 -15.4375 8.8125 -12 8 C-12 7.34 -12 6.68 -12 6 C-10.7625 5.566875 -9.525 5.13375 -8.25 4.6875 C-5.08403441 3.50868303 -2.56878575 2.24768753 0 0 Z " fill="#056149" transform="translate(242,279)"/>
<path d="M0 0 C0 0.99 0 1.98 0 3 C-0.63808594 3.19335938 -1.27617187 3.38671875 -1.93359375 3.5859375 C-2.75988281 3.84632813 -3.58617187 4.10671875 -4.4375 4.375 C-5.67306641 4.75785156 -5.67306641 4.75785156 -6.93359375 5.1484375 C-9.17798016 5.80882227 -9.17798016 5.80882227 -10 8 C-12.93847653 8.107834 -15.87301151 8.18721916 -18.8125 8.25 C-20.06256836 8.30027344 -20.06256836 8.30027344 -21.33789062 8.3515625 C-22.14033203 8.36445313 -22.94277344 8.37734375 -23.76953125 8.390625 C-24.87711792 8.4220459 -24.87711792 8.4220459 -26.00708008 8.45410156 C-28 8 -28 8 -29.7644043 5.97558594 C-30.17215088 5.32364258 -30.57989746 4.67169922 -31 4 C-30.3294458 3.98541748 -29.6588916 3.97083496 -28.96801758 3.95581055 C-25.91561178 3.881117 -22.86427415 3.78452701 -19.8125 3.6875 C-18.75740234 3.66494141 -17.70230469 3.64238281 -16.61523438 3.61914062 C-15.59365234 3.58369141 -14.57207031 3.54824219 -13.51953125 3.51171875 C-12.58214111 3.48553467 -11.64475098 3.45935059 -10.67895508 3.43237305 C-6.53308942 2.76324627 -4.23536634 0 0 0 Z " fill="#0BAB85" transform="translate(282,186)"/>
<path d="M0 0 C0.33 0.66 0.66 1.32 1 2 C1.66 2.33 2.32 2.66 3 3 C2.67 3.66 2.34 4.32 2 5 C1.65259077 6.99760305 1.32033957 8.99787771 1 11 C0.68325425 12.33737094 0.35729936 13.67288808 0 15 C-0.66 15 -1.32 15 -2 15 C-1.79375 16.051875 -1.5875 17.10375 -1.375 18.1875 C-0.58159946 24.21951781 -1.906736 30.07288277 -3 36 C-2.34 36 -1.68 36 -1 36 C-1 35.01 -1 34.02 -1 33 C-0.01 33 0.98 33 2 33 C0.44499019 36.81684226 -2.03595495 39.19195732 -5 42 C-5.19890435 33.95241036 -4.62218258 26.1697548 -3.625 18.1875 C-3.49867188 17.09501953 -3.37234375 16.00253906 -3.2421875 14.87695312 C-2.61204038 9.70029455 -1.95753796 4.87682283 0 0 Z " fill="#13BA91" transform="translate(198,193)"/>
<path d="M0 0 C0.495 1.98 0.495 1.98 1 4 C0.01 4.33 -0.98 4.66 -2 5 C-2 5.66 -2 6.32 -2 7 C-16.85 7 -31.7 7 -47 7 C-47 6.34 -47 5.68 -47 5 C-45.68281982 4.9906543 -44.36563965 4.98130859 -43.00854492 4.97167969 C-38.12733992 4.93184486 -33.24676954 4.86610427 -28.3659668 4.79248047 C-26.25244288 4.76423305 -24.13881257 4.74303736 -22.02514648 4.72900391 C-18.988865 4.70762666 -15.95386771 4.66100331 -12.91796875 4.609375 C-11.97100632 4.60814636 -11.02404388 4.60691772 -10.04838562 4.60565186 C-4.94678946 4.65721364 -4.94678946 4.65721364 -0.88012695 1.96191406 C-0.58968506 1.31448242 -0.29924316 0.66705078 0 0 Z " fill="#B1F1E3" transform="translate(112,130)"/>
<path d="M0 0 C1.17825358 0.90172468 2.34231577 1.82201502 3.5 2.75 C4.1496875 3.26046875 4.799375 3.7709375 5.46875 4.296875 C7 6 7 6 7 10 C7.99 10.33 8.98 10.66 10 11 C10.6875 13.0625 10.6875 13.0625 11 15 C11.66 15 12.32 15 13 15 C13 15.66 13 16.32 13 17 C15.475 17.99 15.475 17.99 18 19 C18 19.99 18 20.98 18 22 C18.66 22.33 19.32 22.66 20 23 C20.33 23.99 20.66 24.98 21 26 C16.4589336 24.61245193 14.87003312 22.69004258 12 19 C10.67621659 17.92562506 9.34188418 16.86418002 8 15.8125 C3.47169333 11.97695666 1.5706361 7.65222333 0 2 C0 1.34 0 0.68 0 0 Z " fill="#42DAAE" transform="translate(198,262)"/>
<path d="M0 0 C2.64 0 5.28 0 8 0 C8.061875 0.721875 8.12375 1.44375 8.1875 2.1875 C9.24223426 5.83850322 11.28149926 7.42090955 14 10 C14 10.66 14 11.32 14 12 C12.205625 12.0928125 12.205625 12.0928125 10.375 12.1875 C5.59269617 12.74912287 3.39492769 14.68994551 0 18 C0.69941596 14.85262818 1.76078698 11.97411124 3 9 C3.99 9.33 4.98 9.66 6 10 C6 9.01 6 8.02 6 7 C4.68 6.34 3.36 5.68 2 5 C2 4.34 2 3.68 2 3 C1.34 3 0.68 3 0 3 C0 2.01 0 1.02 0 0 Z " fill="#2CE6B6" transform="translate(245,198)"/>
<path d="M0 0 C0.66 0 1.32 0 2 0 C-0.85999822 7.88965027 -6.03848533 14.20408296 -12 20 C-13.0409066 21.64142963 -14.04504326 23.30712215 -15 25 C-16.5625 27.3125 -16.5625 27.3125 -18 29 C-18.66 29 -19.32 29 -20 29 C-20.0825 29.7425 -20.165 30.485 -20.25 31.25 C-21.1396946 34.51221354 -22.48503749 35.80954878 -25 38 C-24.42415568 35.61435923 -23.77772405 33.33317216 -23 31 C-22.34 31 -21.68 31 -21 31 C-21 29.35 -21 27.7 -21 26 C-20.01 26 -19.02 26 -18 26 C-18 24.35 -18 22.7 -18 21 C-16.68 21 -15.36 21 -14 21 C-13.71125 20.236875 -13.4225 19.47375 -13.125 18.6875 C-12 16 -12 16 -10 13 C-9.34 13 -8.68 13 -8 13 C-7.7525 12.278125 -7.505 11.55625 -7.25 10.8125 C-5.88323299 7.73727423 -4.16053292 5.56563284 -2 3 C-1.34 2.01 -0.68 1.02 0 0 Z " fill="#46EBC1" transform="translate(241,219)"/>
<path d="M0 0 C2.625 2.4375 2.625 2.4375 5 5 C5.99 5.66 6.98 6.32 8 7 C8 7.99 8 8.98 8 10 C13.28 10.33 18.56 10.66 24 11 C24 11.33 24 11.66 24 12 C21.14479219 12.10876982 18.29379439 12.18766466 15.4375 12.25 C14.23770508 12.30027344 14.23770508 12.30027344 13.01367188 12.3515625 C7.13392033 12.44755844 3.85177305 11.34077408 -1 8 C-2 7 -2 7 -2.0625 4.4375 C-2.041875 3.633125 -2.02125 2.82875 -2 2 C-3.32 2.33 -4.64 2.66 -6 3 C-6.33 2.01 -6.66 1.02 -7 0 C-4.19664415 -1.40167793 -2.9650644 -0.96536981 0 0 Z " fill="#51EEC7" transform="translate(248,177)"/>
<path d="M0 0 C0.66 0.33 1.32 0.66 2 1 C0.32121567 4.59739499 -1.18459595 7.24685304 -4 10 C-5.06403573 11.3366618 -6.10526087 12.69174513 -7.125 14.0625 C-7.64320313 14.75472656 -8.16140625 15.44695312 -8.6953125 16.16015625 C-10.0474612 17.96777159 -10.0474612 17.96777159 -11 20 C-11.66 20 -12.32 20 -13 20 C-13.33 20.66 -13.66 21.32 -14 22 C-12.36986301 15.24657534 -12.36986301 15.24657534 -9 13 C-9.33 12.01 -9.66 11.02 -10 10 C-10.66 10 -11.32 10 -12 10 C-11.67 8.68 -11.34 7.36 -11 6 C-10.01 6 -9.02 6 -8 6 C-7.67 5.01 -7.34 4.02 -7 3 C-5.35 3.33 -3.7 3.66 -2 4 C-1.34 2.68 -0.68 1.36 0 0 Z " fill="#7BFDDF" transform="translate(244,212)"/>
<path d="M0 0 C2.51745558 2.29532714 4.07834684 4.66673738 5.75 7.625 C10.48901246 15.65206801 15.69825877 22.18841004 23 28 C20 29 20 29 17 28 C14 23.66666667 14 23.66666667 14 21 C12.02 21.33 10.04 21.66 8 22 C8.33 19.69 8.66 17.38 9 15 C8.01 14.67 7.02 14.34 6 14 C6 13.01 6 12.02 6 11 C5.01 11 4.02 11 3 11 C0 4.5 0 4.5 0 0 Z " fill="#D6FAF4" transform="translate(73,217)"/>
<path d="M0 0 C2.78931294 1.08851237 4.29170468 2.21612514 5.84375 4.80078125 C8.27490349 12.23958243 6.78143798 21.38163764 5.5625 29 C5.2325 29 4.9025 29 4.5625 29 C4.53548592 26.89590361 4.51609777 24.79170822 4.5 22.6875 C4.48259766 20.92986328 4.48259766 20.92986328 4.46484375 19.13671875 C4.5625 16 4.5625 16 5.5625 13 C4.5725 13 3.5825 13 2.5625 13 C2.5625 12.34 2.5625 11.68 2.5625 11 C1.9025 11 1.2425 11 0.5625 11 C0.5625 8.69 0.5625 6.38 0.5625 4 C-0.365625 3.7834375 -0.365625 3.7834375 -1.3125 3.5625 C-3.4375 3 -3.4375 3 -5.4375 2 C-2.4375 0 -2.4375 0 0 0 Z " fill="#1AAB86" transform="translate(291.4375,179)"/>
<path d="M0 0 C4.55061654 0.58606425 8.09203023 2.47870133 12 4.75 C12.60328125 5.08515625 13.2065625 5.4203125 13.828125 5.765625 C17.810248 8.05101733 20.85384237 10.60531286 24 14 C24.598125 14.598125 25.19625 15.19625 25.8125 15.8125 C26.204375 16.204375 26.59625 16.59625 27 17 C26.34 18.32 25.68 19.64 25 21 C23.02 21 21.04 21 19 21 C19.061875 20.113125 19.12375 19.22625 19.1875 18.3125 C18.97771628 14.60632091 18.24862406 12.91488305 16 10 C15.01 9.67 14.02 9.34 13 9 C13 8.34 13 7.68 13 7 C12.154375 6.7525 11.30875 6.505 10.4375 6.25 C6.61572526 4.86026373 3.48131937 3.08879162 0 1 C0 0.67 0 0.34 0 0 Z " fill="#EBFAF9" transform="translate(189,104)"/>
<path d="M0 0 C0.99 0.86625 1.98 1.7325 3 2.625 C7.77832871 6.72348519 12.76234833 10.50823222 18 14 C17.67 14.99 17.34 15.98 17 17 C13.7 17 10.4 17 7 17 C7 15.35 7 13.7 7 12 C5.79031105 9.2332494 5.79031105 9.2332494 4 7 C3.01 6.67 2.02 6.34 1 6 C0.67 4.02 0.34 2.04 0 0 Z " fill="#ADE2D3" transform="translate(209,280)"/>
<path d="M0 0 C3 1 3 1 4.1328125 3.21484375 C4.46023437 4.11332031 4.78765625 5.01179688 5.125 5.9375 C5.45757812 6.83339844 5.79015625 7.72929687 6.1328125 8.65234375 C6.41898438 9.42707031 6.70515625 10.20179688 7 11 C7.33 11.66 7.66 12.32 8 13 C-0.42857143 14.28571429 -0.42857143 14.28571429 -5 13 C-5 12.01 -5 11.02 -5 10 C-4.34 10 -3.68 10 -3 10 C-1.11608215 6.73454239 -0.50712033 3.71888239 0 0 Z " fill="#E9F7F6" transform="translate(192,259)"/>
<path d="M0 0 C0.33 0 0.66 0 1 0 C1.02578125 1.0621875 1.0515625 2.124375 1.078125 3.21875 C1.55136219 16.69087257 4.58045886 23.12319958 14 33 C13.34 33.66 12.68 34.32 12 35 C11.01 35 10.02 35 9 35 C7.00902154 32.01353231 6.05875074 29.40312738 5 26 C4.01 26.99 3.02 27.98 2 29 C-0.20971003 22.79715256 -0.23565619 17.10398302 -0.125 10.5625 C-0.11597656 9.54478516 -0.10695312 8.52707031 -0.09765625 7.47851562 C-0.07424698 4.98542844 -0.041457 2.49284141 0 0 Z " fill="#3BB796" transform="translate(189,216)"/>
<path d="M0 0 C0.33 0 0.66 0 1 0 C1.29629261 5.03697445 1.0710449 7.94183352 -2 12 C-3.33333333 13.33333333 -4.66666667 14.66666667 -6 16 C-6.33 16.99 -6.66 17.98 -7 19 C-8.99371825 20.34270821 -10.9934562 21.67653494 -13 23 C-13 23.66 -13 24.32 -13 25 C-14.32 25 -15.64 25 -17 25 C-15.96905133 22.42262834 -15.4891374 21.23715753 -12.9375 20 C-12.298125 19.67 -11.65875 19.34 -11 19 C-10.7834375 18.071875 -10.7834375 18.071875 -10.5625 17.125 C-10 15 -10 15 -7.6875 13.375 C-4.26736541 10.35255548 -3.3090244 7.37731009 -1.796875 3.14453125 C-1 1 -1 1 0 0 Z " fill="#CECDCC" transform="translate(287,246)"/>
<path d="M0 0 C6.1929597 -0.12360058 12.38520159 -0.21434054 18.57910156 -0.2746582 C20.68599961 -0.29980212 22.79281043 -0.33392207 24.89941406 -0.37719727 C27.9279532 -0.43785368 30.9553393 -0.46621083 33.984375 -0.48828125 C35.39707672 -0.52699089 35.39707672 -0.52699089 36.83831787 -0.56648254 C43.4092237 -0.56930051 43.4092237 -0.56930051 46.62597656 2.53051758 C47.0794043 3.34544678 47.53283203 4.16037598 48 5 C47.67 5.66 47.34 6.32 47 7 C46.45947998 6.35474365 45.91895996 5.7094873 45.36206055 5.04467773 C42.45746704 2.53036553 41.00342539 2.438688 37.20703125 2.28515625 C36.05541504 2.2298877 34.90379883 2.17461914 33.71728516 2.11767578 C32.49058105 2.07884277 31.26387695 2.04000977 30 2 C28.75395996 1.9469873 27.50791992 1.89397461 26.22412109 1.83935547 C22.37900244 1.68328054 18.53394212 1.55618132 14.6875 1.4375 C13.34960084 1.39414291 12.01171012 1.35052433 10.67382812 1.30664062 C7.44929176 1.2018723 4.22469637 1.09969983 1 1 C1.33 2.98 1.66 4.96 2 7 C0 5 0 5 -0.125 2.375 C-0.08375 1.59125 -0.0425 0.8075 0 0 Z " fill="#3AC8A2" transform="translate(65,195)"/>
<path d="M0 0 C-0.33 1.65 -0.66 3.3 -1 5 C-1.66 5 -2.32 5 -3 5 C-3 5.66 -3 6.32 -3 7 C-3.66 7 -4.32 7 -5 7 C-5.20625 7.66 -5.4125 8.32 -5.625 9 C-7.50096465 13.09301378 -10.08488226 16.57494912 -13 20 C-13.33 20 -13.66 20 -14 20 C-14.24042276 15.91281305 -13.42258812 12.82320557 -12 9 C-11.01 9.33 -10.02 9.66 -9 10 C-8.95875 9.278125 -8.9175 8.55625 -8.875 7.8125 C-7.66642745 3.92780252 -4.41975659 0 0 0 Z " fill="#058466" transform="translate(248,225)"/>
<path d="M0 0 C0.66 0 1.32 0 2 0 C2.33 3.3 2.66 6.6 3 10 C3.33 10 3.66 10 4 10 C4 11.98 4 13.96 4 16 C2.02 16.99 2.02 16.99 0 18 C-0.33 17.67 -0.66 17.34 -1 17 C-1.66 17.99 -2.32 18.98 -3 20 C-3.40850553 12.91923749 -1.90420731 6.80074041 0 0 Z " fill="#D8D0D5" transform="translate(298,208)"/>
<path d="M0 0 C0.33 0 0.66 0 1 0 C1.24234375 0.89460937 1.4846875 1.78921875 1.734375 2.7109375 C3.5444693 9.24120079 5.45937473 15.58987738 8.16796875 21.81640625 C9.07234232 24.18985613 9.56528187 26.50146855 10 29 C8 28 8 28 7 25 C6.34 24.67 5.68 24.34 5 24 C5 22.68 5 21.36 5 20 C3.68 20 2.36 20 1 20 C0.202163 13.30386804 -0.12910853 6.74233419 0 0 Z " fill="#A1EFDF" transform="translate(190,240)"/>
<path d="M0 0 C1.63485352 -0.02416992 1.63485352 -0.02416992 3.30273438 -0.04882812 C10.08947983 -0.05290915 15.37842506 0.7928589 21.6875 3.3125 C21.6875 3.6425 21.6875 3.9725 21.6875 4.3125 C18.15262806 4.45389488 15.2994203 4.5342229 11.94921875 3.3203125 C8.1205621 2.13732637 4.58862549 2.01808963 0.625 2.0625 C-0.06916016 2.05476563 -0.76332031 2.04703125 -1.47851562 2.0390625 C-5.59289585 2.05469167 -8.56713012 2.70008652 -12.3125 4.3125 C-14.76953125 4.5078125 -14.76953125 4.5078125 -17.125 4.4375 C-17.91519531 4.41945313 -18.70539063 4.40140625 -19.51953125 4.3828125 C-20.11121094 4.35960938 -20.70289063 4.33640625 -21.3125 4.3125 C-14.50524304 -0.2256713 -7.93113472 -0.02320402 0 0 Z " fill="#D6FCF7" transform="translate(167.3125,99.6875)"/>
<path d="M0 0 C3.6327391 2.42182607 3.68131947 3.50445117 4.6875 7.625 C4.93886719 8.62789062 5.19023437 9.63078125 5.44921875 10.6640625 C5.72185547 11.82035156 5.72185547 11.82035156 6 13 C5.34 13 4.68 13 4 13 C4.99 15.97 5.98 18.94 7 22 C3.02476244 19.61485747 2.20659691 17.39546018 1 13 C0.608125 12.030625 0.21625 11.06125 -0.1875 10.0625 C-1.16194778 6.38958143 -0.73901795 3.69508975 0 0 Z " fill="#0AA17B" transform="translate(193,241)"/>
<path d="M0 0 C0.625 1.75 0.625 1.75 1 4 C0.33333333 5.33333333 -0.33333333 6.66666667 -1 8 C-0.67 9.32 -0.34 10.64 0 12 C3.3 12.33 6.6 12.66 10 13 C9.67 13.66 9.34 14.32 9 15 C7.741875 15.020625 6.48375 15.04125 5.1875 15.0625 C4.47980469 15.07410156 3.77210938 15.08570313 3.04296875 15.09765625 C-0.15839295 14.94462749 -1.73437327 14.26562673 -4 12 C-4.66 12 -5.32 12 -6 12 C-5.73781251 7.5428126 -5.42288711 5.48477302 -2.4375 2.0625 C-1.633125 1.381875 -0.82875 0.70125 0 0 Z " fill="#048F6D" transform="translate(223,252)"/>
<path d="M0 0 C2.13521244 -0.00218697 4.26990802 -0.02037259 6.4050293 -0.03930664 C7.77547026 -0.04224116 9.14591364 -0.04422556 10.51635742 -0.04516602 C11.75184326 -0.0492749 12.9873291 -0.05338379 14.26025391 -0.05761719 C17.73182667 0.18699827 20.47374642 0.93559204 23.70776367 2.18530273 C23.70776367 2.51530273 23.70776367 2.84530273 23.70776367 3.18530273 C22.73838867 3.11311523 21.76901367 3.04092773 20.77026367 2.96655273 C7.02241836 1.99346847 -6.55481487 1.72830349 -20.29223633 3.18530273 C-15.4060599 -1.70087369 -6.50104898 -0.00074647 0 0 Z " fill="#C6F9F1" transform="translate(168.292236328125,55.814697265625)"/>
<path d="M0 0 C1.32 0.66 2.64 1.32 4 2 C3.67 3.32 3.34 4.64 3 6 C3.66 6 4.32 6 5 6 C5.66 7.98 6.32 9.96 7 12 C7.66 11.67 8.32 11.34 9 11 C9.33 12.32 9.66 13.64 10 15 C10.99 15 11.98 15 13 15 C12.34 16.98 11.68 18.96 11 21 C9 20 9 20 8.13671875 17.71484375 C6.82979024 14.59348529 5.2024671 12.93554698 2.8125 10.5625 C-1 6.45461712 -1 6.45461712 -1 2.4375 C-0.67 1.633125 -0.34 0.82875 0 0 Z " fill="#6FF5D5" transform="translate(203,240)"/>
<path d="M0 0 C-1.22506898 0.65357278 -2.45529516 1.29748233 -3.6875 1.9375 C-4.37199219 2.29714844 -5.05648438 2.65679687 -5.76171875 3.02734375 C-10.50729219 5.08955629 -15.05982976 5.13580647 -20.1875 5.125 C-21.41855469 5.12757813 -22.64960938 5.13015625 -23.91796875 5.1328125 C-27 5 -27 5 -29 4 C-29 3.01 -29 2.02 -29 1 C-27.83082031 1.0721875 -26.66164063 1.144375 -25.45703125 1.21875 C-23.90885893 1.31257863 -22.36068158 1.40632425 -20.8125 1.5 C-20.04357422 1.54769531 -19.27464844 1.59539062 -18.48242188 1.64453125 C-14.648496 1.87489589 -10.84309823 2.0616128 -7 2 C-7 1.34 -7 0.68 -7 0 C-3.98968256 -0.93423645 -3.13349732 -1.04449911 0 0 Z " fill="#CBF8F0" transform="translate(285,183)"/>
<path d="M0 0 C0.66 0.99 1.32 1.98 2 3 C0.02 7.455 0.02 7.455 -2 12 C12.52 11.67 27.04 11.34 42 11 C41.67 11.66 41.34 12.32 41 13 C26.48 13 11.96 13 -3 13 C-2.30260025 8.11820173 -1.64344024 4.49206998 0 0 Z " fill="#41C6A2" transform="translate(68,122)"/>
<path d="M0 0 C0.33 0 0.66 0 1 0 C1.19191489 7.09018898 1.18298693 13.19421722 -1 20 C-1.44760495 23.32506537 -1.74425703 26.6551512 -2 30 C-2.66 30 -3.32 30 -4 30 C-4 30.66 -4 31.32 -4 32 C-4.66 32 -5.32 32 -6 32 C-4 21.33333333 -2 10.66666667 0 0 Z " fill="#8CCDBE" transform="translate(297,200)"/>
<path d="M0 0 C0.33 0.99 0.66 1.98 1 3 C0.3503125 3.5259375 0.3503125 3.5259375 -0.3125 4.0625 C-2.26027443 6.0856973 -2.26027443 6.0856973 -3.4375 9.5625 C-5 13 -5 13 -7.1875 14.4375 C-8.0846875 14.7159375 -8.0846875 14.7159375 -9 15 C-9.99 13.68 -10.98 12.36 -12 11 C-11.195625 10.7525 -10.39125 10.505 -9.5625 10.25 C-8.716875 9.8375 -7.87125 9.425 -7 9 C-6.855625 8.401875 -6.71125 7.80375 -6.5625 7.1875 C-5.64354271 3.61377719 -2.87286396 2.20049154 0 0 Z " fill="#D8D6D6" transform="translate(287,256)"/>
<path d="M0 0 C0.66 0.99 1.32 1.98 2 3 C0.02 3.99 0.02 3.99 -2 5 C-2 6.65 -2 8.3 -2 10 C-3.65 9.67 -5.3 9.34 -7 9 C-7.66 10.32 -8.32 11.64 -9 13 C-9.66 13 -10.32 13 -11 13 C-11 12.34 -11 11.68 -11 11 C-11.66 10.34 -12.32 9.68 -13 9 C-11.54550599 7.9944239 -10.08627557 6.99569565 -8.625 6 C-7.81289062 5.443125 -7.00078125 4.88625 -6.1640625 4.3125 C-4 3 -4 3 -2 3 C-2 2.34 -2 1.68 -2 1 C-1.34 0.67 -0.68 0.34 0 0 Z " fill="#B0C5C1" transform="translate(258,278)"/>
<path d="M0 0 C0.33 0.66 0.66 1.32 1 2 C-0.06137318 4.79536075 -1.56590583 7.37924341 -3 10 C-3.495 10.9075 -3.99 11.815 -4.5 12.75 C-6 15 -6 15 -8.0625 16.9375 C-10.41468968 19.44144386 -11.10505318 21.71852832 -12 25 C-12.66 25 -13.32 25 -14 25 C-13.29237184 21.32033357 -11.69503252 18.32226375 -10 15 C-9.31471955 13.34089996 -8.64108137 11.67667436 -8 10 C-7.34 10 -6.68 10 -6 10 C-5.62875 9.195625 -5.62875 9.195625 -5.25 8.375 C-3.70303025 5.43575748 -1.86985631 2.74245592 0 0 Z " fill="#04A279" transform="translate(229,238)"/>
<path d="M0 0 C0.33 0.99 0.66 1.98 1 3 C1.99 3.33 2.98 3.66 4 4 C4 9.61 4 15.22 4 21 C3.34 20.67 2.68 20.34 2 20 C1.5859375 17.71484375 1.5859375 17.71484375 1.375 14.9375 C1.26285156 13.55884766 1.26285156 13.55884766 1.1484375 12.15234375 C1.09945313 11.44207031 1.05046875 10.73179687 1 10 C0.67 10 0.34 10 0 10 C0 6.7 0 3.4 0 0 Z " fill="#E1E2E4" transform="translate(300,188)"/>
<path d="M0 0 C1.65 0 3.3 0 5 0 C5 0.99 5 1.98 5 3 C5.66 3 6.32 3 7 3 C9.125 4.8125 9.125 4.8125 11 7 C11 7.99 11 8.98 11 10 C10.01 10 9.02 10 8 10 C7.34 11.32 6.68 12.64 6 14 C4.74335022 11.09399739 4 9.20395416 4 6 C3.34 6 2.68 6 2 6 C2 4.68 2 3.36 2 2 C1.34 1.34 0.68 0.68 0 0 Z " fill="#63F8D7" transform="translate(240,198)"/>
<path d="M0 0 C0.99 0.33 1.98 0.66 3 1 C1.54129364 4.80806515 -0.16014381 8.42418438 -2 12.0625 C-2.515625 13.08472656 -3.03125 14.10695313 -3.5625 15.16015625 C-4.2740625 16.56587891 -4.2740625 16.56587891 -5 18 C-5.66754487 19.33289387 -6.33461323 20.66602749 -7 22 C-7.37952295 15.80112515 -6.8352113 11.5522888 -4 6 C-3.34 6 -2.68 6 -2 6 C-1.34 4.02 -0.68 2.04 0 0 Z " fill="#DDFAF6" transform="translate(73,106)"/>
<path d="M0 0 C2.94380929 1.00930604 4.86974317 1.87729429 7.15625 4.03125 C10.92285111 6.63889692 13.83515205 6.6619735 18.3125 6.75 C19.05306641 6.77964844 19.79363281 6.80929688 20.55664062 6.83984375 C22.37052046 6.91005845 24.18526278 6.95735048 26 7 C26 7.33 26 7.66 26 8 C22.77100574 8.0875127 19.54231884 8.14056146 16.3125 8.1875 C14.94448242 8.22520508 14.94448242 8.22520508 13.54882812 8.26367188 C8.56450136 8.31804635 4.99940913 8.35434314 1 5 C-0.3125 2.8125 -0.3125 2.8125 -1 1 C-0.67 0.67 -0.34 0.34 0 0 Z " fill="#4EF0C5" transform="translate(198,181)"/>
<path d="M0 0 C0.99 0 1.98 0 3 0 C3 0.66 3 1.32 3 2 C4.32 2 5.64 2 7 2 C7 1.34 7 0.68 7 0 C7.99 0 8.98 0 10 0 C10.33 1.32 10.66 2.64 11 4 C10.34 4 9.68 4 9 4 C9.66 5.65 10.32 7.3 11 9 C10.18789062 8.55527344 10.18789062 8.55527344 9.359375 8.1015625 C6.69813886 6.85906483 4.08984426 6.11876874 1.25 5.375 C-0.22726563 4.98441406 -0.22726563 4.98441406 -1.734375 4.5859375 C-2.48203125 4.39257812 -3.2296875 4.19921875 -4 4 C-2.68 3.67 -1.36 3.34 0 3 C0 2.01 0 1.02 0 0 Z " fill="#32CCA2" transform="translate(245,162)"/>
<path d="M0 0 C1.98 0 3.96 0 6 0 C4.78846625 3.63460124 3.14949422 4.5478279 -0.14453125 6.34765625 C-2 7 -2 7 -4.9375 6.25 C-5.618125 5.8375 -6.29875 5.425 -7 5 C-7.33 5.66 -7.66 6.32 -8 7 C-9.32 6.34 -10.64 5.68 -12 5 C-10.68 5 -9.36 5 -8 5 C-7.67 4.01 -7.34 3.02 -7 2 C-3.535 1.505 -3.535 1.505 0 1 C0 0.67 0 0.34 0 0 Z " fill="#0A5844" transform="translate(248,280)"/>
<path d="M0 0 C1.4540625 0.0309375 1.4540625 0.0309375 2.9375 0.0625 C3.2675 0.7225 3.5975 1.3825 3.9375 2.0625 C-1.8125 7.0625 -1.8125 7.0625 -4.0625 7.0625 C-4.3925 7.7225 -4.7225 8.3825 -5.0625 9.0625 C-5.7225 9.0625 -6.3825 9.0625 -7.0625 9.0625 C-8.0525 9.7225 -9.0425 10.3825 -10.0625 11.0625 C-5.00386292 0.10211965 -5.00386292 0.10211965 0 0 Z " fill="#059C77" transform="translate(244.0625,222.9375)"/>
<path d="M0 0 C0.66 0 1.32 0 2 0 C0.61219205 3.89006773 -1.2152227 6.96558708 -3.625 10.3125 C-4.25664062 11.19550781 -4.88828125 12.07851562 -5.5390625 12.98828125 C-6.02117187 13.65214844 -6.50328125 14.31601563 -7 15 C-8.32 14.67 -9.64 14.34 -11 14 C-11 12.68 -11 11.36 -11 10 C-9.35 10 -7.7 10 -6 10 C-5.7525 9.278125 -5.505 8.55625 -5.25 7.8125 C-3.87730408 4.72393418 -2.27646704 2.48988582 0 0 Z " fill="#C3FDF6" transform="translate(222,224)"/>
<path d="M0 0 C0.66 0 1.32 0 2 0 C1.88581333 2.58422459 1.75907638 5.16679513 1.625 7.75 C1.57859375 8.84441406 1.57859375 8.84441406 1.53125 9.9609375 C1.31050269 14.00797144 0.85079003 16.29841994 -1 20 C-1 16.04 -1 12.08 -1 8 C-3.64 8.33 -6.28 8.66 -9 9 C-8.67 8.34 -8.34 7.68 -8 7 C-5.93359375 6.3671875 -5.93359375 6.3671875 -3.4375 5.875 C-2.61121094 5.70742187 -1.78492188 5.53984375 -0.93359375 5.3671875 C0.02353516 5.18542969 0.02353516 5.18542969 1 5 C1 4.01 1 3.02 1 2 C0.34 1.67 -0.32 1.34 -1 1 C-0.67 0.67 -0.34 0.34 0 0 Z " fill="#27C39C" transform="translate(281,184)"/>
<path d="M0 0 C0.33 0 0.66 0 1 0 C1 7.92 1 15.84 1 24 C-12.5 24 -12.5 24 -18 20 C-17.34 19.67 -16.68 19.34 -16 19 C-11.44444444 20.55555556 -11.44444444 20.55555556 -10 22 C-6.7 22.33 -3.4 22.66 0 23 C0 15.41 0 7.82 0 0 Z " fill="#42C4A2" transform="translate(274,152)"/>
<path d="M0 0 C3.58744924 1.74773168 7.08973745 3.59963421 10.5625 5.5625 C13.64225946 7.2896624 16.66268466 8.81579133 20 10 C20 10.33 20 10.66 20 11 C13.56799895 11.6030001 7.15221816 8.7031568 2 5 C2 4.34 2 3.68 2 3 C1.34 3 0.68 3 0 3 C0 2.01 0 1.02 0 0 Z " fill="#DEFBF7" transform="translate(106,254)"/>
<path d="M0 0 C0 0.99 0 1.98 0 3 C-7.07555499 6.0017506 -13.37048445 6.34855655 -21 6 C-21 5.34 -21 4.68 -21 4 C-20.11957031 3.96261719 -19.23914063 3.92523438 -18.33203125 3.88671875 C-16.58986328 3.78810547 -16.58986328 3.78810547 -14.8125 3.6875 C-13.66394531 3.62949219 -12.51539063 3.57148438 -11.33203125 3.51171875 C-6.97312068 2.84229638 -4.33960933 0 0 0 Z " fill="#018664" transform="translate(282,186)"/>
<path d="M0 0 C0.99 0.33 1.98 0.66 3 1 C-1.41474293 5.92413635 -6.3505254 8.54662673 -13 9 C-13.66 8.34 -14.32 7.68 -15 7 C-14.33613281 6.74605469 -13.67226562 6.49210937 -12.98828125 6.23046875 C-7.36405216 4.043735 -7.36405216 4.043735 -2.0625 1.1875 C-1.381875 0.795625 -0.70125 0.40375 0 0 Z " fill="#AFC1BC" transform="translate(243,288)"/>
<path d="M0 0 C0.66 0 1.32 0 2 0 C5 5.75 5 5.75 5 8 C5.66 8 6.32 8 7 8 C11 13.41176471 11 13.41176471 11 16 C10.01 16 9.02 16 8 16 C3.7160178 11.7160178 1.82131647 7.7515257 0 2 C0 1.34 0 0.68 0 0 Z " fill="#039473" transform="translate(197,254)"/>
<path d="M0 0 C1.9375 0.3125 1.9375 0.3125 4 1 C4.33 1.99 4.66 2.98 5 4 C4.34 4 3.68 4 3 4 C2.34 6.64 1.68 9.28 1 12 C0.34 12 -0.32 12 -1 12 C-1.33 12.99 -1.66 13.98 -2 15 C-1.85879286 13.06215735 -1.71187127 11.12473045 -1.5625 9.1875 C-1.48128906 8.10855469 -1.40007812 7.02960938 -1.31640625 5.91796875 C-1 3 -1 3 0 0 Z " fill="#0E8364" transform="translate(196,187)"/>
<path d="M0 0 C3.60244452 0.30878096 4.99345998 0.99447732 7.8125 3.375 C10 6 10 6 10 9 C7.33289346 8.84759391 5.5494129 8.50635081 3.5546875 6.66796875 C0 2.49375 0 2.49375 0 0 Z " fill="#3DF4C2" transform="translate(206,225)"/>
<path d="M0 0 C0.33 1.32 0.66 2.64 1 4 C1.66 4 2.32 4 3 4 C2.67 5.65 2.34 7.3 2 9 C0.68 8.34 -0.64 7.68 -2 7 C-2 5.35 -2 3.7 -2 2 C-3.32 2.33 -4.64 2.66 -6 3 C-6.33 2.01 -6.66 1.02 -7 0 C-4.3333581 -1.33332095 -2.83319697 -0.67102033 0 0 Z " fill="#2AE9B9" transform="translate(248,177)"/>
<path d="M0 0 C1.4540625 0.0309375 1.4540625 0.0309375 2.9375 0.0625 C3.205625 0.990625 3.47375 1.91875 3.75 2.875 C4.84898371 5.82490366 5.56168561 7.11865186 7.9375 9.0625 C3.08312001 8.61092977 0.44575987 7.47052387 -3.0625 4.0625 C-3.3925 3.0725 -3.7225 2.0825 -4.0625 1.0625 C-3.0625 0.0625 -3.0625 0.0625 0 0 Z " fill="#22D2A4" transform="translate(243.0625,178.9375)"/>
<path d="M0 0 C1.56897703 2.82527536 2.31184205 5.11842048 2.6328125 8.328125 C2.71660156 9.12734375 2.80039063 9.9265625 2.88671875 10.75 C2.96535156 11.575 3.04398438 12.4 3.125 13.25 C3.21136719 14.09046875 3.29773438 14.9309375 3.38671875 15.796875 C3.59811722 17.86388223 3.79999462 19.93185928 4 22 C5.98 21.34 7.96 20.68 10 20 C10 20.99 10 21.98 10 23 C6.04 23.495 6.04 23.495 2 24 C1.66148822 21.31306278 1.329064 18.62559711 1 15.9375 C0.90460938 15.18533203 0.80921875 14.43316406 0.7109375 13.65820312 C0.15428098 9.06578683 -0.09829028 4.6257865 0 0 Z " fill="#C3FAEE" transform="translate(230,148)"/>
<path d="M0 0 C0 0.66 0 1.32 0 2 C-2.93061274 4.68639502 -5.13848874 6.1725333 -9 7 C-9.33 7.66 -9.66 8.32 -10 9 C-10.99 9.33 -11.98 9.66 -13 10 C-13.33 10.99 -13.66 11.98 -14 13 C-15.32 12.67 -16.64 12.34 -18 12 C-16.71034824 10.62437146 -15.37310707 9.29233607 -14 8 C-13.34 8 -12.68 8 -12 8 C-12 7.34 -12 6.68 -12 6 C-9.8828125 4.4921875 -9.8828125 4.4921875 -7.125 2.875 C-6.22007812 2.33617188 -5.31515625 1.79734375 -4.3828125 1.2421875 C-2 0 -2 0 0 0 Z " fill="#C0F7EB" transform="translate(138,107)"/>
<path d="M0 0 C1.66289062 0.02030273 1.66289062 0.02030273 3.359375 0.04101562 C6.07343232 0.07611119 8.78645193 0.1252773 11.5 0.1875 C11.5 0.5175 11.5 0.8475 11.5 1.1875 C10.63217896 1.20937378 10.63217896 1.20937378 9.74682617 1.23168945 C-5.63868816 1.52810003 -5.63868816 1.52810003 -20.5 5.1875 C-20.5 4.5275 -20.5 3.8675 -20.5 3.1875 C-13.55163309 -0.02527645 -7.58411523 -0.17690221 0 0 Z " fill="#53D1AE" transform="translate(164.5,98.8125)"/>
<path d="M0 0 C0.66 0 1.32 0 2 0 C2 0.66 2 1.32 2 2 C2.7425 2.268125 3.485 2.53625 4.25 2.8125 C7 4 7 4 9.0625 5.5625 C11.07687729 7.05703799 12.55493989 7.56338212 15 8 C14.484375 8.391875 13.96875 8.78375 13.4375 9.1875 C12.7259375 10.0846875 12.7259375 10.0846875 12 11 C12.23043864 13.65466049 12.23043864 13.65466049 13 16 C12.34 15.67 11.68 15.34 11 15 C11 14.01 11 13.02 11 12 C10.34 11.67 9.68 11.34 9 11 C8.71125 10.360625 8.4225 9.72125 8.125 9.0625 C6.77090236 6.57998766 5.57821507 6.03128603 3 5 C3 4.34 3 3.68 3 3 C2.34 3 1.68 3 1 3 C0.67 2.01 0.34 1.02 0 0 Z " fill="#1CC296" transform="translate(208,274)"/>
<path d="M0 0 C-4.88799483 3.96553159 -10.19206928 3.51662553 -16.1875 3.625 C-18.18109016 3.67588935 -20.17459234 3.73039457 -22.16796875 3.7890625 C-23.04735107 3.80662598 -23.9267334 3.82418945 -24.83276367 3.84228516 C-27.04776823 3.86508569 -27.04776823 3.86508569 -29 5 C-29.99 4.01 -30.98 3.02 -32 2 C-23.75 2 -15.5 2 -7 2 C-7 1.34 -7 0.68 -7 0 C-2.25 -1.125 -2.25 -1.125 0 0 Z " fill="#11BB8F" transform="translate(279,187)"/>
<path d="M0 0 C0.33 0.99 0.66 1.98 1 3 C0.34 3 -0.32 3 -1 3 C-1 3.66 -1 4.32 -1 5 C-2.43429001 5.67354499 -3.87257057 6.33859701 -5.3125 7 C-6.51326172 7.556875 -6.51326172 7.556875 -7.73828125 8.125 C-10 9 -10 9 -13 9 C-13 8.34 -13 7.68 -13 7 C-12.01 7 -11.02 7 -10 7 C-10 6.34 -10 5.68 -10 5 C-8.3203125 3.7109375 -8.3203125 3.7109375 -6.125 2.375 C-5.40570313 1.92898437 -4.68640625 1.48296875 -3.9453125 1.0234375 C-2 0 -2 0 0 0 Z " fill="#098664" transform="translate(240,181)"/>
<path d="M0 0 C0.66 0 1.32 0 2 0 C0.64166972 3.75894369 -1.06797659 6.80345165 -3.375 10.0625 C-3.96023437 10.89910156 -4.54546875 11.73570312 -5.1484375 12.59765625 C-6.95042073 14.93567246 -8.8661781 16.96487911 -11 19 C-8.70684377 13.00251447 -6.13699509 7.93770382 -2 3 C-1.34 2.01 -0.68 1.02 0 0 Z " fill="#2BD9AB" transform="translate(241,219)"/>
<path d="M0 0 C4.60626113 0.58784666 8.22288305 2.52984176 12.1875 4.8125 C12.81591797 5.15603516 13.44433594 5.49957031 14.09179688 5.85351562 C17.47831805 7.78401379 19.74802985 9.21002233 21 13 C19.0625 12.625 19.0625 12.625 17 12 C16.67 11.34 16.34 10.68 16 10 C15.01 9.67 14.02 9.34 13 9 C13 8.34 13 7.68 13 7 C12.154375 6.7525 11.30875 6.505 10.4375 6.25 C6.61572526 4.86026373 3.48131937 3.08879162 0 1 C0 0.67 0 0.34 0 0 Z " fill="#D0FCF4" transform="translate(189,104)"/>
<path d="M0 0 C4.96916636 0.51405169 9.29026351 1.23384882 14 3 C14 3.66 14 4.32 14 5 C15.65 5.33 17.3 5.66 19 6 C19 6.99 19 7.98 19 9 C14.86177782 7.37003104 10.77231222 5.63344645 6.6875 3.875 C6.04232422 3.59785156 5.39714844 3.32070312 4.73242188 3.03515625 C3.15470995 2.35732446 1.57732174 1.67873926 0 1 C0 0.67 0 0.34 0 0 Z " fill="#3EC7A0" transform="translate(184,101)"/>
<path d="M0 0 C1.60746056 0.42523816 3.21089836 0.86570126 4.8125 1.3125 C6.15248047 1.67794922 6.15248047 1.67794922 7.51953125 2.05078125 C10.1066215 3.04080162 11.16163937 3.99451568 13 6 C14.97620986 7.04622875 16.9737129 8.05439935 19 9 C19 9.66 19 10.32 19 11 C11.6391976 9.66167229 5.91914659 5.4223509 0 1 C0 0.67 0 0.34 0 0 Z " fill="#50CEAA" transform="translate(106,253)"/>
<path d="M0 0 C0.66 0 1.32 0 2 0 C2.33 2.31 2.66 4.62 3 7 C3.99 7 4.98 7 6 7 C6 7.99 6 8.98 6 10 C2.71023192 11.09658936 1.28696233 10.79953138 -2 10 C-2 7.36 -2 4.72 -2 2 C-1.34 2 -0.68 2 0 2 C0 1.34 0 0.68 0 0 Z " fill="#C9D0CF" transform="translate(293,230)"/>
<path d="M0 0 C2.14699969 3.44175522 2.09856795 5.7720292 1.625 9.75 C1.51414063 10.73484375 1.40328125 11.7196875 1.2890625 12.734375 C1.19367188 13.48203125 1.09828125 14.2296875 1 15 C-1 14 -1 14 -2 11 C-2.16796875 9.0625 -2.16796875 9.0625 -2.1875 7 C-2.20167969 6.319375 -2.21585938 5.63875 -2.23046875 4.9375 C-2 3 -2 3 0 0 Z " fill="#038D6A" transform="translate(192,221)"/>
<path d="M0 0 C1.93922422 0.45098238 3.87633594 0.91105559 5.8125 1.375 C6.89144531 1.63023437 7.97039062 1.88546875 9.08203125 2.1484375 C12 3 12 3 15 5 C12.36 4.67 9.72 4.34 7 4 C7 4.66 7 5.32 7 6 C5.02 6.33 3.04 6.66 1 7 C1.33 5.68 1.66 4.36 2 3 C1.34 2.67 0.68 2.34 0 2 C0 1.34 0 0.68 0 0 Z " fill="#DFF9F5" transform="translate(126,265)"/>
<path d="M0 0 C0.33 0 0.66 0 1 0 C1.8678228 3.10051447 2.71686767 6.20586665 3.5625 9.3125 C3.80935547 10.19357422 4.05621094 11.07464844 4.31054688 11.98242188 C4.53935547 12.82998047 4.76816406 13.67753906 5.00390625 14.55078125 C5.21861572 15.33106689 5.4333252 16.11135254 5.65454102 16.9152832 C6 19 6 19 5 22 C4.67 22 4.34 22 4 22 C4 20.35 4 18.7 4 17 C3.01 17 2.02 17 1 17 C0.67 11.39 0.34 5.78 0 0 Z " fill="#53CDAE" transform="translate(178,243)"/>
<path d="M0 0 C2.64294064 2.39763777 4.32526203 4.99209277 6.125 8.0625 C6.64320312 8.94035156 7.16140625 9.81820312 7.6953125 10.72265625 C8.50040453 12.12795161 9.27570334 13.55140669 10 15 C8.68 14.67 7.36 14.34 6 14 C6 13.01 6 12.02 6 11 C5.01 11 4.02 11 3 11 C0 4.5 0 4.5 0 0 Z " fill="#C9F7ED" transform="translate(73,217)"/>
<path d="M0 0 C2.375 0.3125 2.375 0.3125 5 1 C5.66 1.99 6.32 2.98 7 4 C5.68 3.67 4.36 3.34 3 3 C2.67 3.66 2.34 4.32 2 5 C-0.50390625 5.4140625 -0.50390625 5.4140625 -3.5625 5.625 C-4.57441406 5.69976562 -5.58632812 5.77453125 -6.62890625 5.8515625 C-7.41136719 5.90054688 -8.19382813 5.94953125 -9 6 C-5.97060499 3.58554629 -3.86695903 2.53707764 0 2 C0 1.34 0 0.68 0 0 Z " fill="#0FB188" transform="translate(239,184)"/>
<path d="M0 0 C2.69593005 0.269593 3.79124012 0.78350827 5.6875 2.75 C7.11211469 5.19219662 7.61312661 7.2145116 8 10 C5.625 9.8125 5.625 9.8125 3 9 C1.8125 6.625 1.8125 6.625 1 4 C0.34 3.01 -0.32 2.02 -1 1 C-0.67 0.67 -0.34 0.34 0 0 Z " fill="#50F8D1" transform="translate(203,229)"/>
<path d="M0 0 C3 1 3 1 4.1328125 3.21484375 C4.62394531 4.56255859 4.62394531 4.56255859 5.125 5.9375 C5.45757812 6.83339844 5.79015625 7.72929687 6.1328125 8.65234375 C6.41898438 9.42707031 6.70515625 10.20179688 7 11 C7.33 11.66 7.66 12.32 8 13 C6.02 13 4.04 13 2 13 C2 12.34 2 11.68 2 11 C2.66 11 3.32 11 4 11 C4 10.01 4 9.02 4 8 C3.01 8 2.02 8 1 8 C0.67 5.36 0.34 2.72 0 0 Z " fill="#E6EBEE" transform="translate(192,259)"/>
<path d="M0 0 C0.66 0.33 1.32 0.66 2 1 C-0.82813765 4.05438866 -3.85439034 6.39796461 -7.25 8.76171875 C-9.58006716 10.41044931 -11.79148207 12.19303079 -14 14 C-14.33 13.01 -14.66 12.02 -15 11 C-14.08476562 10.37351562 -13.16953125 9.74703125 -12.2265625 9.1015625 C-11.02596568 8.27615218 -9.82544901 7.45062527 -8.625 6.625 C-7.72007812 6.00625 -7.72007812 6.00625 -6.796875 5.375 C-4.36217249 3.6977605 -2.09532229 2.09532229 0 0 Z " fill="#04916E" transform="translate(246,266)"/>
<path d="M0 0 C0.33 0 0.66 0 1 0 C1 3.3 1 6.6 1 10 C1.66 10 2.32 10 3 10 C4.33928571 18.03571429 4.33928571 18.03571429 2 22 C-0.01670288 14.56340812 -0.2137731 7.68395543 0 0 Z " fill="#DCFCF8" transform="translate(178,230)"/>
<path d="M0 0 C0.66 0.66 1.32 1.32 2 2 C1.78476665 7.59606702 0.27082508 10.67407006 -3 15 C-4.28497537 11.14507389 -3.4052209 9.59653164 -2.0625 5.8125 C-1.68222656 4.72582031 -1.30195313 3.63914063 -0.91015625 2.51953125 C-0.60980469 1.68808594 -0.30945313 0.85664063 0 0 Z " fill="#BDCFCB" transform="translate(290,232)"/>
<path d="M0 0 C1.17825358 0.90172468 2.34231577 1.82201502 3.5 2.75 C4.1496875 3.26046875 4.799375 3.7709375 5.46875 4.296875 C7 6 7 6 7 10 C7.99 10.33 8.98 10.66 10 11 C10 11.66 10 12.32 10 13 C8.68 12.67 7.36 12.34 6 12 C6 10.68 6 9.36 6 8 C4.68 7.67 3.36 7.34 2 7 C1.34 4.69 0.68 2.38 0 0 Z " fill="#24D4AA" transform="translate(198,262)"/>
<path d="M0 0 C0.66 0.33 1.32 0.66 2 1 C2 2.32 2 3.64 2 5 C0.03852126 6.38938077 -1.96166576 7.7260411 -4 9 C-4 9.66 -4 10.32 -4 11 C-5.32 11 -6.64 11 -8 11 C-6.96905133 8.42262834 -6.4891374 7.23715753 -3.9375 6 C-1.79292765 5.17855623 -1.79292765 5.17855623 -1.3125 2.9375 C-1.1578125 1.9784375 -1.1578125 1.9784375 -1 1 C-0.67 0.67 -0.34 0.34 0 0 Z " fill="#C2C4C6" transform="translate(278,260)"/>
<path d="M0 0 C0.66 0 1.32 0 2 0 C6.31960155 6.13104736 6.75690081 11.59762973 7 19 C5.14731313 16.22096969 4.39166552 14.34225139 3.5 11.1875 C2.41515181 7.42632581 1.26742219 3.70477256 0 0 Z " fill="#DCFCF8" transform="translate(266,120)"/>
<path d="M0 0 C0 4.99510223 -2.2824725 8.17484338 -5.5 11.875 C-8 14 -8 14 -11 14 C-7.37 9.38 -3.74 4.76 0 0 Z " fill="#035B48" transform="translate(238,248)"/>
<path d="M0 0 C1.65 1.32 3.3 2.64 5 4 C4.67 4.66 4.34 5.32 4 6 C3.01 5.67 2.02 5.34 1 5 C0.67 6.32 0.34 7.64 0 9 C-0.99 9 -1.98 9 -3 9 C-2.44271087 5.65626525 -1.64826111 2.96687001 0 0 Z " fill="#67FDDD" transform="translate(201,230)"/>
<path d="M0 0 C0 3.68553144 -0.8522582 5.03759752 -3 8 C-5.96240248 10.1477418 -7.31446856 11 -11 11 C-9.38405168 8.95880212 -7.7143618 6.95927063 -6 5 C-5.34 5 -4.68 5 -4 5 C-3.67 4.01 -3.34 3.02 -3 2 C-2.01 1.34 -1.02 0.68 0 0 Z " fill="#46CBA8" transform="translate(97,83)"/>
<path d="M0 0 C3.625 0.375 3.625 0.375 7 1 C7 1.99 7 2.98 7 4 C6.01 4.33 5.02 4.66 4 5 C4 4.34 4 3.68 4 3 C3.21625 3.495 2.4325 3.99 1.625 4.5 C-1 6 -1 6 -3 6 C-2.42655063 3.13275314 -2.1385485 2.1385485 0 0 Z " fill="#029A74" transform="translate(251,210)"/>
<path d="M0 0 C3 1 3 1 4 3 C5.32 2.34 6.64 1.68 8 1 C8 1.99 8 2.98 8 4 C1.25 7 1.25 7 -1 7 C-1.04254356 5.00045254 -1.04080783 2.99958364 -1 1 C-0.67 0.67 -0.34 0.34 0 0 Z " fill="#F0F8F8" transform="translate(281,176)"/>
<path d="M0 0 C2 1 2 1 3 3 C0.69 4.98 -1.62 6.96 -4 9 C-4.66 8.67 -5.32 8.34 -6 8 C-5.01 6.02 -4.02 4.04 -3 2 C-2.01 2 -1.02 2 0 2 C0 1.34 0 0.68 0 0 Z M-8 9 C-7.34 9.33 -6.68 9.66 -6 10 C-7.98 10.99 -7.98 10.99 -10 12 C-9.34 11.01 -8.68 10.02 -8 9 Z " fill="#D8D8D8" transform="translate(269,276)"/>
<path d="M0 0 C0.598125 0.165 1.19625 0.33 1.8125 0.5 C4.11344336 1.1114124 4.11344336 1.1114124 7 1 C7.99 1 8.98 1 10 1 C8.57140593 2.03325986 7.13177617 3.05127634 5.6875 4.0625 C4.48673828 4.91521484 4.48673828 4.91521484 3.26171875 5.78515625 C2.51535156 6.18605469 1.76898438 6.58695312 1 7 C0.01 6.67 -0.98 6.34 -2 6 C-1.34 4.02 -0.68 2.04 0 0 Z " fill="#20C69C" transform="translate(225,274)"/>
<path d="M0 0 C2.56857882 2.25288757 3.61591902 4.12598103 4.625 7.375 C4.87121094 8.16519531 5.11742187 8.95539063 5.37109375 9.76953125 C6.04591458 12.1628399 6.60393707 14.54440984 7 17 C5 16 5 16 4 13 C3.34 12.67 2.68 12.34 2 12 C0.73238238 7.70418473 0 4.49055702 0 0 Z " fill="#67ECCB" transform="translate(193,252)"/>
<path d="M0 0 C0.66 0.33 1.32 0.66 2 1 C2.625 3.5625 2.625 3.5625 3 6 C2.34 6 1.68 6 1 6 C1.99 8.97 2.98 11.94 4 15 C2.0625 14.0625 2.0625 14.0625 0 12 C-1.05261943 7.78166691 -1.37995672 4.13987017 0 0 Z " fill="#09AB82" transform="translate(196,248)"/>
<path d="M0 0 C0.33 0.66 0.66 1.32 1 2 C1.66 2.33 2.32 2.66 3 3 C2.67 3.66 2.34 4.32 2 5 C1.64386903 6.66194453 1.30791692 8.328451 1 10 C0.34 10 -0.32 10 -1 10 C-1.33 10.99 -1.66 11.98 -2 13 C-2.19294408 8.17639811 -1.75747614 4.50353262 0 0 Z " fill="#11B289" transform="translate(198,193)"/>
<path d="M0 0 C2.93200474 2.85276137 5.64315404 5.65079784 8 9 C6.35 9.33 4.7 9.66 3 10 C0.70366176 6.55549263 0.45983515 4.06187717 0 0 Z " fill="#24C096" transform="translate(195,241)"/>
<path d="M0 0 C0.6290625 0.26554688 1.258125 0.53109375 1.90625 0.8046875 C7.22911972 3.0011729 12.37897236 4.75088275 18 6 C17.34 6.66 16.68 7.32 16 8 C12.39599622 7.55355809 9.06879346 5.84437984 5.75 4.4375 C4.67234375 3.98246094 3.5946875 3.52742187 2.484375 3.05859375 C1.66453125 2.70925781 0.8446875 2.35992187 0 2 C0 1.34 0 0.68 0 0 Z " fill="#42C6A1" transform="translate(134,222)"/>
<path d="M0 0 C0.66 0 1.32 0 2 0 C0.44298069 4.67105792 -2.08447373 8.08705685 -5 12 C-5.66 11.67 -6.32 11.34 -7 11 C-6.67 9.68 -6.34 8.36 -6 7 C-5.34 7 -4.68 7 -4 7 C-3.71125 6.401875 -3.4225 5.80375 -3.125 5.1875 C-2 3 -2 3 0 0 Z " fill="#35C29D" transform="translate(225,216)"/>
<path d="M0 0 C0.66 0 1.32 0 2 0 C2 0.99 2 1.98 2 3 C2.99 3 3.98 3 5 3 C4.67 5.64 4.34 8.28 4 11 C3.67 10.34 3.34 9.68 3 9 C2.34 9 1.68 9 1 9 C0.67 6.03 0.34 3.06 0 0 Z " fill="#E9FBF9" transform="translate(273,139)"/>
<path d="M0 0 C0.66 0 1.32 0 2 0 C2.70180531 1.4096347 3.38593958 2.82807641 4.0625 4.25 C4.44535156 5.03890625 4.82820313 5.8278125 5.22265625 6.640625 C6.08564091 9.25993522 5.93045933 10.44855176 5 13 C4.67 11.35 4.34 9.7 4 8 C3.34 8 2.68 8 2 8 C2 7.34 2 6.68 2 6 C1.34 6 0.68 6 0 6 C0 4.02 0 2.04 0 0 Z " fill="#4FCFAD" transform="translate(265,122)"/>
<path d="M0 0 C6.71700347 -0.31985731 11.75726932 0.5206176 18 3 C18 3.33 18 3.66 18 4 C11.58518742 4.42765417 6.11404596 2.85743168 0 1 C0 0.67 0 0.34 0 0 Z " fill="#CAFAF1" transform="translate(171,100)"/>
<path d="M0 0 C2.12161334 2.12161334 2.92986249 3.7733159 4.125 6.5 C4.47820312 7.2940625 4.83140625 8.088125 5.1953125 8.90625 C6 11 6 11 6 13 C6.66 13 7.32 13 8 13 C8 13.99 8 14.98 8 16 C5 15 5 15 3.61328125 12.3828125 C2.96939453 10.77019531 2.96939453 10.77019531 2.3125 9.125 C1.87550781 8.05507813 1.43851563 6.98515625 0.98828125 5.8828125 C0 3 0 3 0 0 Z " fill="#E5FEFC" transform="translate(181,253)"/>
<path d="M0 0 C0.66 0 1.32 0 2 0 C2.99 2.97 3.98 5.94 5 9 C3.35 9.33 1.7 9.66 0 10 C-0.19412181 8.52168779 -0.38012131 7.04230684 -0.5625 5.5625 C-0.66691406 4.73878906 -0.77132813 3.91507813 -0.87890625 3.06640625 C-0.91886719 2.38449219 -0.95882813 1.70257813 -1 1 C-0.67 0.67 -0.34 0.34 0 0 Z " fill="#EAF3F4" transform="translate(299,182)"/>
<path d="M0 0 C1.32 0.33 2.64 0.66 4 1 C4.33 2.32 4.66 3.64 5 5 C6.32 5.33 7.64 5.66 9 6 C9.33 7.65 9.66 9.3 10 11 C8 11 8 11 5.5625 8.875 C3.03273402 6.03672597 1.52887915 3.46009491 0 0 Z " fill="#47E6C0" transform="translate(200,269)"/>
<path d="M0 0 C0.33 1.32 0.66 2.64 1 4 C0.01 4.33 -0.98 4.66 -2 5 C-2 5.66 -2 6.32 -2 7 C-6.62 7 -11.24 7 -16 7 C-16 6.67 -16 6.34 -16 6 C-14.77023438 5.97873047 -14.77023438 5.97873047 -13.515625 5.95703125 C-6.75112142 5.87633858 -6.75112142 5.87633858 -1.25 2.4375 C-0.8375 1.633125 -0.425 0.82875 0 0 Z " fill="#D1F9F4" transform="translate(112,130)"/>
<path d="M0 0 C1 3 1 3 0.4375 5.5 C-1.45183345 8.7857973 -3.55947594 9.57891398 -7 11 C-5.5140084 6.40693504 -3.14985318 3.56430755 0 0 Z " fill="#42CAA7" transform="translate(85,95)"/>
<path d="M0 0 C0.33 0 0.66 0 1 0 C1.08142927 1.7492214 1.13938541 3.49954542 1.1875 5.25 C1.23970703 6.71179688 1.23970703 6.71179688 1.29296875 8.203125 C0.96075202 11.37468742 0.11327721 12.67040307 -2 15 C-2.19392201 9.47322267 -1.7479503 5.24385089 0 0 Z " fill="#CCD0D2" transform="translate(297,213)"/>
<path d="M0 0 C-3.65214303 2.47056734 -6.59532582 3.60847341 -11 4 C-11.66 3.67 -12.32 3.34 -13 3 C-13 2.34 -13 1.68 -13 1 C-11.39796533 0.63631108 -9.79325797 0.28438048 -8.1875 -0.0625 C-7.29417969 -0.25972656 -6.40085938 -0.45695313 -5.48046875 -0.66015625 C-3 -1 -3 -1 0 0 Z " fill="#B8EEE3" transform="translate(235,184)"/>
<path d="M0 0 C0.99 0.33 1.98 0.66 3 1 C2.0919838 2.13199353 1.17316174 3.25532363 0.25 4.375 C-0.26046875 5.00148438 -0.7709375 5.62796875 -1.296875 6.2734375 C-3.08199481 8.08312318 -4.67949644 9.00117455 -7 10 C-7.33 9.34 -7.66 8.68 -8 8 C-6.68 7.67 -5.36 7.34 -4 7 C-4 5.68 -4 4.36 -4 3 C-3.01 2.67 -2.02 2.34 -1 2 C-0.67 1.34 -0.34 0.68 0 0 Z " fill="#D6FBF6" transform="translate(96,80)"/>
<path d="M0 0 C0.33 0.66 0.66 1.32 1 2 C0.14453125 4.12890625 0.14453125 4.12890625 -1.1875 6.5625 C-1.61417969 7.36816406 -2.04085937 8.17382812 -2.48046875 9.00390625 C-4 11 -4 11 -6.17578125 11.77734375 C-7.07876953 11.88755859 -7.07876953 11.88755859 -8 12 C-8 11.34 -8 10.68 -8 10 C-7.34 10 -6.68 10 -6 10 C-5.7525 9.46375 -5.505 8.9275 -5.25 8.375 C-3.70303025 5.43575748 -1.86985631 2.74245592 0 0 Z " fill="#14BA91" transform="translate(229,238)"/>
<path d="M0 0 C0.33 0 0.66 0 1 0 C0.88544319 1.91731918 0.75793742 3.8338675 0.625 5.75 C0.55539063 6.81734375 0.48578125 7.8846875 0.4140625 8.984375 C0 12 0 12 -2 16 C-2 12.04 -2 8.08 -2 4 C-1.34 4 -0.68 4 0 4 C0 2.68 0 1.36 0 0 Z " fill="#AAF0E0" transform="translate(192,196)"/>
<path d="M0 0 C4.02550319 1.3418344 4.88285636 3.4227573 7 7 C7 7.66 7 8.32 7 9 C5 9 5 9 3.5 7.5625 C3.005 7.046875 2.51 6.53125 2 6 C1.34 5.67 0.68 5.34 0 5 C0 3.35 0 1.7 0 0 Z " fill="#CFF8F1" transform="translate(216,123)"/>
<path d="M0 0 C0.99 0.66 1.98 1.32 3 2 C0.88229834 4.32947183 -1.03335588 5.88750845 -4 7 C-4.99 6.67 -5.98 6.34 -7 6 C-4.69 4.02 -2.38 2.04 0 0 Z " fill="#A6C9C0" transform="translate(266,271)"/>
<path d="M0 0 C0.33 0 0.66 0 1 0 C3.67857143 9.10714286 3.67857143 9.10714286 4 12 C3.01 13.485 3.01 13.485 2 15 C-0.10428384 9.87080814 -0.21755666 5.4389165 0 0 Z " fill="#EBF1F2" transform="translate(188,243)"/>
<path d="M0 0 C0.99 0 1.98 0 3 0 C4.33333333 2.66666667 5.66666667 5.33333333 7 8 C3.76912579 7.44295272 1.97638863 6.66812465 0 4 C0 2.68 0 1.36 0 0 Z " fill="#BEFAF2" transform="translate(193,235)"/>
<path d="M0 0 C0.66 0 1.32 0 2 0 C0.68938409 4.23429756 -0.94356259 8.07407404 -3 12 C-3.66 12 -4.32 12 -5 12 C-4.35550393 8.98782888 -3.34977818 6.48344164 -1.9375 3.75 C-1.57527344 3.04359375 -1.21304687 2.3371875 -0.83984375 1.609375 C-0.56269531 1.07828125 -0.28554688 0.5471875 0 0 Z " fill="#1AB08C" transform="translate(270,232)"/>
<path d="M0 0 C0.66 0 1.32 0 2 0 C1.44271087 3.34373475 0.64826111 6.03312999 -1 9 C-2.32 7.68 -3.64 6.36 -5 5 C-4.01 4.67 -3.02 4.34 -2 4 C-0.79117904 1.99983534 -0.79117904 1.99983534 0 0 Z " fill="#32CBA2" transform="translate(92,232)"/>
<path d="M0 0 C0.99 0 1.98 0 3 0 C1.44499019 3.81684226 -1.03595495 6.19195732 -4 9 C-4 7.35 -4 5.7 -4 4 C-2.68 3.67 -1.36 3.34 0 3 C0 2.01 0 1.02 0 0 Z " fill="#2DB994" transform="translate(197,226)"/>
<path d="M0 0 C0.33 0 0.66 0 1 0 C1.33 3.3 1.66 6.6 2 10 C1.67 9.34 1.34 8.68 1 8 C0.34 8 -0.32 8 -1 8 C-1.33 8.99 -1.66 9.98 -2 11 C-3.13643966 7.59068103 -2.86747764 6.99664544 -1.5625 3.8125 C-1.13130859 2.73935547 -1.13130859 2.73935547 -0.69140625 1.64453125 C-0.46324219 1.10183594 -0.23507812 0.55914062 0 0 Z " fill="#03906F" transform="translate(277,218)"/>
<path d="M0 0 C1.32 0 2.64 0 4 0 C4 0.66 4 1.32 4 2 C5.65 2 7.3 2 9 2 C9.33 3.65 9.66 5.3 10 7 C5.56541027 5.6062718 3.12621626 3.39417765 0 0 Z " fill="#C1F6EA" transform="translate(124,214)"/>
<path d="M0 0 C3.94120709 0.56302958 6.7508723 1.6791945 10 4 C10 4.66 10 5.32 10 6 C7.03 5.505 7.03 5.505 4 5 C3.67 4.01 3.34 3.02 3 2 C2.01 1.67 1.02 1.34 0 1 C0 0.67 0 0.34 0 0 Z " fill="#AEFAEA" transform="translate(202,182)"/>
<path d="M0 0 C0.99 0 1.98 0 3 0 C3 1.98 3 3.96 3 6 C2.34 6 1.68 6 1 6 C0.67 6.66 0.34 7.32 0 8 C-0.66 7.67 -1.32 7.34 -2 7 C-2.125 4.625 -2.125 4.625 -2 2 C-1.34 1.34 -0.68 0.68 0 0 Z " fill="#F7F5F8" transform="translate(50,176)"/>
<path d="M0 0 C0.33 0.66 0.66 1.32 1 2 C-0.93254772 4.0245738 -2.63158688 5.42105792 -5 7 C-7.1875 6.625 -7.1875 6.625 -9 6 C-6.45543849 3.03134491 -3.51005335 1.6380249 0 0 Z " fill="#05906E" transform="translate(229,278)"/>
<path d="M0 0 C2.38672669 2.96283313 4.7353371 5.94270509 7 9 C6.34 10.32 5.68 11.64 5 13 C4.566875 11.9275 4.13375 10.855 3.6875 9.75 C2.44678487 6.83727354 1.04929621 4.43963834 -1 2 C-0.67 1.34 -0.34 0.68 0 0 Z " fill="#75FDE3" transform="translate(205,225)"/>
<path d="M0 0 C-2.34109882 1.56073255 -4.56333403 2.86373867 -7.0625 4.125 C-8.10083984 4.65480469 -8.10083984 4.65480469 -9.16015625 5.1953125 C-11 6 -11 6 -13 6 C-13 5.34 -13 4.68 -13 4 C-12.01 4 -11.02 4 -10 4 C-10 3.34 -10 2.68 -10 2 C-6.49223216 0.39644899 -3.85645121 -0.22036864 0 0 Z " fill="#C9FAF0" transform="translate(128,64)"/>
<path d="M0 0 C0.66 0.99 1.32 1.98 2 3 C1.125 5.6875 1.125 5.6875 0 8 C-0.99 7.34 -1.98 6.68 -3 6 C-1.125 1.125 -1.125 1.125 0 0 Z " fill="#1DBA8E" transform="translate(217,224)"/>
<path d="M0 0 C0 1.98 0 3.96 0 6 C-1.98 6.99 -1.98 6.99 -4 8 C-3.74438677 5.6568787 -3.40729228 3.32156597 -3 1 C-1 0 -1 0 0 0 Z " fill="#DAE1DD" transform="translate(302,218)"/>
<path d="M0 0 C1.32 0 2.64 0 4 0 C3.67 2.64 3.34 5.28 3 8 C2.566875 7.0409375 2.566875 7.0409375 2.125 6.0625 C1.17176549 3.84793921 1.17176549 3.84793921 -1 3 C-0.67 2.01 -0.34 1.02 0 0 Z " fill="#0EB98F" transform="translate(274,208)"/>
<path d="M0 0 C3 3 3 3 3.1875 6.6875 C3.125625 7.780625 3.06375 8.87375 3 10 C1.68 10 0.36 10 -1 10 C-0.67 6.7 -0.34 3.4 0 0 Z " fill="#199173" transform="translate(193,196)"/>
<path d="M0 0 C1.875 0.125 1.875 0.125 4 1 C5.25 4.0625 5.25 4.0625 6 7 C3.04590299 5.62845496 0.55991624 4.01136276 -2 2 C-1.34 2 -0.68 2 0 2 C0 1.34 0 0.68 0 0 Z " fill="#E4FAF8" transform="translate(292,176)"/>
<path d="M0 0 C1.65 0.33 3.3 0.66 5 1 C5 2.32 5 3.64 5 5 C2.525 4.01 2.525 4.01 0 3 C0 2.01 0 1.02 0 0 Z " fill="#C0D2CC" transform="translate(221,292)"/>
<path d="M0 0 C0.33 0.99 0.66 1.98 1 3 C-4.75 8 -4.75 8 -7 8 C-7 7.34 -7 6.68 -7 6 C-5.46875 4.4921875 -5.46875 4.4921875 -3.5 2.875 C-2.8503125 2.33617187 -2.200625 1.79734375 -1.53125 1.2421875 C-1.0259375 0.83226562 -0.520625 0.42234375 0 0 Z " fill="#036E54" transform="translate(239,277)"/>
<path d="M0 0 C0.33 0.99 0.66 1.98 1 3 C-0.14453125 5.04296875 -0.14453125 5.04296875 -1.8125 7.1875 C-2.62654297 8.26064453 -2.62654297 8.26064453 -3.45703125 9.35546875 C-3.96621094 9.89816406 -4.47539062 10.44085938 -5 11 C-5.66 11 -6.32 11 -7 11 C-5.22054913 6.95579349 -2.60470327 3.53921513 0 0 Z " fill="#18AE8A" transform="translate(264,244)"/>
<path d="M0 0 C0.66 0.66 1.32 1.32 2 2 C1.34 3.32 0.68 4.64 0 6 C-0.66 6 -1.32 6 -2 6 C-2.33 6.99 -2.66 7.98 -3 9 C-3.33 8.01 -3.66 7.02 -4 6 C-2.84338843 3.79192337 -1.77322566 1.77322566 0 0 Z " fill="#06795E" transform="translate(232,244)"/>
<path d="M0 0 C1.77174819 0.08723378 3.54247377 0.19541655 5.3125 0.3125 C6.29863281 0.37050781 7.28476563 0.42851562 8.30078125 0.48828125 C11.24384457 1.04622813 12.18182999 1.68540132 14 4 C9.13103697 3.40380045 4.67209049 2.43023178 0 1 C0 0.67 0 0.34 0 0 Z " fill="#C9FBF3" transform="translate(142,225)"/>
<path d="M0 0 C2.5 1.8125 2.5 1.8125 5 4 C5 4.99 5 5.98 5 7 C3.35 7 1.7 7 0 7 C0 4.69 0 2.38 0 0 Z " fill="#E6E5E6" transform="translate(200,274)"/>
<path d="M0 0 C0.66 0 1.32 0 2 0 C2 1.32 2 2.64 2 4 C1.34 4 0.68 4 0 4 C0 4.99 0 5.98 0 7 C-0.99 6.67 -1.98 6.34 -3 6 C-2.67 4.68 -2.34 3.36 -2 2 C-1.34 2 -0.68 2 0 2 C0 1.34 0 0.68 0 0 Z " fill="#003F30" transform="translate(242,236)"/>
<path d="M0 0 C0.66 0.33 1.32 0.66 2 1 C0.6875 3.9375 0.6875 3.9375 -1 7 C-1.99 7.33 -2.98 7.66 -4 8 C-4 6.68 -4 5.36 -4 4 C-3.34 4 -2.68 4 -2 4 C-1.34 2.68 -0.68 1.36 0 0 Z " fill="#64FAD5" transform="translate(244,212)"/>
<path d="M0 0 C0.33 0 0.66 0 1 0 C1 2.64 1 5.28 1 8 C0.34 8 -0.32 8 -1 8 C-1.33 8.99 -1.66 9.98 -2 11 C-1.85957123 9.35369672 -1.71250671 7.70795821 -1.5625 6.0625 C-1.48128906 5.14597656 -1.40007812 4.22945312 -1.31640625 3.28515625 C-1 1 -1 1 0 0 Z " fill="#037759" transform="translate(196,191)"/>
<path d="M0 0 C1.32 0 2.64 0 4 0 C3.67 2.64 3.34 5.28 3 8 C2.34 8 1.68 8 1 8 C-0.35439668 5.29120665 -0.06501451 2.99066732 0 0 Z " fill="#BBE9E2" transform="translate(192,188)"/>
<path d="M0 0 C3 1 3 1 4.1875 3.0625 C4.455625 3.701875 4.72375 4.34125 5 5 C3.02 5.33 1.04 5.66 -1 6 C-1.042721 4.33388095 -1.04063832 2.66617115 -1 1 C-0.67 0.67 -0.34 0.34 0 0 Z " fill="#E0E1E1" transform="translate(217,291)"/>
<path d="M0 0 C0.33 0.99 0.66 1.98 1 3 C0.01 3.66 -0.98 4.32 -2 5 C-3.20450304 7.55183404 -3.20450304 7.55183404 -4 10 C-4.66 8.68 -5.32 7.36 -6 6 C-4 3 -4 3 -1 2 C-0.67 1.34 -0.34 0.68 0 0 Z " fill="#067057" transform="translate(227,253)"/>
<path d="M0 0 C0.928125 0.5259375 0.928125 0.5259375 1.875 1.0625 C2.57625 1.371875 3.2775 1.68125 4 2 C4.66 1.67 5.32 1.34 6 1 C6 1.99 6 2.98 6 4 C2.71023192 5.09658936 1.28696233 4.79953138 -2 4 C-1.34 2.68 -0.68 1.36 0 0 Z " fill="#DBDBDA" transform="translate(293,236)"/>
<path d="M0 0 C0.33 0.99 0.66 1.98 1 3 C-1.33333333 5.33333333 -3.66666667 7.66666667 -6 10 C-5.30058404 6.85262818 -4.23921302 3.97411124 -3 1 C-2.01 1.33 -1.02 1.66 0 2 C0 1.34 0 0.68 0 0 Z " fill="#40F0C2" transform="translate(251,206)"/>
<path d="M0 0 C0.99 0 1.98 0 3 0 C3 0.99 3 1.98 3 3 C2.34 3 1.68 3 1 3 C0.67 3.99 0.34 4.98 0 6 C-0.99 5.34 -1.98 4.68 -3 4 C-1.6875 2 -1.6875 2 0 0 Z " fill="#F5F3F4" transform="translate(193,267)"/>
<path d="M0 0 C0.33 0.99 0.66 1.98 1 3 C-0.32 4.32 -1.64 5.64 -3 7 C-3.33 5.68 -3.66 4.36 -4 3 C-2.68 2.01 -1.36 1.02 0 0 Z " fill="#DCDFDD" transform="translate(283,263)"/>
<path d="M0 0 C1.48828125 1.14453125 1.48828125 1.14453125 3 3 C3.29296875 5.69921875 3.29296875 5.69921875 3.1875 8.6875 C3.16042969 9.68136719 3.13335937 10.67523438 3.10546875 11.69921875 C3.07066406 12.45847656 3.03585938 13.21773437 3 14 C2.67 14 2.34 14 2 14 C2 11.03 2 8.06 2 5 C1.34 5 0.68 5 0 5 C0 3.35 0 1.7 0 0 Z " fill="#CCF4ED" transform="translate(187,235)"/>
<path d="M0 0 C1.46132217 2.92264434 2.34099246 4.92463146 3 8 C1.68 8.33 0.36 8.66 -1 9 C-0.67 6.03 -0.34 3.06 0 0 Z " fill="#059675" transform="translate(281,200)"/>
<path d="M0 0 C2 0.25 2 0.25 4 1 C4.33 1.99 4.66 2.98 5 4 C4.34 4.66 3.68 5.32 3 6 C1.68 4.35 0.36 2.7 -1 1 C-0.67 0.67 -0.34 0.34 0 0 Z " fill="#17C79A" transform="translate(253,200)"/>
<path d="M0 0 C1.32 0 2.64 0 4 0 C4 0.99 4 1.98 4 3 C3.67 3.33 3.34 3.66 3 4 C3 4.99 3 5.98 3 7 C2.34 6.67 1.68 6.34 1 6 C0.375 2.9375 0.375 2.9375 0 0 Z " fill="#06926F" transform="translate(284,187)"/>
<path d="M0 0 C2.5625 0.125 2.5625 0.125 5 1 C5.66 1.99 6.32 2.98 7 4 C3.7 3.67 0.4 3.34 -3 3 C-2.01 2.01 -1.02 1.02 0 0 Z " fill="#62C1A9" transform="translate(289,179)"/>
<path d="M0 0 C2.00773956 2.00773956 2.99392854 3.36873617 4 6 C3.625 8.25 3.625 8.25 3 10 C3 9.34 3 8.68 3 8 C2.34 8 1.68 8 1 8 C-0.35439668 5.29120665 -0.06501451 2.99066732 0 0 Z " fill="#D9FBF5" transform="translate(226,138)"/>
<path d="M0 0 C0.33 0 0.66 0 1 0 C1 1.65 1 3.3 1 5 C-0.32 5.33 -1.64 5.66 -3 6 C-3 6.66 -3 7.32 -3 8 C-3.66 8 -4.32 8 -5 8 C-3.6299034 5.0490227 -2.06764583 2.51713405 0 0 Z " fill="#C2F6EC" transform="translate(119,120)"/>
<path d="M0 0 C3.25 -0.25 3.25 -0.25 7 0 C8.32 1.32 9.64 2.64 11 4 C7.37 3.01 3.74 2.02 0 1 C0 0.67 0 0.34 0 0 Z " fill="#C6F9EE" transform="translate(192,59)"/>
<path d="M0 0 C-0.66 0 -1.32 0 -2 0 C-2 0.66 -2 1.32 -2 2 C-4.875 2.625 -4.875 2.625 -8 3 C-8.66 2.34 -9.32 1.68 -10 1 C-3.71428571 -1.42857143 -3.71428571 -1.42857143 0 0 Z " fill="#BACAC5" transform="translate(238,294)"/>
<path d="M0 0 C0 0.66 0 1.32 0 2 C-5.75 5 -5.75 5 -8 5 C-8 4.34 -8 3.68 -8 3 C-5.09451118 0.95830515 -3.59857954 0 0 0 Z " fill="#044634" transform="translate(232,288)"/>
<path d="M0 0 C2.475 0.495 2.475 0.495 5 1 C4.34 2.32 3.68 3.64 3 5 C2.34 5 1.68 5 1 5 C0.67 3.35 0.34 1.7 0 0 Z " fill="#086F52" transform="translate(256,273)"/>
<path d="M0 0 C0.33 0.66 0.66 1.32 1 2 C0.06553465 4.03144641 -0.93224776 6.03533587 -2 8 C-2.99 8 -3.98 8 -5 8 C-5 7.34 -5 6.68 -5 6 C-4.34 6 -3.68 6 -3 6 C-2.690625 5.195625 -2.38125 4.39125 -2.0625 3.5625 C-1 1 -1 1 0 0 Z " fill="#014C3B" transform="translate(235,244)"/>
<path d="M0 0 C2.64 0.33 5.28 0.66 8 1 C8 1.99 8 2.98 8 4 C5.64828869 3.40138258 3.3140622 2.73075648 1 2 C0.67 1.34 0.34 0.68 0 0 Z " fill="#CAFAF1" transform="translate(134,221)"/>
<path d="M0 0 C0.33 0.99 0.66 1.98 1 3 C2.32303717 3.3721042 3.65737935 3.70630173 5 4 C5.33 4.66 5.66 5.32 6 6 C1.25 5.125 1.25 5.125 -1 4 C-0.67 2.68 -0.34 1.36 0 0 Z " fill="#2ACCA2" transform="translate(198,183)"/>
<path d="M0 0 C0.66 0 1.32 0 2 0 C2.33 0.99 2.66 1.98 3 3 C2.34 3 1.68 3 1 3 C1 3.66 1 4.32 1 5 C-0.65 5 -2.3 5 -4 5 C-3.34 4.67 -2.68 4.34 -2 4 C-0.86649466 1.98330173 -0.86649466 1.98330173 0 0 Z " fill="#077958" transform="translate(238,181)"/>
<path d="M0 0 C0.33 0.66 0.66 1.32 1 2 C2.64363134 2.72159424 4.31050386 3.39351421 6 4 C5.67 4.66 5.34 5.32 5 6 C2.525 5.01 2.525 5.01 0 4 C0 2.68 0 1.36 0 0 Z " fill="#20D8A7" transform="translate(210,277)"/>
<path d="M0 0 C1 3 1 3 0 6 C-1.65 5.67 -3.3 5.34 -5 5 C-5 4.34 -5 3.68 -5 3 C-4.360625 2.87625 -3.72125 2.7525 -3.0625 2.625 C-2.0415625 2.315625 -2.0415625 2.315625 -1 2 C-0.67 1.34 -0.34 0.68 0 0 Z " fill="#6BFCDB" transform="translate(217,237)"/>
<path d="M0 0 C0.66 0.99 1.32 1.98 2 3 C-0.75 8.875 -0.75 8.875 -3 10 C-2.01 6.7 -1.02 3.4 0 0 Z " fill="#89CCBB" transform="translate(290,232)"/>
<path d="M0 0 C-3.83325617 2.70582788 -6.32538149 3.32613618 -11 3 C-9.68 2.67 -8.36 2.34 -7 2 C-7 1.34 -7 0.68 -7 0 C-2.25 -1.125 -2.25 -1.125 0 0 Z " fill="#27A884" transform="translate(279,187)"/>
<path d="M0 0 C0.33 0.66 0.66 1.32 1 2 C-0.32 1.67 -1.64 1.34 -3 1 C-3.33 1.66 -3.66 2.32 -4 3 C-4.99 2.67 -5.98 2.34 -7 2 C-7 1.34 -7 0.68 -7 0 C-4.30234372 -1.34882814 -2.84835666 -0.80338265 0 0 Z " fill="#52D8B6" transform="translate(248,177)"/>
<path d="M0 0 C4.455 0.99 4.455 0.99 9 2 C9 2.99 9 3.98 9 5 C5.9168649 3.80100302 2.93720508 2.52299523 0 1 C0 0.67 0 0.34 0 0 Z " fill="#50CEAA" transform="translate(194,105)"/>
<path d="M0 0 C2.35171131 0.59861742 4.6859378 1.26924352 7 2 C7.33 2.66 7.66 3.32 8 4 C5.69 4 3.38 4 1 4 C0.67 2.68 0.34 1.36 0 0 Z " fill="#4CD0AA" transform="translate(208,65)"/>
</svg>
