<?xml version="1.0" encoding="UTF-8"?>
<svg version="1.1" xmlns="http://www.w3.org/2000/svg" width="504" height="396">
<path d="M0 0 C166.32 0 332.64 0 504 0 C504 130.68 504 261.36 504 396 C337.68 396 171.36 396 0 396 C0 265.32 0 134.64 0 0 Z " fill="#FEFEFE" transform="translate(0,0)"/>
<path d="M0 0 C1.34287129 0.68913606 2.69495276 1.36123059 4.0625 2 C10.20167995 5.03023626 16.07820752 8.5700978 22 12 C22.81194824 12.47018555 23.62389648 12.94037109 24.46044922 13.42480469 C25.74653076 14.16972168 25.74653076 14.16972168 27.05859375 14.9296875 C27.91864014 15.42782959 28.77868652 15.92597168 29.66479492 16.43920898 C31.36989547 17.42742337 33.07449691 18.41649951 34.77856445 19.40649414 C35.55804443 19.85887451 36.33752441 20.31125488 37.140625 20.77734375 C37.83704102 21.18202881 38.53345703 21.58671387 39.25097656 22.00366211 C40.4811792 22.70445175 41.73366525 23.36683262 43 24 C43 24.66 43 25.32 43 26 C43.71929687 26.24234375 44.43859375 26.4846875 45.1796875 26.734375 C48.38140164 28.17115531 50.51865861 29.90668389 53.125 32.25 C54.39730469 33.37148437 54.39730469 33.37148437 55.6953125 34.515625 C59.3760643 38.48335067 61 41.56627343 61 47 C59.71484375 48.421875 59.71484375 48.421875 57.9375 49.75 C54.38295839 52.58353926 51.50575236 55.69996157 48.578125 59.16796875 C47.10950481 60.87287684 45.68367479 62.50596989 44 64 C43.34 64 42.68 64 42 64 C41.6596875 64.8353125 41.6596875 64.8353125 41.3125 65.6875 C39.6296426 68.65253447 37.46378626 70.65353689 35 73 C34.278125 73.763125 33.55625 74.52625 32.8125 75.3125 C31 77 31 77 29 77 C29 77.66 29 78.32 29 79 C27.34997172 80.35386936 25.6825613 81.68678142 24 83 C23.67 83.66 23.34 84.32 23 85 C22.34 85 21.68 85 21 85 C20.62875 85.86625 20.62875 85.86625 20.25 86.75 C18.81700012 89.32939979 17.21575324 91.06121592 15 93 C14.34 93 13.68 93 13 93 C12.773125 93.556875 12.54625 94.11375 12.3125 94.6875 C10.62632969 97.65837149 8.44612884 99.60822958 6 102 C4.86890132 103.3281636 3.7442963 104.66187498 2.625 106 C0.30952619 108.69630832 -1.93402098 110.81769661 -4.875 112.8125 C-8.23072877 114.6991081 -8.23072877 114.6991081 -9 118 C-10.70703125 119.71875 -10.70703125 119.71875 -12.8125 121.5 C-13.49957031 122.0878125 -14.18664062 122.675625 -14.89453125 123.28125 C-20.5496063 127.8976378 -20.5496063 127.8976378 -23.75 128.625 C-32.25470043 126.98948069 -39.52384287 116.5620772 -45.375 110.625 C-47.1513414 108.82324599 -48.92987339 107.02364817 -50.7109375 105.2265625 C-51.48743652 104.43846191 -52.26393555 103.65036133 -53.06396484 102.83837891 C-54.87225957 100.94237659 -54.87225957 100.94237659 -57 100 C-57.23332031 100.5671875 -57.46664062 101.134375 -57.70703125 101.71875 C-59.8065892 105.42310603 -63.07068465 107.93978201 -66.19921875 110.78125 C-68.23960489 112.77124921 -68.23960489 112.77124921 -67.84008789 114.89282227 C-66.78552821 117.53795582 -65.39521439 118.94512771 -63.359375 120.93359375 C-62.24755859 122.0309082 -62.24755859 122.0309082 -61.11328125 123.15039062 C-60.33339844 123.90513672 -59.55351562 124.65988281 -58.75 125.4375 C-57.98558594 126.18837891 -57.22117188 126.93925781 -56.43359375 127.71289062 C-54.94915351 129.17041096 -53.46161786 130.62478676 -51.97070312 132.07568359 C-50.38830073 133.62083915 -48.82393956 135.18446088 -47.265625 136.75390625 C-44.07592423 139.9161096 -40.7142703 142.86790239 -37.3515625 145.84375 C-35 148 -35 148 -32.375 151 C-29.5772421 153.35600665 -27.7079787 153.78375639 -24.16015625 154.25 C-17.28307767 153.4540994 -12.85872892 148.25924203 -8.28222656 143.59106445 C-7.53353806 142.83960144 -6.78484955 142.08813843 -6.01347351 141.31390381 C-3.54894593 138.83712424 -1.0950031 136.35011512 1.359375 133.86328125 C3.07156606 132.14041323 4.78457009 130.41835278 6.49835205 128.69706726 C11.00178738 124.17086738 15.49700327 119.63660289 19.98968506 115.09973145 C27.19365956 107.82550924 34.40520797 100.55886391 41.62586212 93.30119896 C44.15083014 90.75946584 46.66931726 88.21143169 49.18743896 85.66291809 C50.72463305 84.11526994 52.26207461 82.56786754 53.79980469 81.02075195 C54.50319473 80.30545822 55.20658478 79.59016449 55.93128967 78.85319519 C56.5732579 78.20964081 57.21522614 77.56608643 57.87664795 76.9030304 C58.43483593 76.33910237 58.99302391 75.77517435 59.56812668 75.1941576 C61 74 61 74 63 74 C63.07671463 80.47371743 63.12887575 86.94731557 63.16479492 93.42138672 C63.1797854 95.61902243 63.20018466 97.81662871 63.22631836 100.01416016 C63.57388712 130.01411494 63.57388712 130.01411494 55.82421875 139.15234375 C49.5397066 145.5175991 42.25171456 150.24370261 34.6875 154.9375 C33.91051758 155.42259033 33.13353516 155.90768066 32.33300781 156.4074707 C28.60152723 158.67047735 25.44138825 160.58334282 21 161 C21 161.66 21 162.32 21 163 C16.75329414 165.26861871 12.50490007 167.53403748 8.25537109 169.79736328 C5.96716288 171.01750981 3.68083242 172.24112826 1.39453125 173.46484375 C-0.11191194 174.26835522 -1.61842082 175.07174354 -3.125 175.875 C-3.83454834 176.2558374 -4.54409668 176.6366748 -5.27514648 177.02905273 C-14.36693978 181.86635997 -22.69950081 183.74151418 -33 182 C-38.09331364 180.34268792 -42.68955028 177.68825111 -47.29150391 174.98681641 C-49.51405223 173.70308672 -51.80710225 172.60033971 -54.125 171.5 C-59.57503165 168.78428457 -64.82577831 165.72105221 -70.09375 162.671875 C-71.70791811 161.74329442 -73.33439487 160.83280257 -75 160 C-75 159.34 -75 158.68 -75 158 C-75.804375 157.8453125 -75.804375 157.8453125 -76.625 157.6875 C-79.62502044 156.81907303 -82.2379535 155.44379704 -85 154 C-85 153.34 -85 152.68 -85 152 C-85.73089844 151.90589844 -86.46179688 151.81179687 -87.21484375 151.71484375 C-90.41729037 150.89289742 -92.04027962 149.67239218 -94.5625 147.5625 C-96.73242081 145.76112727 -98.65120711 144.17314629 -101.1796875 142.91796875 C-103.87483474 141.55882798 -104.61898532 139.64194113 -106 137 C-106.5775 136.01 -107.155 135.02 -107.75 134 C-109.20529638 130.50728868 -109.19647266 129.53108508 -108 126 C-106.32654983 123.98689277 -104.70488479 122.23740179 -102.828125 120.4375 C-102.30869324 119.92372803 -101.78926147 119.40995605 -101.25408936 118.88061523 C-99.5952433 117.24408103 -97.923063 115.62198447 -96.25 114 C-95.13970707 112.90978822 -94.03032198 111.81865105 -92.921875 110.7265625 C-90.87178644 108.70903692 -88.81646857 106.69717934 -86.75488281 104.69140625 C-84.15013238 102.14667311 -81.57000267 99.5797663 -79 97 C-68 86 -68 86 -65.82104492 83.82324219 C-62.97747166 80.97745412 -60.13885462 78.12679735 -57.30097961 75.27532959 C-54.27121923 72.23221318 -51.23883037 69.19172179 -48.20629883 66.15136719 C-46.60417492 64.54417792 -45.00294436 62.93609764 -43.40258789 61.32714844 C-41.08973393 59.00222 -38.77371393 56.68048752 -36.45703125 54.359375 C-35.7393306 53.63651306 -35.02162994 52.91365112 -34.28218079 52.16888428 C-33.61776474 51.5043927 -32.95334869 50.83990112 -32.26879883 50.15527344 C-31.68431473 49.56856873 -31.09983063 48.98186401 -30.49763489 48.37738037 C-28.35969346 46.41110769 -27.0994633 46.01326177 -24.1875 45.625 C-19.92175974 46.1268518 -18.80430505 47.83616866 -16 51 C-15.175 51.66 -14.35 52.32 -13.5 53 C-8.91372309 56.66902153 -5.14075702 60.9257259 -1.4296875 65.44921875 C0.11481807 67.24681775 0.11481807 67.24681775 3 69 C3 69.66 3 70.32 3 71 C4.485 71.495 4.485 71.495 6 72 C6 72.66 6 73.32 6 74 C9.88641583 70.83663828 13.49877576 67.59585192 17 64 C18 63 19 62 20 61 C18.63059043 57.93147163 17.07330804 55.82465962 14.69946289 53.45654297 C14.02859146 52.78259491 13.35772003 52.10864685 12.66651917 51.41427612 C11.9425444 50.69748688 11.21856964 49.98069763 10.47265625 49.2421875 C9.35557533 48.12579391 9.35557533 48.12579391 8.21592712 46.98684692 C6.64216612 45.41610416 5.06597823 43.84778973 3.48754883 42.28173828 C1.06990667 39.88235074 -1.3396395 37.47505956 -3.74804688 35.06640625 C-5.27817474 33.54119391 -6.80875842 32.01643869 -8.33984375 30.4921875 C-9.06179428 29.77134979 -9.78374481 29.05051208 -10.52757263 28.30783081 C-11.20159622 27.64018707 -11.87561981 26.97254333 -12.57006836 26.28466797 C-13.16138046 25.69716766 -13.75269257 25.10966736 -14.36192322 24.50436401 C-18.21562192 20.96523465 -20.58850187 20.77402974 -25.6875 20.875 C-26.86699219 20.89304687 -28.04648438 20.91109375 -29.26171875 20.9296875 C-30.16535156 20.95289062 -31.06898438 20.97609375 -32 21 C-32 21.66 -32 22.32 -32 23 C-34.33347649 25.53348876 -36.70666882 27.77436063 -39.4375 29.875 C-42.15866136 32.13157284 -44.26868968 34.56217204 -46.52734375 37.265625 C-49.24116272 40.46174071 -52.11476735 43.31905181 -55.4375 45.875 C-58.15866136 48.13157284 -60.26868968 50.56217204 -62.52734375 53.265625 C-65.24116272 56.46174071 -68.11476735 59.31905181 -71.4375 61.875 C-74.15866136 64.13157284 -76.26868968 66.56217204 -78.52734375 69.265625 C-81.24116272 72.46174071 -84.11476735 75.31905181 -87.4375 77.875 C-90.15866136 80.13157284 -92.26868968 82.56217204 -94.52734375 85.265625 C-97.26115914 88.48529087 -100.16264497 91.35104985 -103.5 93.9375 C-105.57156388 95.6465402 -107.07251324 97.19170446 -108.75 99.25 C-109.86375 100.61125 -109.86375 100.61125 -111 102 C-111.33 102 -111.66 102 -112 102 C-112.05108629 95.50792842 -112.08589434 89.01590948 -112.10986328 82.52368164 C-112.11986516 80.31923485 -112.13347099 78.11480114 -112.15087891 75.91040039 C-112.17538453 72.72539016 -112.18654155 69.5405567 -112.1953125 66.35546875 C-112.21079636 64.89852852 -112.21079636 64.89852852 -112.22659302 63.41215515 C-112.22796421 54.87847164 -111.85923307 45.8232566 -107.0625 38.5 C-106.55847656 37.7059375 -106.05445313 36.911875 -105.53515625 36.09375 C-104.13185408 34.17983152 -102.80742601 32.53655835 -101 31 C-100.34 31 -99.68 31 -99 31 C-99 30.34 -99 29.68 -99 29 C-96.7346506 27.48976707 -94.48130919 26.1048497 -92.125 24.75 C-90.74725523 23.94425078 -89.36965145 23.13826044 -87.9921875 22.33203125 C-86.9727002 21.73962646 -86.9727002 21.73962646 -85.93261719 21.13525391 C-82.56474661 19.15690648 -79.2613826 17.07219418 -75.953125 14.99609375 C-74 14 -74 14 -71 14 C-71 13.34 -71 12.68 -71 12 C-61.76112317 6.57215986 -52.3857478 1.56052447 -42.75390625 -3.13525391 C-41.08550445 -3.95784288 -39.43283301 -4.81211202 -37.78125 -5.66796875 C-24.01564754 -12.26076431 -11.90127947 -7.37222114 0 0 Z " fill="#8F01FC" transform="translate(275,65)"/>
<path d="M0 0 C5.15625 -0.061875 10.3125 -0.12375 15.625 -0.1875 C17.24100098 -0.21481201 18.85700195 -0.24212402 20.52197266 -0.27026367 C22.44855713 -0.28150269 22.44855713 -0.28150269 24.4140625 -0.29296875 C25.7232666 -0.3086792 27.0324707 -0.32438965 28.38134766 -0.34057617 C34.94836137 0.27749049 39.32885357 3.64734082 44 8 C46.90670862 12.65885755 46.3298506 17.55183631 46.3125 22.875 C46.32861328 23.85597656 46.34472656 24.83695312 46.36132812 25.84765625 C46.3656826 32.30099201 45.80769554 36.89264322 41.31640625 41.86328125 C40.73761719 42.34152344 40.15882813 42.81976563 39.5625 43.3125 C38.69818359 44.04919922 38.69818359 44.04919922 37.81640625 44.80078125 C34.47689311 47.0055781 31.15773892 47.12280602 27.234375 47.09765625 C26.34492188 47.09443359 25.45546875 47.09121094 24.5390625 47.08789062 C23.15847656 47.07532227 23.15847656 47.07532227 21.75 47.0625 C20.34621094 47.05573242 20.34621094 47.05573242 18.9140625 47.04882812 C16.60934753 47.03706938 14.30466554 47.01913468 12 47 C12 51.95 12 56.9 12 62 C8.04 62 4.08 62 0 62 C0 41.54 0 21.08 0 0 Z " fill="#0D0D0D" transform="translate(276,286)"/>
<path d="M0 0 C5.61 -0.12375 11.22 -0.2475 17 -0.375 C18.75441406 -0.42962402 20.50882813 -0.48424805 22.31640625 -0.54052734 C36.10316232 -0.79236057 36.10316232 -0.79236057 41.58984375 4.31005859 C42.05519531 4.86773926 42.52054688 5.42541992 43 6 C43.54849609 6.61077393 44.09699219 7.22154785 44.66210938 7.85083008 C47.32480498 12.12814931 46.51119669 17.41674631 46.5 22.3125 C46.52835938 23.42818359 46.55671875 24.54386719 46.5859375 25.69335938 C46.59954208 31.43109296 46.55076288 36.1568353 42.65209961 40.62280273 C36.24076553 45.96731811 29.50186624 46.55766474 21.4375 46.25 C20.52419922 46.23195313 19.61089844 46.21390625 18.66992188 46.1953125 C16.44614918 46.14874134 14.22292635 46.07702151 12 46 C12 50.95 12 55.9 12 61 C8.04 61 4.08 61 0 61 C0 40.87 0 20.74 0 0 Z " fill="#0A0A0A" transform="translate(74,287)"/>
<path d="M0 0 C7.17199143 -0.06888786 14.34283386 -0.12861869 21.51489258 -0.16479492 C23.95438528 -0.17987654 26.3938509 -0.20034469 28.83325195 -0.22631836 C32.34072559 -0.26272812 35.84784054 -0.27973289 39.35546875 -0.29296875 C40.44522507 -0.30845261 41.53498138 -0.32393646 42.65776062 -0.33988953 C51.94290339 -0.34195085 51.94290339 -0.34195085 56 3 C56.86625 3.598125 57.7325 4.19625 58.625 4.8125 C62.41148903 8.30005568 63.86981529 11.58168662 64.34057617 16.71044922 C64.34010776 18.07528749 64.32355011 19.4401918 64.29296875 20.8046875 C64.28872391 21.5286673 64.28447906 22.25264709 64.28010559 22.99856567 C64.26342972 25.29110287 64.22580081 27.58273246 64.1875 29.875 C64.17243871 31.43748722 64.15875284 32.99998835 64.14648438 34.5625 C64.11356293 38.37534505 64.06186002 42.18751911 64 46 C60.04 46 56.08 46 52 46 C51.98541748 45.04633545 51.97083496 44.0926709 51.95581055 43.11010742 C51.89782208 39.57066415 51.82059042 36.03185676 51.73754883 32.49291992 C51.70430182 30.96144941 51.67626907 29.42985644 51.65356445 27.89819336 C51.62001282 25.69592113 51.5677009 23.49477088 51.51171875 21.29296875 C51.50532883 20.60849167 51.4989389 19.92401459 51.49235535 19.21879578 C51.3603721 14.94849478 51.18743103 14.18743103 48 11 C44.7 10.67 41.4 10.34 38 10 C38 21.88 38 33.76 38 46 C34.04 46 30.08 46 26 46 C26 34.12 26 22.24 26 10 C21.38 10 16.76 10 12 10 C12 21.88 12 33.76 12 46 C8.04 46 4.08 46 0 46 C0 30.82 0 15.64 0 0 Z " fill="#0F0F0F" transform="translate(205,302)"/>
<path d="M0 0 C4.1073201 -0.14977605 8.21355567 -0.25787183 12.32299805 -0.32958984 C13.71683482 -0.3595233 15.11048713 -0.40028771 16.50366211 -0.45263672 C24.31717039 -0.73859935 30.71627711 -0.6830445 37.28540039 4.01708984 C41.63276889 9.04475993 42.4380356 14.47802868 42.29296875 20.90234375 C42.28872391 21.6249086 42.28447906 22.34747345 42.28010559 23.0919342 C42.26346418 25.37418693 42.22584248 27.65551933 42.1875 29.9375 C42.17243423 31.49542985 42.15874916 33.0533737 42.14648438 34.61132812 C42.11360882 38.40790057 42.0619309 42.20379487 42 46 C36.84055127 46.09920549 31.68166311 46.17162646 26.52148438 46.21972656 C24.76780521 46.2397871 23.01419247 46.26704251 21.26074219 46.30175781 C18.73355682 46.35052302 16.20725909 46.37302392 13.6796875 46.390625 C12.90132538 46.41127014 12.12296326 46.43191528 11.3210144 46.45318604 C6.07430735 46.45532723 3.18983238 45.42464964 -1 42 C-4.5685151 38.07463339 -4.55945344 33.82477745 -4.421875 28.734375 C-3.73808712 24.30241654 -2.08788574 22.22824418 1 19 C4.24543677 17.78932395 7.42361998 17.88481439 10.859375 17.90234375 C11.97441406 17.90556641 13.08945312 17.90878906 14.23828125 17.91210938 C15.39714844 17.92048828 16.55601562 17.92886719 17.75 17.9375 C18.92433594 17.94201172 20.09867187 17.94652344 21.30859375 17.95117188 C24.20578072 17.96294906 27.10286454 17.97939674 30 18 C29.65555119 15.52733235 29.65555119 15.52733235 29 13 C28.34 12.67 27.68 12.34 27 12 C27 11.34 27 10.68 27 10 C18.09 10 9.18 10 0 10 C0 6.7 0 3.4 0 0 Z " fill="#090909" transform="translate(333,302)"/>
<path d="M0 0 C4.02009457 -0.07455949 8.03991733 -0.12879358 12.06054688 -0.16479492 C13.42617816 -0.17981428 14.79176176 -0.20023608 16.15722656 -0.22631836 C18.12803905 -0.26300137 20.09921408 -0.27818551 22.0703125 -0.29296875 C23.25383301 -0.3086792 24.43735352 -0.32438965 25.65673828 -0.34057617 C31.31680553 0.23601166 36.00512748 3.00512748 40 7 C41.7877633 12.00705233 42.23783813 16.38915238 42.1953125 21.68359375 C42.1924826 22.38396255 42.18965271 23.08433136 42.18673706 23.80592346 C42.17564885 26.0166317 42.15056703 28.22691671 42.125 30.4375 C42.11495546 31.94725972 42.1058322 33.45702588 42.09765625 34.96679688 C42.07574714 38.64466597 42.04129758 42.3222916 42 46 C36.84055127 46.09920549 31.68166311 46.17162646 26.52148438 46.21972656 C24.76780521 46.2397871 23.01419247 46.26704251 21.26074219 46.30175781 C18.73355682 46.35052302 16.20725909 46.37302392 13.6796875 46.390625 C12.90132538 46.41127014 12.12296326 46.43191528 11.3210144 46.45318604 C6.08303969 46.45532366 3.17452073 45.43687374 -1 42 C-3.28592773 38.83132207 -3.29795294 35.90777312 -3.3125 32.0625 C-3.32925781 31.04285156 -3.34601563 30.02320313 -3.36328125 28.97265625 C-2.86867248 24.92537375 -1.17756204 22.57354799 1.21679688 19.37402344 C3.84942624 17.34548592 5.91305599 17.66074727 9.19921875 17.70703125 C11.01196289 17.7215332 11.01196289 17.7215332 12.86132812 17.73632812 C14.7552832 17.7740332 14.7552832 17.7740332 16.6875 17.8125 C18.59885742 17.83280273 18.59885742 17.83280273 20.54882812 17.85351562 C23.69964057 17.88891801 26.84961045 17.9383021 30 18 C29.505 14.535 29.505 14.535 29 11 C19.43 10.67 9.86 10.34 0 10 C0 6.7 0 3.4 0 0 Z " fill="#090909" transform="translate(131,302)"/>
<path d="M0 0 C3.63 0 7.26 0 11 0 C11.01401855 1.37720215 11.01401855 1.37720215 11.02832031 2.78222656 C11.07239931 6.19705278 11.13403732 9.61063108 11.20751953 13.02490234 C11.23570088 14.50102196 11.25692966 15.97729169 11.27099609 17.45361328 C11.29246698 19.57923057 11.33913043 21.70304879 11.390625 23.828125 C11.41157227 25.1059082 11.43251953 26.38369141 11.45410156 27.70019531 C12.08555295 31.51714389 13.12636912 32.54403971 16 35 C16 35.66 16 36.32 16 37 C21.28 37 26.56 37 32 37 C32 24.79 32 12.58 32 0 C35.96 0 39.92 0 44 0 C44.04957274 6.56533721 44.08580156 13.13056455 44.10986328 19.69604492 C44.11989816 21.92783507 44.13352907 24.15961215 44.15087891 26.39135742 C44.17523761 29.60598993 44.18650847 32.82044803 44.1953125 36.03515625 C44.20563507 37.02709488 44.21595764 38.01903351 44.22659302 39.04103088 C44.22745925 44.43380093 43.78915005 48.90185098 42 54 C41.34 54 40.68 54 40 54 C39.79375 54.61875 39.5875 55.2375 39.375 55.875 C37.45224112 58.84653645 35.33405473 59.13024659 32 60 C32 60.66 32 61.32 32 62 C22.76 62 13.52 62 4 62 C4 58.7 4 55.4 4 52 C4.70608398 51.98018066 5.41216797 51.96036133 6.13964844 51.93994141 C9.34346994 51.84459585 12.54664801 51.73495487 15.75 51.625 C16.86117188 51.5940625 17.97234375 51.563125 19.1171875 51.53125 C20.18710937 51.49257813 21.25703125 51.45390625 22.359375 51.4140625 C23.34389648 51.3826416 24.32841797 51.3512207 25.34277344 51.31884766 C28.00852201 50.99897742 29.70616405 50.35631379 32 49 C32 48.01 32 47.02 32 46 C31.40574219 46.0314209 30.81148438 46.0628418 30.19921875 46.09521484 C27.46654437 46.22111761 24.73448124 46.2983323 22 46.375 C21.06542969 46.42527344 20.13085938 46.47554688 19.16796875 46.52734375 C13.1154406 46.65431987 9.19894967 45.86418792 4.59301758 41.78955078 C-1.83863635 34.56441312 -0.34521284 24.53823508 -0.1875 15.5 C-0.1724286 13.99480503 -0.15874453 12.48959549 -0.14648438 10.984375 C-0.11366687 7.32261059 -0.06201989 3.66139979 0 0 Z " fill="#090909" transform="translate(384,302)"/>
<path d="M0 0 C3.63 0 7.26 0 11 0 C11 20.13 11 40.26 11 61 C7.37 61 3.74 61 0 61 C0 40.87 0 20.74 0 0 Z " fill="#010101" transform="translate(183,287)"/>
<path d="M0 0 C2.866875 -0.0825 5.73375 -0.165 8.6875 -0.25 C9.58170654 -0.28641602 10.47591309 -0.32283203 11.3972168 -0.36035156 C15.16825581 -0.41279171 17.59587629 -0.19350211 21.04296875 1.45703125 C23.91723985 5.19186256 23.73566035 8.34509568 23.625 12.9375 C23.65400391 14.13536133 23.65400391 14.13536133 23.68359375 15.35742188 C23.64983663 19.43190601 23.2858613 21.55494648 21.04296875 25.046875 C16.82721658 27.75274931 13.57159096 27.56112703 8.6875 27.3125 C4.3871875 27.1578125 4.3871875 27.1578125 0 27 C0 18.09 0 9.18 0 0 Z " fill="#F7F7F7" transform="translate(86,296)"/>
<path d="M0 0 C2.68125 -0.103125 5.3625 -0.20625 8.125 -0.3125 C9.37434326 -0.38078003 9.37434326 -0.38078003 10.64892578 -0.45043945 C14.4860996 -0.5213965 17.31603045 -0.25302355 20.51171875 1.98828125 C23.7884114 5.95426246 23.87284301 8.50866963 23.6875 13.5 C23.70232422 14.24636719 23.71714844 14.99273437 23.73242188 15.76171875 C23.67336038 19.6875712 23.22444934 21.655278 21.0390625 25.01171875 C16.82847972 27.76645735 13.58953155 27.5620403 8.6875 27.3125 C4.3871875 27.1578125 4.3871875 27.1578125 0 27 C0 18.09 0 9.18 0 0 Z " fill="#F8F8F8" transform="translate(288,296)"/>
<path d="M0 0 C2.0703125 -0.38671875 2.0703125 -0.38671875 5 0 C7.57745173 1.78068761 9.69299537 3.94997977 11.875 6.1875 C12.48085938 6.76564453 13.08671875 7.34378906 13.7109375 7.93945312 C17.92090619 12.17334209 17.92090619 12.17334209 18.2421875 15.53125 C16.46476706 19.0637334 14.05824925 21.56108436 11.25 24.3125 C10.7240625 24.86228516 10.198125 25.41207031 9.65625 25.97851562 C7.28041655 28.34552791 5.60502687 29.88418057 2.265625 30.5234375 C-0.77129953 29.82180321 -1.91887727 28.08550288 -3.7421875 25.66015625 C-6.38246739 22.17531478 -9.37683588 19.41544274 -13 17 C-12.07269822 10.74071296 -7.1282465 7.09765616 -2.48828125 3.33203125 C-0.87117455 2.04920055 -0.87117455 2.04920055 0 0 Z " fill="#FBF3FD" transform="translate(248,137)"/>
<path d="M0 0 C1.32 0 2.64 0 4 0 C3.67 0.99 3.34 1.98 3 3 C2.37738281 3.15210937 1.75476563 3.30421875 1.11328125 3.4609375 C-1.67219032 4.17146444 -2.23297288 5.26708919 -3.8125 7.625 C-11.23293666 18.07764555 -11.23293666 18.07764555 -17 20 C-18.4258716 21.62499702 -18.4258716 21.62499702 -19.75 23.625 C-27.3242682 34.1080894 -27.3242682 34.1080894 -33 36 C-34.4258716 37.62499702 -34.4258716 37.62499702 -35.75 39.625 C-43.3242682 50.1080894 -43.3242682 50.1080894 -49 52 C-50.21931892 53.42596452 -50.21931892 53.42596452 -51.375 55.25 C-54.42145005 59.47819642 -57.89455073 63.12912621 -61.5625 66.8125 C-62.11663574 67.37549805 -62.67077148 67.93849609 -63.24169922 68.51855469 C-66.30565652 71.56149469 -69.22905667 73.84517524 -73 76 C-75.27537692 78.57183314 -75.27537692 78.57183314 -77 81 C-77.66 80.67 -78.32 80.34 -79 80 C-75.64234403 75.75355275 -72.2224162 72.43071316 -68 69 C-65.31279024 66.44387364 -62.90251536 63.8800189 -60.5625 61 C-57.93248768 57.92096119 -55.1374966 55.54921599 -52 53 C-49.31279024 50.44387364 -46.90251536 47.8800189 -44.5625 45 C-41.93248768 41.92096119 -39.1374966 39.54921599 -36 37 C-33.31279024 34.44387364 -30.90251536 31.8800189 -28.5625 29 C-25.93248768 25.92096119 -23.1374966 23.54921599 -20 21 C-17.31279024 18.44387364 -14.90251536 15.8800189 -12.5625 13 C-10.65763554 10.76991478 -9.04816228 9.11947946 -6.8125 7.3125 C-3.87245245 5.12328275 -3.87245245 5.12328275 -2 2 C-1.34 2 -0.68 2 0 2 C0 1.34 0 0.68 0 0 Z " fill="#F4D5FE" transform="translate(243,86)"/>
<path d="M0 0 C0.86931152 0.01047363 1.73862305 0.02094727 2.63427734 0.03173828 C3.57529297 0.03818359 4.51630859 0.04462891 5.48583984 0.05126953 C6.47068359 0.06802734 7.45552734 0.08478516 8.47021484 0.10205078 C9.46279297 0.11107422 10.45537109 0.12009766 11.47802734 0.12939453 C13.93385872 0.15300829 16.38956658 0.18888008 18.84521484 0.22705078 C18.84521484 3.52705078 18.84521484 6.82705078 18.84521484 10.22705078 C15.57388877 10.30786121 12.30455063 10.36745787 9.03271484 10.41455078 C8.10394531 10.4396875 7.17517578 10.46482422 6.21826172 10.49072266 C4.87924805 10.50522461 4.87924805 10.50522461 3.51318359 10.52001953 C2.69100342 10.53572998 1.86882324 10.55144043 1.02172852 10.56762695 C-1.67327639 10.14591839 -2.53803015 9.38904669 -4.15478516 7.22705078 C-4.46728516 4.66455078 -4.46728516 4.66455078 -4.15478516 2.22705078 C-2.15478516 0.22705078 -2.15478516 0.22705078 0 0 Z " fill="#EEEEEE" transform="translate(143.15478515625,328.77294921875)"/>
<path d="M0 0 C0.89267578 0.00644531 1.78535156 0.01289063 2.70507812 0.01953125 C4.09823242 0.04466797 4.09823242 0.04466797 5.51953125 0.0703125 C6.45990234 0.07933594 7.40027344 0.08835937 8.36914062 0.09765625 C10.69036093 0.12122194 13.01106769 0.15412134 15.33203125 0.1953125 C15.35892341 1.67438142 15.37837746 3.15358733 15.39453125 4.6328125 C15.40613281 5.45652344 15.41773438 6.28023438 15.4296875 7.12890625 C15.33203125 9.1953125 15.33203125 9.1953125 14.33203125 10.1953125 C11.21557137 10.47274216 8.08438202 10.42707722 4.95703125 10.4453125 C4.08046875 10.4659375 3.20390625 10.4865625 2.30078125 10.5078125 C1.03621094 10.51554687 1.03621094 10.51554687 -0.25390625 10.5234375 C-1.4147876 10.53745605 -1.4147876 10.53745605 -2.59912109 10.55175781 C-5.20962726 10.10198923 -6.08070782 9.28142686 -7.66796875 7.1953125 C-8.04296875 4.6328125 -8.04296875 4.6328125 -7.66796875 2.1953125 C-4.46390413 0.05926942 -3.67196128 -0.04677658 0 0 Z " fill="#EFEFEF" transform="translate(348.66796875,328.8046875)"/>
<path d="M0 0 C0.495 0.99 0.495 0.99 1 2 C-0.375 4 -0.375 4 -2 6 C-2.66 6 -3.32 6 -4 6 C-4.10578369 6.59329102 -4.21156738 7.18658203 -4.32055664 7.79785156 C-5.09721203 10.31507455 -6.01562502 11.38940838 -7.87109375 13.234375 C-8.44537109 13.80800781 -9.01964844 14.38164063 -9.61132812 14.97265625 C-10.21396484 15.55917969 -10.81660156 16.14570313 -11.4375 16.75 C-12.03626953 17.35199219 -12.63503906 17.95398438 -13.25195312 18.57421875 C-17.73293119 23 -17.73293119 23 -20 23 C-20.20625 23.53109375 -20.4125 24.0621875 -20.625 24.609375 C-22.57961192 28.00773436 -25.22123717 30.51055928 -28 33.25 C-28.81984375 34.08144531 -28.81984375 34.08144531 -29.65625 34.9296875 C-33.7466133 39 -33.7466133 39 -36 39 C-36.27295898 39.59762146 -36.54591797 40.19524292 -36.82714844 40.81097412 C-37.96699868 42.9384059 -39.07214943 44.32540472 -40.765625 46.02441406 C-41.59658691 46.86483246 -41.59658691 46.86483246 -42.44433594 47.722229 C-43.04020508 48.31404968 -43.63607422 48.90587036 -44.25 49.515625 C-44.86391602 50.13145447 -45.47783203 50.74728394 -46.11035156 51.3817749 C-47.40574483 52.67852646 -48.70365644 53.97276657 -50.00390625 55.26464844 C-51.99975068 57.24975202 -53.98466726 59.24533591 -55.96875 61.2421875 C-57.22852555 62.50064211 -58.48892101 63.75847654 -59.75 65.015625 C-60.34586914 65.6155426 -60.94173828 66.21546021 -61.55566406 66.83355713 C-65.77006753 71 -65.77006753 71 -68 71 C-67.65978036 67.82461668 -66.97533396 66.97723135 -64.5625 64.75 C-62 63 -62 63 -60 63 C-59.73445313 62.41863281 -59.46890625 61.83726562 -59.1953125 61.23828125 C-55.8398366 54.95498814 -50.2343177 50.20698295 -44.859375 45.67578125 C-43.08155132 44.07349898 -41.61345388 42.43182296 -40.125 40.5625 C-39.42375 39.716875 -38.7225 38.87125 -38 38 C-37.34 38 -36.68 38 -36 38 C-35.7525 37.38125 -35.505 36.7625 -35.25 36.125 C-33.79371361 33.64931313 -32.62187494 33.04874998 -30 32 C-30 31.34 -30 30.68 -30 30 C-28.6796875 28.73828125 -28.6796875 28.73828125 -26.875 27.3125 C-24.33284884 25.21356958 -22.14860266 23.11409665 -20.0625 20.5625 C-17.28060193 17.18394819 -14.14415922 14.45390575 -10.81640625 11.625 C-8.57661966 9.62123393 -6.82042593 7.3853857 -5 5 C-3.35216394 3.31471312 -1.68997323 1.64302953 0 0 Z " fill="#F4D8FE" transform="translate(334,112)"/>
<path d="M0 0 C0.33 0 0.66 0 1 0 C1 17.16 1 34.32 1 52 C2.65 49.69 4.3 47.38 6 45 C7.96722008 43.61876037 9.96868328 42.28511874 12 41 C14.095329 39.07649752 16.03422906 37.05937908 18 35 C18.66 35.33 19.32 35.66 20 36 C15.81319741 40.9925103 11.67402467 45.92763088 6.5 49.9375 C4.42843612 51.6465402 2.92748676 53.19170446 1.25 55.25 C0.13625 56.61125 0.13625 56.61125 -1 58 C-1.33 58 -1.66 58 -2 58 C-2.05108629 51.50792842 -2.08589434 45.01590948 -2.10986328 38.52368164 C-2.11986516 36.31923485 -2.13347099 34.11480114 -2.15087891 31.91040039 C-2.17538453 28.72539016 -2.18654155 25.5405567 -2.1953125 22.35546875 C-2.20563507 21.38417526 -2.21595764 20.41288177 -2.22659302 19.41215515 C-2.22766401 12.74675487 -1.39773936 6.51438066 0 0 Z " fill="#8E2CDF" transform="translate(165,109)"/>
<path d="M0 0 C3.5084453 1.36823091 5.2550203 3.27568841 7.55859375 6.26953125 C9.55755127 8.66936372 11.77573775 10.8081142 14 13 C21.33333333 20.33333333 28.66666667 27.66666667 36 35 C35.505 35.99 35.505 35.99 35 37 C34.6057634 36.60354279 34.21152679 36.20708557 33.80534363 35.7986145 C29.7042267 31.67538604 25.5996035 27.5556723 21.49291992 23.43798828 C19.96044014 21.90047759 18.4288588 20.36207086 16.89819336 18.82275391 C14.69880591 16.61124666 12.49621514 14.4029744 10.29296875 12.1953125 C9.60849167 11.50567413 8.92401459 10.81603577 8.21879578 10.10549927 C7.25813957 9.14472977 7.25813957 9.14472977 6.27807617 8.16455078 C5.71626144 7.60051544 5.15444672 7.0364801 4.5756073 6.45535278 C0.75896686 2.93000844 -1.63433818 2.77493739 -6.6875 2.875 C-7.86699219 2.89304687 -9.04648438 2.91109375 -10.26171875 2.9296875 C-11.61716797 2.96449219 -11.61716797 2.96449219 -13 3 C-13 3.66 -13 4.32 -13 5 C-15.33347649 7.53348876 -17.70666882 9.77436063 -20.4375 11.875 C-23.16875539 14.13994349 -25.25018016 16.59671962 -27.5078125 19.31640625 C-29.45455168 21.51285805 -31.64031532 23.26493773 -34 25 C-34.33 24.01 -34.66 23.02 -35 22 C-34.21625 21.7525 -33.4325 21.505 -32.625 21.25 C-29.59062001 19.80505715 -29.32970275 18.94434181 -28 16 C-27.01 15.67 -26.02 15.34 -25 15 C-23.78130071 12.49552484 -23.78130071 12.49552484 -23 10 C-22.34 10 -21.68 10 -21 10 C-21 8.68 -21 7.36 -21 6 C-20.46375 5.938125 -19.9275 5.87625 -19.375 5.8125 C-16.72435154 5.10031917 -16.72435154 5.10031917 -14.4375 2.4375 C-10.30266212 -1.2214614 -5.21832234 -0.7488529 0 0 Z " fill="#861CDE" transform="translate(256,83)"/>
<path d="M0 0 C5.65382622 0.21662169 8.63001267 3.96672036 12.375 7.75 C13.02855469 8.37132812 13.68210937 8.99265625 14.35546875 9.6328125 C18.8861325 14.15393801 18.8861325 14.15393801 19.3359375 17.49609375 C17.26151874 21.38411254 14.37584194 24.24044279 11.25 27.3125 C10.62867188 27.95767578 10.00734375 28.60285156 9.3671875 29.26757812 C4.72229638 33.89777022 4.72229638 33.89777022 1.046875 34.41796875 C0.37140625 34.28003906 -0.3040625 34.14210937 -1 34 C-1.495 32.515 -1.495 32.515 -2 31 C-2.5775 30.71125 -3.155 30.4225 -3.75 30.125 C-6.79225245 28.60387378 -8.73842507 26.51286104 -11 24 C-11 23.34 -11 22.68 -11 22 C-11.66 22 -12.32 22 -13 22 C-13 21.34 -13 20.68 -13 20 C-13.66 20 -14.32 20 -15 20 C-15.43769726 16.9361192 -15.60855877 14.83395091 -13.734375 12.265625 C-12.21356327 10.71528294 -10.75423511 9.28159145 -9 8 C-8.34 8 -7.68 8 -7 8 C-6.62875 7.071875 -6.62875 7.071875 -6.25 6.125 C-4.79371361 3.64931313 -3.62187494 3.04874998 -1 2 C-1.8125 3.9375 -1.8125 3.9375 -3 6 C-3.99 6.33 -4.98 6.66 -6 7 C-6.33 7.99 -6.66 8.98 -7 10 C-7.66 10 -8.32 10 -9 10 C-9.4021875 10.8353125 -9.4021875 10.8353125 -9.8125 11.6875 C-11.10122647 14.19712523 -12.52926478 16.59334236 -14 19 C-13.443125 19.226875 -12.88625 19.45375 -12.3125 19.6875 C-9.34746553 21.3703574 -7.34646311 23.53621374 -5 26 C-3.8553125 27.0828125 -3.8553125 27.0828125 -2.6875 28.1875 C-1 30 -1 30 -1 32 C4.12233959 30.69848429 7.29257265 28.38148425 10.9375 24.6875 C11.44345703 24.21376953 11.94941406 23.74003906 12.47070312 23.25195312 C14.67279113 21.05587354 15.96028809 19.66778713 16.1484375 16.50390625 C14.59949385 13.12678761 12.32969491 10.78623367 9.6875 8.25 C9.20087891 7.75628906 8.71425781 7.26257813 8.21289062 6.75390625 C5.64051907 4.22654254 3.6689998 2.38345841 0 2 C0 1.34 0 0.68 0 0 Z " fill="#8017DB" transform="translate(249,135)"/>
<path d="M0 0 C4.8813625 1.80791204 7.65055233 5.81517996 10.3125 10.125 C11 12 11 12 11 16 C9.71484375 17.421875 9.71484375 17.421875 7.9375 18.75 C4.38295839 21.58353926 1.50575236 24.69996157 -1.421875 28.16796875 C-2.89049519 29.87287684 -4.31632521 31.50596989 -6 33 C-6.66 33 -7.32 33 -8 33 C-8.226875 33.556875 -8.45375 34.11375 -8.6875 34.6875 C-10.3703574 37.65253447 -12.53621374 39.65353689 -15 42 C-15.721875 42.763125 -16.44375 43.52625 -17.1875 44.3125 C-19 46 -19 46 -21 46 C-21 46.66 -21 47.32 -21 48 C-22.32 48.66 -23.64 49.32 -25 50 C-24.875 47.75 -24.875 47.75 -24 45 C-22.03277992 43.61876037 -20.03131672 42.28511874 -18 41 C-17.31731862 39.67479497 -16.6492959 38.34187818 -16 37 C-15.195625 36.525625 -14.39125 36.05125 -13.5625 35.5625 C-10.84248914 34.17596277 -10.84248914 34.17596277 -9.5 31.5 C-7.18728736 27.64547893 -4.1662275 26.3887425 0 25 C0 23.68 0 22.36 0 21 C2.375 19.375 2.375 19.375 5 18 C7.21370051 16.21342243 7.21370051 16.21342243 7.1953125 13.8359375 C7.17210937 13.02382812 7.14890625 12.21171875 7.125 11.375 C7.10695313 10.55773437 7.08890625 9.74046875 7.0703125 8.8984375 C7.04710937 8.27195312 7.02390625 7.64546875 7 7 C6.01 6.67 5.02 6.34 4 6 C1.8125 4.0625 1.8125 4.0625 0 2 C0 1.34 0 0.68 0 0 Z " fill="#891FE4" transform="translate(325,96)"/>
<path d="M0 0 C0 3.22124915 -0.79255542 5.05685384 -2 8 C-2 8.66 -2 9.32 -2 10 C-2.8353125 10.12375 -2.8353125 10.12375 -3.6875 10.25 C-6.68448323 11.22199456 -8.57606101 13.02257608 -11 15 C-11.66 15 -12.32 15 -13 15 C-13.226875 15.721875 -13.45375 16.44375 -13.6875 17.1875 C-16.31149835 22.8103536 -22.01119461 27.34321822 -27 31 C-27.66 31 -28.32 31 -29 31 C-29.2475 31.763125 -29.495 32.52625 -29.75 33.3125 C-31.1255271 36.26988327 -32.15451051 37.44791483 -35 39 C-35.99 38.67 -36.98 38.34 -38 38 C-35.41288896 34.68526397 -32.85304978 31.78966493 -29.625 29.09375 C-23.43660266 23.7433648 -17.75916219 17.86510591 -12 12.0625 C-10.83226626 10.88973991 -9.66429926 9.71721202 -8.49609375 8.54492188 C-5.66136766 5.69928311 -2.82981176 2.85052547 0 0 Z " fill="#8713E5" transform="translate(241,117)"/>
<path d="M0 0 C0.99 0 1.98 0 3 0 C3.02502598 5.44026366 3.0430116 10.88049259 3.05493164 16.32080078 C3.05990958 18.16520777 3.06669434 20.00961093 3.07543945 21.85400391 C3.19145327 46.98123143 3.19145327 46.98123143 2 54 C1.01 54.495 1.01 54.495 0 55 C0 36.85 0 18.7 0 0 Z " fill="#E0B7F9" transform="translate(337,137)"/>
<path d="M0 0 C0.07671463 6.47371743 0.12887575 12.94731557 0.16479492 19.42138672 C0.1797854 21.61902243 0.20018466 23.81662871 0.22631836 26.01416016 C0.57148619 55.80688129 0.57148619 55.80688129 -8 66 C-8.33 65.01 -8.66 64.02 -9 63 C-7.6875 60.5 -7.6875 60.5 -6 58 C-3.89516163 54.84274244 -3.69111983 53.60149717 -3.4375 49.9375 C-3.09605489 45.19210978 -3.09605489 45.19210978 -2 43 C-1.91301772 40.08300726 -1.88448077 37.19017452 -1.90234375 34.2734375 C-1.90446617 32.97921371 -1.90446617 32.97921371 -1.90663147 31.65884399 C-1.91223812 28.8975277 -1.92479173 26.13629188 -1.9375 23.375 C-1.94251414 21.5052095 -1.9470772 19.63541774 -1.95117188 17.765625 C-1.96220971 13.17705223 -1.9794788 8.58853977 -2 4 C-2.99 3.67 -3.98 3.34 -5 3 C-2.25 0 -2.25 0 0 0 Z " fill="#8418E4" transform="translate(338,139)"/>
<path d="M0 0 C0.66 0 1.32 0 2 0 C2.25289795 0.74185547 2.5057959 1.48371094 2.76635742 2.24804688 C4.08461043 5.18874506 5.44471287 6.79146945 7.73828125 9.03125 C8.47626953 9.75957031 9.21425781 10.48789063 9.97460938 11.23828125 C11.13186523 12.35783203 11.13186523 12.35783203 12.3125 13.5 C13.07240234 14.24636719 13.83230469 14.99273437 14.61523438 15.76171875 C16.73853782 17.84628252 18.86888608 19.9234282 21 22 C24.23921482 25.17600574 27.22293066 28.4000953 30 32 C26.15340985 30.42923465 23.79729615 27.9676316 20.9375 25 C18.34506045 22.31789712 16.10816238 20.07210825 13 18 C13 17.34 13 16.68 13 16 C12.34 16 11.68 16 11 16 C9.4140625 14.35546875 9.4140625 14.35546875 7.625 12.1875 C5.76818783 9.94214784 4.15819751 8.11403637 1.7890625 6.40625 C1.19867188 5.9421875 0.60828125 5.478125 0 5 C-0.25 2.3125 -0.25 2.3125 0 0 Z " fill="#8116DA" transform="translate(204,177)"/>
<path d="M0 0 C0.66 0 1.32 0 2 0 C1.1875 1.9375 1.1875 1.9375 0 4 C-0.99 4.33 -1.98 4.66 -3 5 C-3.33 5.99 -3.66 6.98 -4 8 C-4.66 8 -5.32 8 -6 8 C-6.4021875 8.8353125 -6.4021875 8.8353125 -6.8125 9.6875 C-8.10122647 12.19712523 -9.52926478 14.59334236 -11 17 C-10.443125 17.226875 -9.88625 17.45375 -9.3125 17.6875 C-4.56464872 20.3822264 -1.29391043 24.73011611 2 29 C-1.28754511 28.42110619 -2.93672495 27.45171589 -5.25 25.0625 C-5.77078125 24.53785156 -6.2915625 24.01320312 -6.828125 23.47265625 C-8 22 -8 22 -8 20 C-8.66 20 -9.32 20 -10 20 C-10 19.34 -10 18.68 -10 18 C-10.66 18 -11.32 18 -12 18 C-12.43769726 14.9361192 -12.60855877 12.83395091 -10.734375 10.265625 C-9.21356327 8.71528294 -7.75423511 7.28159145 -6 6 C-5.34 6 -4.68 6 -4 6 C-3.566875 5.071875 -3.566875 5.071875 -3.125 4.125 C-2 2 -2 2 0 0 Z " fill="#8C27E1" transform="translate(246,137)"/>
<path d="M0 0 C4.62693176 1.39654343 8.77373018 3.31478804 13 5.625 C13.64211426 5.97256348 14.28422852 6.32012695 14.94580078 6.67822266 C16.96807007 7.77800134 18.98475538 8.88740696 21 10 C21.67385742 10.37060547 22.34771484 10.74121094 23.04199219 11.12304688 C24.99086425 12.19913441 26.93403564 13.28472393 28.875 14.375 C29.47570312 14.70838379 30.07640625 15.04176758 30.6953125 15.38525391 C34.88335767 17.76671534 34.88335767 17.76671534 36 20 C32.082258 19.32485514 29.1417335 17.45282072 25.75 15.4375 C19.69498344 11.87558201 13.51281555 8.69122204 7.15527344 5.70288086 C3.78643641 4.07871043 2.12028867 3.180433 0 0 Z " fill="#841CE0" transform="translate(262,59)"/>
<path d="M0 0 C0.99 0.33 1.98 0.66 3 1 C2.01 1.33 1.02 1.66 0 2 C-0.433125 2.86625 -0.433125 2.86625 -0.875 3.75 C-2.39310733 6.78621466 -4.5706501 8.62463565 -7 11 C-8.1522166 12.34873952 -9.29766921 13.703277 -10.4375 15.0625 C-13.35230033 18.44392407 -16.15738996 20.75066729 -20 23 C-19.67 21.02 -19.34 19.04 -19 17 C-17.02 16.34 -15.04 15.68 -13 15 C-13 14.34 -13 13.68 -13 13 C-12.34 13 -11.68 13 -11 13 C-11 11.68 -11 10.36 -11 9 C-9.36935236 7.94228261 -7.69719127 6.94726954 -6 6 C-4.96854629 4.69084721 -3.96457834 3.35917857 -3 2 C-2.01 1.34 -1.02 0.68 0 0 Z " fill="#8D24E6" transform="translate(288,156)"/>
<path d="M0 0 C-10.0936369 5.89819478 -18.49888271 7.42017845 -30 6 C-33.17868011 4.98386455 -35.22358512 3.89032502 -38 2 C-34.74998435 0.94005969 -34.23225911 0.89098042 -30.9375 2.4375 C-25.50666495 4.96645109 -19.40060738 4.88415792 -13.65625 3.390625 C-10.90288589 2.38379783 -8.31168864 1.17316035 -5.75 -0.25 C-3.47548346 -1.2247928 -2.32338015 -0.67205211 0 0 Z " fill="#821ADA" transform="translate(272,241)"/>
<path d="M0 0 C2.375 -0.1875 2.375 -0.1875 5 0 C5.66 0.99 6.32 1.98 7 3 C6.030625 3.144375 5.06125 3.28875 4.0625 3.4375 C-0.87604391 4.77796192 -3.72201815 8.43504218 -7.08203125 12.1015625 C-9 14 -9 14 -11 14 C-11 14.99 -11 15.98 -11 17 C-11.66 17 -12.32 17 -13 17 C-12.07269822 10.74071296 -7.1282465 7.09765616 -2.48828125 3.33203125 C-0.87117455 2.04920055 -0.87117455 2.04920055 0 0 Z " fill="#F3D4FE" transform="translate(248,137)"/>
<path d="M0 0 C0 0.66 0 1.32 0 2 C-0.76183594 2.36351563 -1.52367187 2.72703125 -2.30859375 3.1015625 C-8.27217905 6.00518081 -13.85705894 9.04075639 -19.2578125 12.8984375 C-21 14 -21 14 -23 14 C-23 14.66 -23 15.32 -23 16 C-23.99 16.33 -24.98 16.66 -26 17 C-26.66 16.34 -27.32 15.68 -28 15 C-27.03320312 14.41992188 -26.06640625 13.83984375 -25.0703125 13.2421875 C-24.44415039 12.86634521 -23.81798828 12.49050293 -23.17285156 12.10327148 C-21.80292501 11.28160953 -20.43247824 10.4608143 -19.06152344 9.64086914 C-15.98914357 7.80200847 -12.92569663 5.95390956 -9.8828125 4.06640625 C-8.57957031 3.26009766 -8.57957031 3.26009766 -7.25 2.4375 C-6.49203125 1.96183594 -5.7340625 1.48617187 -4.953125 0.99609375 C-3 0 -3 0 0 0 Z " fill="#8925DF" transform="translate(204,79)"/>
<path d="M0 0 C2 0 2 0 4.25 2.0625 C6.83362731 4.73785372 9.21216234 7.57482491 11.5703125 10.44921875 C13.11481807 12.24681775 13.11481807 12.24681775 16 14 C16 14.66 16 15.32 16 16 C16.99 16.33 17.98 16.66 19 17 C18.67 17.99 18.34 18.98 18 20 C17.29875 19.278125 16.5975 18.55625 15.875 17.8125 C13.98163313 15.90843614 12.09933371 14.26820864 10 12.5625 C7.7546154 10.64456732 6.07679112 9.00125141 4.25 6.75 C2.29368116 3.97640062 2.29368116 3.97640062 0 3 C0 2.01 0 1.02 0 0 Z " fill="#8A1EE0" transform="translate(262,120)"/>
<path d="M0 0 C4.91441412 1.43652105 9.00238358 3.54159615 13.375 6.125 C14.01566406 6.49753906 14.65632813 6.87007813 15.31640625 7.25390625 C16.88048477 8.16434002 18.44065534 9.08148191 20 10 C20 10.66 20 11.32 20 12 C20.78375 12.268125 21.5675 12.53625 22.375 12.8125 C25 14 25 14 27 17 C23.62470755 15.75554435 20.8567334 14.34239851 17.9375 12.25 C13.33188867 9.07344851 8.48496398 6.72227516 3.40625 4.39453125 C1 3 1 3 0 0 Z " fill="#8318DC" transform="translate(298,79)"/>
<path d="M0 0 C0.33 0.66 0.66 1.32 1 2 C-0.375 4 -0.375 4 -2 6 C-2.66 6 -3.32 6 -4 6 C-4.06058594 6.55171875 -4.12117188 7.1034375 -4.18359375 7.671875 C-5.36123477 11.03012402 -7.51490331 12.79914749 -10.0625 15.25 C-10.98160156 16.14203125 -11.90070313 17.0340625 -12.84765625 17.953125 C-13.55792969 18.62859375 -14.26820313 19.3040625 -15 20 C-15.33 19.34 -15.66 18.68 -16 18 C-15.31164062 17.22076172 -15.31164062 17.22076172 -14.609375 16.42578125 C-11.97223719 13.42853009 -9.35163958 10.44472064 -6.875 7.3125 C-4.74737489 4.68842903 -2.42064782 2.3534076 0 0 Z M-20 22 C-18 23 -18 23 -18 23 Z " fill="#F6DCFE" transform="translate(334,112)"/>
<path d="M0 0 C0 13.53 0 27.06 0 41 C-0.33 41 -0.66 41 -1 41 C-1.33 28.79 -1.66 16.58 -2 4 C-2.99 3.67 -3.98 3.34 -5 3 C-2.25 0 -2.25 0 0 0 Z " fill="#7D0ED9" transform="translate(338,139)"/>
<path d="M0 0 C4.278551 0.47539456 6.09647107 3.02565329 9 6 C11.58027194 8.21166166 13.1238466 9.01482721 16.5390625 8.95703125 C19.043908 8.7136026 21.51578852 8.40036806 24 8 C23.01 9.485 23.01 9.485 22 11 C19.50390625 11.36328125 19.50390625 11.36328125 16.5625 11.3125 C15.59441406 11.30863281 14.62632812 11.30476562 13.62890625 11.30078125 C11 11 11 11 8 9 C8 8.34 8 7.68 8 7 C7.01 6.67 6.02 6.34 5 6 C5 5.34 5 4.68 5 4 C2.03 3.505 2.03 3.505 -1 3 C-0.67 2.01 -0.34 1.02 0 0 Z " fill="#851CE1" transform="translate(234,210)"/>
<path d="M0 0 C0.33 1.32 0.66 2.64 1 4 C0.15695313 4.68707031 -0.68609375 5.37414062 -1.5546875 6.08203125 C-2.66163157 6.9919768 -3.76839288 7.90214471 -4.875 8.8125 C-5.70837891 9.49022461 -5.70837891 9.49022461 -6.55859375 10.18164062 C-9.16577261 12.33334848 -11.11081878 14.16622816 -13 17 C-13.99 16.67 -14.98 16.34 -16 16 C-12.21309138 11.36103694 -8.30424428 7.3506875 -3.734375 3.48046875 C-1.91019463 1.96268408 -1.91019463 1.96268408 0 0 Z " fill="#8925DD" transform="translate(202,156)"/>
<path d="M0 0 C-0.33 0.99 -0.66 1.98 -1 3 C-2.65 3 -4.3 3 -6 3 C-6 3.66 -6 4.32 -6 5 C-8.62035018 6.36389525 -11.24556999 7.71632173 -13.875 9.0625 C-14.62136719 9.45244141 -15.36773437 9.84238281 -16.13671875 10.24414062 C-17.20986328 10.79038086 -17.20986328 10.79038086 -18.3046875 11.34765625 C-19.2944458 11.85824585 -19.2944458 11.85824585 -20.30419922 12.37915039 C-20.86381348 12.58403076 -21.42342773 12.78891113 -22 13 C-22.66 12.67 -23.32 12.34 -24 12 C-19.02689912 8.71775342 -13.94221936 5.86248295 -8.625 3.1875 C-8.00608887 2.87353271 -7.38717773 2.55956543 -6.74951172 2.23608398 C-2.24758716 0 -2.24758716 0 0 0 Z " fill="#8923E2" transform="translate(234,62)"/>
<path d="M0 0 C0 0.66 0 1.32 0 2 C-1.93359375 3.47265625 -1.93359375 3.47265625 -4.4375 5.0625 C-7.3718143 6.83678892 -7.3718143 6.83678892 -10 9 C-11.99958364 9.04080783 -14.00045254 9.04254356 -16 9 C-16 9.66 -16 10.32 -16 11 C-17.32 10.67 -18.64 10.34 -20 10 C-17.04550087 8.3264663 -14.0857982 6.66236015 -11.125 5 C-10.28324219 4.52304688 -9.44148438 4.04609375 -8.57421875 3.5546875 C-7.76855469 3.10351562 -6.96289062 2.65234375 -6.1328125 2.1875 C-5.38918457 1.76855469 -4.64555664 1.34960938 -3.87939453 0.91796875 C-2 0 -2 0 0 0 Z " fill="#ECC9FD" transform="translate(292,230)"/>
<path d="M0 0 C0 3.59857954 -0.95830515 5.09451118 -3 8 C-3.66 8 -4.32 8 -5 8 C-5.20625 8.5775 -5.4125 9.155 -5.625 9.75 C-7.49750888 12.81410544 -9.96958519 14.15539968 -13 16 C-13.66 15.67 -14.32 15.34 -15 15 C-10.05 10.05 -5.1 5.1 0 0 Z " fill="#871CE1" transform="translate(185,173)"/>
<path d="M0 0 C0 3.20395416 -0.74335022 5.09399739 -2 8 C-3.32 7.34 -4.64 6.68 -6 6 C-6.33 6.99 -6.66 7.98 -7 9 C-8.32 8.67 -9.64 8.34 -11 8 C-9.92643323 6.84501103 -8.84070212 5.70132133 -7.75 4.5625 C-7.14671875 3.92441406 -6.5434375 3.28632813 -5.921875 2.62890625 C-3.89951984 0.91483694 -2.58729395 0.40641122 0 0 Z " fill="#8C0FEF" transform="translate(336,142)"/>
<path d="M0 0 C2.475 0.99 2.475 0.99 5 2 C5.39801392 5.4826218 5.12373826 6.80799236 3.1875 9.8125 C2.465625 10.534375 1.74375 11.25625 1 12 C0.01 12 -0.98 12 -2 12 C-2.2475 12.5775 -2.495 13.155 -2.75 13.75 C-4.16683317 16.3002997 -5.87627537 18.01785701 -8 20 C-8 15.82308582 -5.77013484 13.86318847 -3 11 C-1.05228995 9.24842937 0.94324501 7.62627139 3 6 C2.690625 5.38125 2.38125 4.7625 2.0625 4.125 C1.375 2.75 0.6875 1.375 0 0 Z " fill="#861EDE" transform="translate(292,120)"/>
<path d="M0 0 C5.51914718 0.29048143 9.19967771 2.72974797 13.73046875 5.625 C16.03120535 7.13324515 16.03120535 7.13324515 19 8 C19 8.66 19 9.32 19 10 C11.91987331 8.55179227 6.00615571 4.93506753 0 1 C0 0.67 0 0.34 0 0 Z " fill="#8114DB" transform="translate(215,232)"/>
<path d="M0 0 C2.475 0.99 2.475 0.99 5 2 C5 2.66 5 3.32 5 4 C5.99 4.33 6.98 4.66 8 5 C8 5.66 8 6.32 8 7 C8.66 7 9.32 7 10 7 C13.24771409 9.8516514 15.19109447 11.74642936 16 16 C10.35573231 11.31645873 4.9941954 6.3792354 0 1 C0 0.67 0 0.34 0 0 Z " fill="#8822DD" transform="translate(223,168)"/>
<path d="M0 0 C3.16797175 2.65225542 5.62748777 5.62853525 8 9 C5.47562314 7.9181242 4.0225394 7.02564829 2.1875 4.9375 C-0.73679717 2.34740822 -3.17982042 2.29385997 -7 2 C-7.33 2.99 -7.66 3.98 -8 5 C-10.0625 5.6875 -10.0625 5.6875 -12 6 C-8.19988338 1.0598484 -6.43241704 -0.75675495 0 0 Z " fill="#831FDA" transform="translate(254,111)"/>
<path d="M0 0 C0.8457242 2.53717261 1.11464896 3.68251059 0.1875 6.25 C-0.12422469 10.82196209 3.13623196 13.6547869 6 17 C2.22507715 15.25103155 0.28852689 13.55116242 -2 10 C-2.9375 6.375 -2.9375 6.375 -3 3 C-1.5625 1.0625 -1.5625 1.0625 0 0 Z " fill="#8419DE" transform="translate(169,189)"/>
<path d="M0 0 C0.33 0.66 0.66 1.32 1 2 C-1.88906434 5.55498342 -4.74046852 8.92373846 -8.3125 11.8125 C-11.03075197 13.71869511 -11.03075197 13.71869511 -12 16 C-12.99 15.67 -13.98 15.34 -15 15 C-10.05 10.05 -5.1 5.1 0 0 Z " fill="#8720DD" transform="translate(292,183)"/>
<path d="M0 0 C2.475 0.99 2.475 0.99 5 2 C5 2.66 5 3.32 5 4 C5.99 4.33 6.98 4.66 8 5 C8 5.66 8 6.32 8 7 C10.97 7 13.94 7 17 7 C15 9 15 9 12.375 9.5625 C7.34643446 8.72440574 4.44098903 5.62987386 1 2 C0.67 1.34 0.34 0.68 0 0 Z " fill="#8520DB" transform="translate(239,184)"/>
<path d="M0 0 C0.66 0 1.32 0 2 0 C2.24492187 0.73605469 2.48984375 1.47210938 2.7421875 2.23046875 C4.13627678 5.30006284 5.6939196 6.99905253 8.125 9.3125 C8.84945312 10.00988281 9.57390625 10.70726562 10.3203125 11.42578125 C10.87460938 11.94527344 11.42890625 12.46476563 12 13 C11.01 13.495 11.01 13.495 10 14 C9.278125 13.2575 8.55625 12.515 7.8125 11.75 C5.12301413 8.9778071 5.12301413 8.9778071 2.1875 7 C0 5 0 5 -0.3125 2.25 C-0.209375 1.5075 -0.10625 0.765 0 0 Z " fill="#8A22E0" transform="translate(204,177)"/>
<path d="M0 0 C2.0625 0.4375 2.0625 0.4375 4 1 C-6.37357631 7.51936219 -6.37357631 7.51936219 -12 9 C-11 6 -11 6 -8.75 4.6484375 C-7.8425 4.22820312 -6.935 3.80796875 -6 3.375 C-2.77367937 2.02348275 -2.77367937 2.02348275 0 0 Z " fill="#8217DF" transform="translate(284,231)"/>
<path d="M0 0 C0 3.59857954 -0.95830515 5.09451118 -3 8 C-3.66 8 -4.32 8 -5 8 C-5 8.66 -5 9.32 -5 10 C-6.65 10.33 -8.3 10.66 -10 11 C-6.79239749 7.19364503 -3.59253891 3.45436433 0 0 Z " fill="#8819E2" transform="translate(276,199)"/>
<path d="M0 0 C1.32 0.66 2.64 1.32 4 2 C0.66666667 4.66666667 -2.66666667 7.33333333 -6 10 C-6.66 9.67 -7.32 9.34 -8 9 C-7.50628906 8.51789063 -7.01257813 8.03578125 -6.50390625 7.5390625 C-5.86324219 6.90742188 -5.22257813 6.27578125 -4.5625 5.625 C-3.92441406 4.99851563 -3.28632813 4.37203125 -2.62890625 3.7265625 C-0.92117824 2.08276939 -0.92117824 2.08276939 0 0 Z " fill="#F4D3FE" transform="translate(218,165)"/>
<path d="M0 0 C0.33 0.66 0.66 1.32 1 2 C-2.625 7.75 -2.625 7.75 -6 10 C-6.99 9.67 -7.98 9.34 -9 9 C-6.21000549 5.51250686 -3.74764169 2.49842779 0 0 Z " fill="#881CE2" transform="translate(212,146)"/>
<path d="M0 0 C0.99 0.33 1.98 0.66 3 1 C0.03 3.97 -2.94 6.94 -6 10 C-6.33 9.01 -6.66 8.02 -7 7 C-4.89921489 3.92385037 -3.11378405 2.07585603 0 0 Z " fill="#F7DEFE" transform="translate(220,110)"/>
<path d="M0 0 C1.65 0 3.3 0 5 0 C5 2 5 2 3.3203125 3.69140625 C2.59585937 4.30886719 1.87140625 4.92632812 1.125 5.5625 C0.40570313 6.18253906 -0.31359375 6.80257812 -1.0546875 7.44140625 C-3 9 -3 9 -5 10 C-5 9.01 -5 8.02 -5 7 C-4.34 7 -3.68 7 -3 7 C-1.79371992 4.66785852 -0.8345262 2.50357861 0 0 Z " fill="#952FE9" transform="translate(261,181)"/>
<path d="M0 0 C5.50102837 0.41257713 9.76201664 2.54722675 14 6 C14 6.66 14 7.32 14 8 C8.25 6.125 8.25 6.125 6 5 C6 4.34 6 3.68 6 3 C5.38125 2.87625 4.7625 2.7525 4.125 2.625 C2 2 2 2 0 0 Z " fill="#8D2DDC" transform="translate(194,220)"/>
<path d="M0 0 C2.0625 0.4375 2.0625 0.4375 4 1 C2.23754778 2.1999038 0.46473019 3.38459517 -1.3125 4.5625 C-2.79169922 5.55443359 -2.79169922 5.55443359 -4.30078125 6.56640625 C-5.19152344 7.03949219 -6.08226562 7.51257813 -7 8 C-7.99 7.67 -8.98 7.34 -10 7 C-7.45115655 4.02634931 -4.49777936 2.672851 -1 1 C-0.67 0.67 -0.34 0.34 0 0 Z " fill="#8419DC" transform="translate(308,217)"/>
<path d="M0 0 C0.99 0.33 1.98 0.66 3 1 C2.01 1.33 1.02 1.66 0 2 C-0.68486725 3.32407669 -1.34870203 4.65909241 -2 6 C-4 8.25 -4 8.25 -6 10 C-6.66 10 -7.32 10 -8 10 C-5.98604326 5.66224703 -4.0174983 2.6783322 0 0 Z " fill="#8B20E2" transform="translate(288,156)"/>
<path d="M0 0 C0.66 0.33 1.32 0.66 2 1 C1.01 2.485 1.01 2.485 0 4 C-0.66 4 -1.32 4 -2 4 C-2.268125 4.61875 -2.53625 5.2375 -2.8125 5.875 C-4 8 -4 8 -7 10 C-5.37540107 3.26951872 -5.37540107 3.26951872 -2.5625 1.25 C-1.716875 0.8375 -0.87125 0.425 0 0 Z " fill="#8A1FE6" transform="translate(298,146)"/>
<path d="M0 0 C0.99 0.33 1.98 0.66 3 1 C2.52949219 1.39832031 2.05898437 1.79664062 1.57421875 2.20703125 C0.95160156 2.73683594 0.32898438 3.26664062 -0.3125 3.8125 C-0.92738281 4.33457031 -1.54226562 4.85664062 -2.17578125 5.39453125 C-3.85424679 6.87172469 -5.43882034 8.40039131 -7 10 C-7.33 9.01 -7.66 8.02 -8 7 C-7.21625 6.7525 -6.4325 6.505 -5.625 6.25 C-2.64259316 4.82980627 -2.1589951 3.99407067 -1 1 C-0.67 0.67 -0.34 0.34 0 0 Z " fill="#8D26E4" transform="translate(229,98)"/>
<path d="M0 0 C0.99 0.66 1.98 1.32 3 2 C1.47005208 3.20442708 -0.05989583 4.40885417 -1.58984375 5.61328125 C-3.27155077 7.05683091 -3.27155077 7.05683091 -4 10 C-4.66 10 -5.32 10 -6 10 C-5.49477778 5.62140745 -2.82172778 3.18348776 0 0 Z " fill="#8E28E4" transform="translate(174,96)"/>
<path d="M0 0 C4.38889325 0.66498383 7.9811485 2.18757677 12 4 C9.5332355 4.88336837 8.36140628 5.1312406 5.859375 4.22265625 C5.16328125 3.83980469 4.4671875 3.45695313 3.75 3.0625 C3.04359375 2.68222656 2.3371875 2.30195313 1.609375 1.91015625 C1.07828125 1.60980469 0.5471875 1.30945313 0 1 C0 0.67 0 0.34 0 0 Z " fill="#8C27E0" transform="translate(234,242)"/>
<path d="M0 0 C0.33 0.66 0.66 1.32 1 2 C0.67 2.99 0.34 3.98 0 5 C-0.66 5 -1.32 5 -2 5 C-2.33 5.99 -2.66 6.98 -3 8 C-4.32 7.67 -5.64 7.34 -7 7 C-4.69 4.69 -2.38 2.38 0 0 Z " fill="#8A1AE3" transform="translate(265,210)"/>
<path d="M0 0 C0 3.16880694 -0.2058242 4.43689172 -2 7 C-4.625 7.75 -4.625 7.75 -7 8 C-6.02133662 6.85373678 -5.04205413 5.70800212 -4.0625 4.5625 C-3.51722656 3.92441406 -2.97195313 3.28632813 -2.41015625 2.62890625 C-1.63204305 1.73008851 -0.84063472 0.84063472 0 0 Z " fill="#8C1BE5" transform="translate(316,159)"/>
<path d="M0 0 C0.33 1.32 0.66 2.64 1 4 C-0.65 5.32 -2.3 6.64 -4 8 C-4.33 7.01 -4.66 6.02 -5 5 C-3.35 3.35 -1.7 1.7 0 0 Z " fill="#8714E6" transform="translate(202,156)"/>
<path d="M0 0 C1.32 0 2.64 0 4 0 C3.67 0.99 3.34 1.98 3 3 C2.38125 3.144375 1.7625 3.28875 1.125 3.4375 C-1.7073715 4.1872454 -2.44987517 5.59730651 -4 8 C-4.66 7.67 -5.32 7.34 -6 7 C-4.71937515 5.2925002 -3.38232443 3.62626404 -2 2 C-1.34 2 -0.68 2 0 2 C0 1.34 0 0.68 0 0 Z " fill="#EECAFD" transform="translate(243,86)"/>
<path d="M0 0 C4.12751449 0.60698743 7.3321148 2.03810791 11 4 C8.83032311 4.95465783 7.43671207 5.14401212 5.17578125 4.3984375 C3.4315257 3.64129615 1.71372869 2.82390802 0 2 C0 1.34 0 0.68 0 0 Z " fill="#EBC2FC" transform="translate(229,241)"/>
<path d="M0 0 C0.99 0.33 1.98 0.66 3 1 C1.8553125 1.8971875 1.8553125 1.8971875 0.6875 2.8125 C-1.3483575 4.46959332 -3.1978279 6.10297674 -5 8 C-4.45773019 4.20411134 -2.79872437 2.52788007 0 0 Z " fill="#8A26E0" transform="translate(203,124)"/>
<path d="M0 0 C0.99 0.33 1.98 0.66 3 1 C1.8553125 1.8971875 1.8553125 1.8971875 0.6875 2.8125 C-1.3483575 4.46959332 -3.1978279 6.10297674 -5 8 C-4.45773019 4.20411134 -2.79872437 2.52788007 0 0 Z " fill="#8B25E1" transform="translate(219,108)"/>
<path d="M0 0 C0 3 0 3 -1 5 C-1.66 5 -2.32 5 -3 5 C-3 5.99 -3 6.98 -3 8 C-4.32 7.67 -5.64 7.34 -7 7 C-4.69 4.69 -2.38 2.38 0 0 Z " fill="#8A1FE4" transform="translate(324,151)"/>
<path d="M0 0 C0.99 0.33 1.98 0.66 3 1 C1.8553125 1.8971875 1.8553125 1.8971875 0.6875 2.8125 C-1.3483575 4.46959332 -3.1978279 6.10297674 -5 8 C-4.45773019 4.20411134 -2.79872437 2.52788007 0 0 Z " fill="#8D26E5" transform="translate(195,132)"/>
<path d="M0 0 C0.99 0.33 1.98 0.66 3 1 C1.8553125 1.8971875 1.8553125 1.8971875 0.6875 2.8125 C-1.3483575 4.46959332 -3.1978279 6.10297674 -5 8 C-4.45773019 4.20411134 -2.79872437 2.52788007 0 0 Z " fill="#8B24E4" transform="translate(211,116)"/>
<path d="M0 0 C1.65 0 3.3 0 5 0 C5 0.66 5 1.32 5 2 C3.03852126 3.38938077 1.03833424 4.7260411 -1 6 C-0.67 4.02 -0.34 2.04 0 0 Z " fill="#9730EA" transform="translate(269,173)"/>
<path d="M0 0 C0.99 0 1.98 0 3 0 C2.75 1.875 2.75 1.875 2 4 C-0.0625 5.25 -0.0625 5.25 -2 6 C-1.125 1.125 -1.125 1.125 0 0 Z " fill="#830BE4" transform="translate(302,140)"/>
<path d="M0 0 C2.875 0.25 2.875 0.25 6 1 C7.375 3.0625 7.375 3.0625 8 5 C4.62496331 3.8141763 2.35277269 2.72426311 0 0 Z " fill="#8E2DE4" transform="translate(215,232)"/>
</svg>
